<svg xmlns="http://www.w3.org/2000/svg" xmlns:xlink="http://www.w3.org/1999/xlink" style="display:none"><symbol id="icon_arrow" viewBox="0 0 16 12"><path d="M1.143 4.571h10.971l-2.64-2.64a1.083 1.083 0 01-.331-.788C9.143.58 9.607 0 10.286 0c.303 0 .568.11.788.331l4.548 4.548c.187.187.378.419.378.835 0 .417-.16.617-.37.827l-4.556 4.556c-.22.221-.485.332-.788.332-.68 0-1.143-.581-1.143-1.143 0-.295.106-.564.331-.789l2.64-2.64H1.143a1.143 1.143 0 010-2.286z" fill="#fff"/></symbol><symbol id="icon_back" viewBox="0 0 56 56"><path d="M28 56c15.464 0 28-12.536 28-28S43.464 0 28 0 0 12.536 0 28s12.536 28 28 28z" fill="#BDC8D0"/><path d="M24.693 28l8.925-8.802c.51-.503.51-1.318 0-1.82a1.319 1.319 0 00-1.847 0L21 28l10.771 10.623c.51.503 1.337.503 1.847 0s.51-1.318 0-1.821L24.693 28z" fill="#fff"/></symbol><symbol id="icon_calendar" viewBox="0 0 20 20"><path fill-rule="evenodd" clip-rule="evenodd" d="M18.4 2.019H16V0h-2v2.019H6V0H4v2.019H1.632a1.6 1.6 0 00-1.6 1.6V18.4a1.6 1.6 0 001.6 1.6H18.4a1.6 1.6 0 001.6-1.6V3.619a1.6 1.6 0 00-1.6-1.6zM18 18H2V8h16v10zM2 6h16V4H2v2z" fill="#000"/><path fill="#000" d="M9.2 10h2v2h-2zm4 0h2v2h-2zm-4 4h2v2h-2zm-4 0h2v2h-2z"/></symbol><symbol id="icon_fb" viewBox="0 0 32 32"><path fill-rule="evenodd" clip-rule="evenodd" d="M13.741 24.704h3.597V16h2.4l.317-3h-2.717l.004-1.502c0-.781.074-1.201 1.197-1.201h1.5v-3h-2.4c-2.883 0-3.898 1.455-3.898 3.902V13h-1.797v3h1.797v8.704z" fill="currentColor"/></symbol><symbol id="icon_lk" viewBox="0 0 26 26"><g opacity=".4" stroke="#fff" stroke-linecap="round" stroke-linejoin="round"><path clip-rule="evenodd" d="M13 11.695a2.087 2.087 0 100-4.174 2.087 2.087 0 000 4.174z"/><path d="M8.305 18.479a4.696 4.696 0 119.391 0"/><path clip-rule="evenodd" d="M13 25c6.627 0 12-5.373 12-12S19.627 1 13 1 1 6.373 1 13s5.373 12 12 12z"/></g></symbol><symbol id="icon_load" viewBox="0 0 16 16"><path fill-rule="evenodd" clip-rule="evenodd" d="M11.676 1.122A1 1 0 0113.66.878l.332 2.702a1 1 0 01-.894 1.117l-3 .298a1 1 0 11-.198-1.99l.614-.061A5.36 5.36 0 007.475 2C4.454 2 2 4.506 2 7.606a1 1 0 01-2 0C0 3.41 3.342 0 7.474 0c1.537 0 3 .475 4.228 1.333l-.026-.211zM15 6.816a1 1 0 00-1 1C14 11.255 11.537 14 8.557 14a4.955 4.955 0 01-2.928-.97l.442-.032a1 1 0 00-.142-1.995l-3 .214a1 1 0 00-.926 1.08l.231 2.786a1 1 0 101.993-.165l-.039-.473C5.438 15.443 6.956 16 8.557 16 12.693 16 16 12.313 16 7.816a1 1 0 00-1-1z" fill="currentColor"/></symbol><symbol id="icon_member" viewBox="0 0 22 19"><path d="M14.636 17.364v-1.819A3.636 3.636 0 0011 11.91H4.636A3.636 3.636 0 001 15.545v1.819" stroke="#000" stroke-width="2" stroke-linecap="round" stroke-linejoin="round"/><path clip-rule="evenodd" d="M7.818 8.273a3.636 3.636 0 100-7.273 3.636 3.636 0 000 7.273z" stroke="#000" stroke-width="2" stroke-linecap="round" stroke-linejoin="round"/><path d="M18.273 5.546V11M21 8.272h-5.454" stroke="#000" stroke-width="2" stroke-linecap="round" stroke-linejoin="round"/></symbol><symbol id="icon_ok" viewBox="0 0 32 32"><path fill-rule="evenodd" clip-rule="evenodd" d="M11.514 11.694c0 2.552 2.01 4.614 4.482 4.614 2.48 0 4.482-2.062 4.482-4.614S18.475 7.08 15.996 7.08c-2.471 0-4.482 2.062-4.482 4.614zm4.482 5.835a5.522 5.522 0 01-2.751-.73c-.355-.211-.484-.382-.922-.382-.74 0-1.346.622-1.346 1.384 0 .452.212.849.545 1.105.06.04.128.086.196.125.703.436 1.482.77 2.306.98l-2.48 2.552a1.414 1.414 0 000 1.954 1.32 1.32 0 001.897 0l2.555-2.638 2.562 2.637a1.32 1.32 0 001.898 0 1.415 1.415 0 000-1.953l-2.48-2.552a8.36 8.36 0 002.306-.98c.068-.039.136-.086.196-.125.325-.256.537-.653.537-1.104 0-.763-.597-1.385-1.338-1.385-.438 0-.567.171-.922.381a5.526 5.526 0 01-2.759.731zm0-3.906c-1.035 0-1.874-.863-1.874-1.93 0-1.065.839-1.929 1.874-1.929 1.043 0 1.882.864 1.882 1.93 0 1.066-.839 1.93-1.882 1.93z" fill="currentColor"/></symbol><symbol id="icon_rating-6" viewBox="0 0 29 26"><path opacity=".5" d="M10.788 12.134c.644 0 1.213.121 1.708.364.504.243.896.588 1.176 1.036.28.439.42.952.42 1.54 0 .597-.145 1.125-.434 1.582-.29.457-.69.812-1.204 1.064-.504.243-1.073.364-1.708.364-1.297 0-2.291-.425-2.982-1.274-.69-.859-1.036-2.067-1.036-3.626 0-1.092.187-2.016.56-2.772.373-.756.896-1.325 1.568-1.708.672-.392 1.456-.588 2.352-.588.97 0 1.745.177 2.324.532l-.406.812c-.467-.308-1.101-.462-1.904-.462-1.083 0-1.932.345-2.548 1.036-.616.681-.924 1.675-.924 2.982 0 .233.014.5.042.798.243-.532.63-.943 1.162-1.232.532-.299 1.143-.448 1.834-.448zm-.084 5.096c.71 0 1.283-.191 1.722-.574.448-.392.672-.91.672-1.554s-.224-1.157-.672-1.54c-.439-.383-1.036-.574-1.792-.574-.495 0-.933.093-1.316.28a2.217 2.217 0 00-.882.77c-.215.327-.322.69-.322 1.092 0 .373.098.719.294 1.036.205.317.504.574.896.77.392.196.859.294 1.4.294zm10.966-3.71h-2.604v2.548h-.882V13.52H15.58v-.826h2.604v-2.562h.882v2.562h2.604v.826z" fill="#fff"/><path opacity=".4" d="M26.68 10.5a5 5 0 010 5l-4.113 7.124a5 5 0 01-4.33 2.5h-8.226a5 5 0 01-4.33-2.5l-4.114-7.125a5 5 0 010-5l4.114-7.124a5 5 0 014.33-2.5h8.226a5 5 0 014.33 2.5l4.114 7.124z" stroke="#fff"/></symbol><symbol id="icon_vk" viewBox="0 0 32 32"><path d="M23.986 11.773h-2.813a.634.634 0 00-.559.34s-1.122 2.101-1.482 2.809c-.97 1.903-1.597 1.306-1.597.422v-3.046c0-.53-.423-.96-.944-.96h-2.115a1.684 1.684 0 00-1.497.707s1.074-.177 1.074 1.295c0 .364.018 1.414.035 2.294a.634.634 0 01-.393.605.617.617 0 01-.695-.166 18.812 18.812 0 01-2.135-3.95.592.592 0 00-.54-.35H7.77a.432.432 0 00-.358.188.448.448 0 00-.052.407c.776 2.165 4.119 8.966 7.934 8.966H16.9a.64.64 0 00.635-.645v-.986c0-.253.147-.482.375-.582a.616.616 0 01.675.12l1.922 1.836c.173.165.4.257.637.257h2.525c1.217 0 1.217-.859.553-1.524-.467-.467-2.152-2.274-2.152-2.274a.897.897 0 01-.067-1.15c.544-.73 1.436-1.922 1.814-2.434.516-.698 1.451-2.179.17-2.179z" fill="currentColor"/></symbol></svg>