<svg width="73" height="38" fill="none" xmlns="http://www.w3.org/2000/svg"><g clip-path="url(#clip0)"><path d="M11.584 16l-.016-6.704-3.296 5.52H7.12L3.824 9.424V16H1.392V4.8h2.144l4.192 6.96 4.128-6.96H14l.016 11.2h-2.432zm10.558.192c-1.162 0-2.213-.25-3.152-.752a5.672 5.672 0 01-2.192-2.064c-.522-.885-.784-1.877-.784-2.976s.262-2.085.784-2.96a5.635 5.635 0 012.192-2.08c.939-.501 1.99-.752 3.152-.752 1.163 0 2.208.25 3.136.752a5.635 5.635 0 012.192 2.08c.534.875.8 1.861.8 2.96s-.266 2.09-.8 2.976a5.673 5.673 0 01-2.192 2.064c-.928.501-1.973.752-3.136.752zm0-2.208c.662 0 1.259-.15 1.792-.448.534-.31.95-.736 1.248-1.28.31-.544.464-1.163.464-1.856 0-.693-.154-1.312-.464-1.856a3.163 3.163 0 00-1.248-1.264 3.506 3.506 0 00-1.792-.464c-.661 0-1.258.155-1.792.464a3.27 3.27 0 00-1.264 1.264c-.298.544-.448 1.163-.448 1.856 0 .693.15 1.312.448 1.856.31.544.73.97 1.264 1.28a3.6 3.6 0 001.792.448zM38.805 4.8V16h-2.56v-2.976h-2.368L31.893 16h-2.736l2.336-3.376c-.758-.31-1.339-.773-1.744-1.392-.406-.63-.608-1.381-.608-2.256 0-.864.197-1.605.592-2.224.394-.63.954-1.11 1.68-1.44.725-.341 1.578-.512 2.56-.512h4.832zm-4.768 2.112c-.736 0-1.302.17-1.696.512-.384.341-.576.848-.576 1.52 0 .65.186 1.152.56 1.504.373.352.922.528 1.648.528h2.272V6.912h-2.208z" fill="#151F6D"/><path d="M6.24 24.8c.992 0 1.85.165 2.576.496.736.33 1.301.8 1.696 1.408.395.608.592 1.328.592 2.16 0 .821-.197 1.541-.592 2.16-.395.608-.96 1.077-1.696 1.408-.725.32-1.584.48-2.576.48H3.984V36H1.392V24.8H6.24zm-.144 6c.779 0 1.37-.165 1.776-.496.405-.341.608-.821.608-1.44 0-.63-.203-1.11-.608-1.44-.405-.341-.997-.512-1.776-.512H3.984V30.8h2.112zm12.218 5.392c-1.163 0-2.213-.25-3.152-.752a5.673 5.673 0 01-2.192-2.064c-.523-.885-.784-1.877-.784-2.976s.261-2.085.784-2.96a5.635 5.635 0 012.192-2.08c.939-.501 1.99-.752 3.152-.752 1.163 0 2.208.25 3.136.752a5.635 5.635 0 012.192 2.08c.534.875.8 1.861.8 2.96s-.267 2.09-.8 2.976a5.672 5.672 0 01-2.192 2.064c-.928.501-1.973.752-3.136.752zm0-2.208c.662 0 1.259-.15 1.792-.448.534-.31.95-.736 1.248-1.28.31-.544.464-1.163.464-1.856 0-.693-.155-1.312-.464-1.856a3.162 3.162 0 00-1.248-1.264 3.506 3.506 0 00-1.792-.464 3.51 3.51 0 00-1.792.464 3.28 3.28 0 00-1.264 1.264c-.298.544-.448 1.163-.448 1.856 0 .693.15 1.312.448 1.856.31.544.73.97 1.264 1.28a3.6 3.6 0 001.792.448zm13.42 2.208c-1.14 0-2.175-.245-3.103-.736a5.702 5.702 0 01-2.176-2.064c-.523-.885-.784-1.883-.784-2.992 0-1.11.261-2.101.784-2.976a5.549 5.549 0 012.176-2.064c.928-.501 1.968-.752 3.12-.752.97 0 1.845.17 2.624.512.79.341 1.45.832 1.984 1.472l-1.664 1.536c-.758-.875-1.696-1.312-2.816-1.312-.694 0-1.312.155-1.856.464-.544.299-.97.72-1.28 1.264-.299.544-.448 1.163-.448 1.856 0 .693.15 1.312.448 1.856.31.544.736.97 1.28 1.28.544.299 1.163.448 1.856.448 1.12 0 2.058-.443 2.816-1.328l1.664 1.536a5.187 5.187 0 01-1.984 1.488c-.79.341-1.67.512-2.64.512zm11.376 0c-1.142 0-2.176-.245-3.104-.736a5.702 5.702 0 01-2.176-2.064c-.523-.885-.784-1.883-.784-2.992 0-1.11.261-2.101.784-2.976a5.549 5.549 0 012.176-2.064c.928-.501 1.968-.752 3.12-.752.97 0 1.845.17 2.624.512.79.341 1.45.832 1.984 1.472l-1.664 1.536c-.758-.875-1.696-1.312-2.816-1.312-.694 0-1.312.155-1.856.464-.544.299-.97.72-1.28 1.264-.299.544-.448 1.163-.448 1.856 0 .693.15 1.312.448 1.856.31.544.736.97 1.28 1.28.544.299 1.162.448 1.856.448 1.12 0 2.059-.443 2.816-1.328l1.664 1.536a5.187 5.187 0 01-1.984 1.488c-.79.341-1.67.512-2.64.512zM49.423 24.8H52v7.296l5.344-7.296h2.432V36h-2.56v-7.28L51.871 36h-2.448V24.8zm22.085 0V36h-2.56v-2.976H66.58L64.596 36H61.86l2.336-3.376c-.758-.31-1.339-.773-1.744-1.392-.405-.63-.608-1.381-.608-2.256 0-.864.197-1.605.592-2.224.395-.63.955-1.11 1.68-1.44.725-.341 1.579-.512 2.56-.512h4.832zm-4.768 2.112c-.736 0-1.301.17-1.696.512-.384.341-.576.848-.576 1.52 0 .65.186 1.152.56 1.504.373.352.922.528 1.648.528h2.272v-4.064H66.74z" fill="#E00640"/></g><defs><clipPath id="clip0"><path fill="#fff" d="M0 0h73v38H0z"/></clipPath></defs></svg>