<svg width="206" height="161" fill="none" xmlns="http://www.w3.org/2000/svg"><path d="M17.376 143l-.024-10.056-4.944 8.28H10.68l-4.944-8.088V143H2.088v-16.8h3.216l6.288 10.44 6.192-10.44H21l.024 16.8h-3.648zm15.837.288c-1.744 0-3.32-.376-4.728-1.128-1.392-.752-2.488-1.784-3.288-3.096-.784-1.328-1.176-2.816-1.176-4.464 0-1.648.392-3.128 1.176-4.44a8.452 8.452 0 013.288-3.12c1.408-.752 2.984-1.128 4.728-1.128 1.744 0 3.312.376 4.704 1.128a8.452 8.452 0 013.288 3.12c.8 1.312 1.2 2.792 1.2 4.44 0 1.648-.4 3.136-1.2 4.464-.8 1.312-1.896 2.344-3.288 3.096-1.392.752-2.96 1.128-4.704 1.128zm0-3.312c.992 0 1.888-.224 2.688-.672a4.909 4.909 0 001.872-1.92c.464-.816.696-1.744.696-2.784 0-1.04-.232-1.968-.696-2.784a4.744 4.744 0 00-1.872-1.896c-.8-.464-1.696-.696-2.688-.696-.992 0-1.888.232-2.688.696a4.907 4.907 0 00-1.896 1.896c-.448.816-.672 1.744-.672 2.784 0 1.04.224 1.968.672 2.784a5.08 5.08 0 001.896 1.92c.8.448 1.696.672 2.688.672zM58.207 126.2V143h-3.84v-4.464h-3.552L47.84 143h-4.104l3.504-5.064c-1.136-.464-2.008-1.16-2.616-2.088-.608-.944-.912-2.072-.912-3.384 0-1.296.296-2.408.888-3.336.592-.944 1.432-1.664 2.52-2.16 1.088-.512 2.368-.768 3.84-.768h7.248zm-7.152 3.168c-1.104 0-1.952.256-2.544.768-.576.512-.864 1.272-.864 2.28 0 .976.28 1.728.84 2.256.56.528 1.384.792 2.472.792h3.408v-6.096h-3.312z" fill="#151F6D"/><path d="M76.485 126.2c1.488 0 2.776.248 3.864.744 1.104.496 1.952 1.2 2.544 2.112.592.912.888 1.992.888 3.24 0 1.232-.296 2.312-.888 3.24-.592.912-1.44 1.616-2.544 2.112-1.088.48-2.376.72-3.864.72h-3.384V143h-3.888v-16.8h7.272zm-.216 9c1.168 0 2.056-.248 2.664-.744.608-.512.912-1.232.912-2.16 0-.944-.304-1.664-.912-2.16-.608-.512-1.496-.768-2.664-.768h-3.168v5.832h3.168zm18.327 8.088c-1.744 0-3.32-.376-4.728-1.128-1.392-.752-2.488-1.784-3.288-3.096-.784-1.328-1.176-2.816-1.176-4.464 0-1.648.392-3.128 1.176-4.44a8.452 8.452 0 013.288-3.12c1.408-.752 2.984-1.128 4.728-1.128 1.744 0 3.312.376 4.704 1.128a8.453 8.453 0 013.288 3.12c.8 1.312 1.2 2.792 1.2 4.44 0 1.648-.4 3.136-1.2 4.464-.8 1.312-1.896 2.344-3.288 3.096-1.392.752-2.96 1.128-4.704 1.128zm0-3.312c.992 0 1.888-.224 2.688-.672a4.909 4.909 0 001.872-1.92c.464-.816.696-1.744.696-2.784 0-1.04-.232-1.968-.696-2.784a4.744 4.744 0 00-1.872-1.896c-.8-.464-1.696-.696-2.688-.696-.992 0-1.888.232-2.688.696a4.907 4.907 0 00-1.896 1.896c-.448.816-.672 1.744-.672 2.784 0 1.04.224 1.968.672 2.784a5.08 5.08 0 001.896 1.92c.8.448 1.696.672 2.688.672zm20.131 3.312c-1.712 0-3.264-.368-4.656-1.104a8.555 8.555 0 01-3.264-3.096c-.784-1.328-1.176-2.824-1.176-4.488 0-1.664.392-3.152 1.176-4.464a8.323 8.323 0 013.264-3.096c1.392-.752 2.952-1.128 4.68-1.128 1.456 0 2.768.256 3.936.768a7.886 7.886 0 012.976 2.208l-2.496 2.304c-1.136-1.312-2.544-1.968-4.224-1.968-1.04 0-1.968.232-2.784.696a4.862 4.862 0 00-1.92 1.896c-.448.816-.672 1.744-.672 2.784 0 1.04.224 1.968.672 2.784a5.03 5.03 0 001.92 1.92c.816.448 1.744.672 2.784.672 1.68 0 3.088-.664 4.224-1.992l2.496 2.304a7.78 7.78 0 01-2.976 2.232c-1.184.512-2.504.768-3.96.768zm17.063 0c-1.712 0-3.264-.368-4.656-1.104a8.555 8.555 0 01-3.264-3.096c-.784-1.328-1.176-2.824-1.176-4.488 0-1.664.392-3.152 1.176-4.464a8.323 8.323 0 013.264-3.096c1.392-.752 2.952-1.128 4.68-1.128 1.456 0 2.768.256 3.936.768a7.886 7.886 0 012.976 2.208l-2.496 2.304c-1.136-1.312-2.544-1.968-4.224-1.968-1.04 0-1.968.232-2.784.696a4.862 4.862 0 00-1.92 1.896c-.448.816-.672 1.744-.672 2.784 0 1.04.224 1.968.672 2.784a5.03 5.03 0 001.92 1.92c.816.448 1.744.672 2.784.672 1.68 0 3.088-.664 4.224-1.992l2.496 2.304a7.78 7.78 0 01-2.976 2.232c-1.184.512-2.504.768-3.96.768zm9.47-17.088h3.864v10.944l8.016-10.944h3.648V143h-3.84v-10.92L144.932 143h-3.672v-16.8zm33.127 0V143h-3.84v-4.464h-3.552L164.019 143h-4.104l3.504-5.064c-1.136-.464-2.008-1.16-2.616-2.088-.608-.944-.912-2.072-.912-3.384 0-1.296.296-2.408.888-3.336.592-.944 1.432-1.664 2.52-2.16 1.088-.512 2.368-.768 3.84-.768h7.248zm-7.152 3.168c-1.104 0-1.952.256-2.544.768-.576.512-.864 1.272-.864 2.28 0 .976.28 1.728.84 2.256.56.528 1.384.792 2.472.792h3.408v-6.096h-3.312z" fill="#E00640"/><path fill-rule="evenodd" clip-rule="evenodd" d="M92.567 20.836l-.042-.183.315.16.157-.172.22-.24.325-.355.198.263h.105l.262-.286.241-.31.46-.229.336.275-.189.573v.321l-.22.24-.345.172-.377.161h-.377l-.283.31-.45-.173-.23-.366-.106-.16zm-1.451-.236h-.573l-.188.235-.296.258-.215-.27-.519.202.036.404.134.168.197.246.135.169-.198.201-.268-.291-.143.18-.197-.247-.448.112-.197-.135-.09.292.144.179-.269.18v.425l.215.27-.054.313h.197l.251.314-.072.358.323.202.43.023.178.224h.323l.376-.135v-.358l-.233-.27.125-.156.188.235.332-.75.313-.393.134.168.287-.359.09-.336-.323-.134-.215.269-.268-.247-.323-.247-.322-.29.107-.292.17-.213.135.571.206.258.349.079.215-.113h.179l.179-.224-.09-.47h-.286l.071-.404v-.291l-.232.09zm.817 4.037l-.28.202.218.507.358.29.296-.468v-.38l-.218-.177-.374.026zm.803.543l-.21.284.118.383.201.272-.128.395.11.148.165-.47.42-.123.366-.197.493-.396-.256-.642h-.347l-.494-.223-.228.285-.21.284zm-4.72-.267l-.262-.272-.466-.03.306.317.189.709h.378v-.392l-.145-.332zm-9.996 8.973l-.334.422v.285h.28l.09.273.233-.136.27-.342v-.547h-.342l-.198.045zm12.74-16.657l-.12.257.13.152.149-.152-.16-.258zm-1.022 10.307l-.535-.094-.169.117.31.117.394.258.17-.187-.17-.211zm-15.592.012l-.08.14.18.14.079-.163-.179-.117zm-.574-2.145l-.25.14.35.165.249.163.274-.07-.075-.304-.274.07-.274-.164zm-2.594-.458v-.36l.022-.64-.152-.36-.216.026-.303.436.022.385-.13.256.086.693-.26.307.022.692-.13.59-.108.59.195.128.411-.385.238-.18.541-.332.433-.052.541-.487.26-.59-.173-.512-.195-.385-.26.128-.26-.538-.194-.23-.239.332-.15.488zm-1.77-3.079l-.165.227-.146.31-.129-.063.092-.392v-.413l-.403.145s-.238.062-.293.082l-.33.124-.128.31-.073.268-.165.228.055.268-.311.268.146.145.22-.083.183.29.019.268.164.227.421.041.055.268.293-.206.147.268.403.166.384-.207.184-.29-.147-.33-.238-.371.183-.145.073-.35-.091-.393.036-.392-.44-.268zm-.287 6.847l-.363.512-.473.129.436.384.437-.512-.037-.513zm-3.514.862l-.1.187.14.14.178-.304-.218-.023zm-1.587 6.092l-.239.14s.1.352.1.305c0-.047.178-.094.178-.094l-.04-.351zm-1.786-2.072l-.219.21.12.281.198-.047-.1-.444zm.006 3.089l-.065.257h.55l.29.21.032-.35-.323-.047-.485-.07zM61.013 22.35l-.12.14.14.094.218.187.06-.234-.298-.187zM59.6 39.061l-.244.28.14.373.245.28.349-.343.14-.403-.315-.28-.314.093zm-.69.003l-.204.352-.223.32.205.257.167-.256h.26l.241-.385-.223-.384-.222.096zm-1.062-2.346l-.238.187.159.21.317-.187.397.094-.106-.21-.529-.094zm-1.18.991l-.1.304.16.164.178-.257-.238-.211zm-1.398-.721l-.205.191.075.215-.149.262.037.167.335.12.315-.191.186.024v-.239l-.297-.095.148-.215-.167-.31-.204.095-.074-.024zm-9.371 3.005l-.291.21-.218.106.054.683.036.369.2.078.073.552.382.053.128-.447-.182-.447.018-.5-.2-.657zm-6.485-2.051l-.492.184-.291.52-.224.398.157.582.358.184.336.183.313-.306.38.092.202-.643-.313-.55-.023-.46-.403-.184zm-13.307.851l-.08.14.14.211.178-.21-.238-.141zm18.444-.329h-.217l-.238-.412-.138.092-.415-.458-.317-.389.119-.411.316-.115.12-.229-.218-.206.02-.549-.14-.045-.138-.412-.296-.023-.237-.39.079-.503.316-.503.376.046.118.16.139.069.06-.298.454-.16.356-.435-.237-.297.316-.229.356.16.1-.343v-.343h.454l.218.251.227-.263.05-.24.494-.114-.168-.195-.425-.171v-.183l.494-.16.514-.16.257-.298h.337v-.275l.474-.023-.257-.297.416-.023.158.183-.02-.457.198-.23-.218-.297.139-.252.237.275h.297v-.343l.435.183.217-.275.218-.297h.277l.474-.252.337.137h.494l.327-.377.385.034.178.298h.416l.197.228.356-.114h.495l.326-.377.386-.24.514-.23h.475l.277.504v.55l-.416.434-.375.412-.495.045-.593.32-.534-.228-.257.297-.614-.023h-.79l-.297.367h-.613l-.455.297.138.366-.316.137-.376-.045h-.336l-.04.251-.356-.114v.412l-.356.297-.297.252v-.39l-.237.253.06.457h-.238l-.168-.194v.56l-.173-.2-.223.257-.188.218h-.257l-.198.297-.257.504h-.415l-.336.32v.435l-.336.16-.12.458-.276.32v.572l-.139.412.178.595-.158.594.218.39.099.411-.119.138-.336.183v-.298l-.317-.206zm17.881-19.158l-.277.038-.18.126.277.194.374-.088.221-.154-.415-.116zm4.168-.04l-.261.175.204.135.218.145.45-.28v-.194l-.61.02z" fill="#CCC"/><path fill-rule="evenodd" clip-rule="evenodd" d="M68.031 19.484l-.04.36-.242.144-.362.324v.45l.147.198-.195.26-.127.333.174.324.068.324.309.36.281-.36h.189l.281-.216.336-.144-.094-.432v-.54l.202-.233-.168-.225-.343-.459-.12-.36-.296-.108zM66.609 22.6l-.27-.04.047.443v.281l.35.121.142.181.215-.271.119-.393-.207-.2-.396-.121zm-3.839 9.054l-.107.126.14.145.23-.077-.263-.194zm-5.176-15.478l-.164.058.131.213v.193h.23v-.367l-.197-.097zm-.238 1.299l-.086.225-.322.103-.21.184.16.123-.074.288.136.061h.273l.216-.359.161-.267-.056-.4-.198.042zm-1.329-.129l-.163.107.31.203.563-.136v-.31h-.325l-.385.136z" fill="#CCC"/><path fill-rule="evenodd" clip-rule="evenodd" d="M56.276 17.706l-.178-.272-.135.181-.099.265v.331l.21.05.048.198.259-.083.166-.223.123-.165.067-.273h-.184l-.277-.009zM54.947 19.3l-.107.126v.242h.221l.082-.31-.197-.057zm-.828-1.54l-.15-.157h-.467v.338l-.256.27.15.158.51-.113.192.203.447-.113.127-.315.32.113-.17-.406-.288-.304-.415.326zm1.676-2.595l-.099.232.173.203.164-.193-.238-.242zm-.367.217h-.437v.377l.464.355v.293l.41-.146-.246-.398-.191-.481zm-1.17.886h-.23l-.048.058.188.222.09-.28z" fill="#CCC"/><path fill-rule="evenodd" clip-rule="evenodd" d="M54.106 17.24l-.156.183.156.203.18-.02-.18-.367zm.771-.939v.252h.23l-.05-.29-.18.038z" fill="#CCC"/><path fill-rule="evenodd" clip-rule="evenodd" d="M54.898 16.296v.222h.188l-.148-.174-.04-.048zm-.021 1.127l.082.097.148-.174-.23.077z" fill="#CCC"/><path fill-rule="evenodd" clip-rule="evenodd" d="M54.894 16.263v.27l.197.02v-.29h-.197zm-.014-1.006l.116.251.106-.125-.106-.126h-.115zm-2.269 1.593l-.238.208.413.36.46.015v-.666l-.318-.36-.317.444z" fill="#CCC"/><path fill-rule="evenodd" clip-rule="evenodd" d="M53.123 17.298l.082.27h.164v-.232l-.246-.038zm-.343-1.822l-.134.135v.149l-.153.155-.273-.196-.227.122v.162l-.28-.203-.213.081.067.324.2-.067v.215l.213.054.193-.195.273-.115.227.067h.333l.24-.242-.227-.23.154-.155-.26-.155-.134.094zm-1.641-.81h-.256l-.151-.31-.105.43.134.274.052.322.303-.215.105.215.197-.167.082.167v-.358l-.134-.274h-.122l-.105-.084zm.329 2.637h-.14l.05.242.295.019-.205-.261zm.856-.063l-.148.173.115.136.279.077-.18-.213-.066-.174z" fill="#CCC"/><path fill-rule="evenodd" clip-rule="evenodd" d="M53.082 15.257v.251h.164l.164-.193-.328-.058zm57.744-4.722l.176-.749.667-.761.744-.878.34-.4.656-.336.471-.323.438-.516.449-.53.547-.258.394-.671.744-.259.394-.49.482-.259.306-.206.35.413.504-.18.449.4.295-.35.526-.335v-.31l-.526.13-.613-.052-.394-.13.132-.464.415-.336-.35-.103v-.233l.241.026.044-.464.219-.362.306-.361.526-.233h.153l.394-.645s.372-.13.503-.284c.132-.155 0 .439 0 .439l.285.284.219.258-.241.594s.328 0 .46-.155c.131-.155 0 .31 0 .31v.542l-.504.387.394.078.241-.284.514.232V2.44l.405.478.285.516.241-.077.24-.362v.336l.154.413h-.46v.207l.372.129-.197.671-.503.052-.46.594-.241.62-.459.18-.329-.155h-.416l-.372.646.164.387v.658l-.361.427-.284-.259-.285.259h-.416l-.241-.233-.219-.155-.032.245.164.194-.197.103-.132.155.383.078v.348l.296.349.482-.155h.328l.022.49.197-.232.339.4.361.427.175.748.088.594-.35.672h-.329l-.459.232-.154.413.373-.18h.24l-.35.49.219.258.285-.129v-.49l.262-.233.471-.013.274-.322.131-.259.328.026.263-.051.481-.026v.361h.394l.11-.245h.383l.23-.271.284-.052.241.233.35-.31.165.452.317.374v.542l-.438.207-.284.723h-.46l-.131.232.514.4-.164.194.372.671.153.826v.93l.132.723.218.62.11.826.219.8.416.44v.748l.219 1.033.372.49.241.285-.373.387-.394-.232-.547.206-.284.775-.46.775.241.284-.175.723v.387l.372.671v.414l-.416-.233-.307-.361-.262.026.24.748v.49l.405.22-.405.478h-.262v.671l-.241.284.328.646.263.31.306.361.416.49.088.724.066.568.602.374.361.426h.613l-.165-.438v-.22l.209-.245.153-.388.569.672.109.594.569.464.564.149.224-.265h.362l.426.504-.175.49-.437.155.131.62.46.904.405.116.317.374.744-.103.438.413.153.465-.262.206-.373.284-.218.569.153 1.032.438.801.383.168.186.22.635.18v.31l-.482.077v.465l-.175.465.219.93.372.18.569.672.416.465.088.826.218 1.084.11.697v.517l-.241-.387h-.635l-.405-.246-.317-.374h-.438l-.394-.465-.766-.413-.723-.362-.831-.516-.241-.387-.394-.31-.438-.104-.941-.335-.613-.388-.591-.464-.285-.62-.634-.749-.438-.542v-.542l-.307-.362-.065-.594-.373-.62-.405-.103v-.22l.186-.219.154-.387-.208-.426.197-.233.164-.193-.219-.775-.109-.826-.263-.956-.416-.645-.175-.852-.197-.8-.219-.646-.263-.956-.262-.258-.022-.516.153-.62v-.801l-.263-.31-.284-.645h-.285l-.273-.116-.252-.297-.307-.465-.459-.336v-.593l.416-.465-.143-.168-.339.4-.482.31v.542l-.131.413.263.284.383.452.361.426h.438l-.044.336-.197-.026-.208.349.274.323v.826l.219.62.043.98-.153.595-.175-.516-.394-.233v.646l-.328-.387-.219-.259-.175-.439-.613-.671.175.568-.175.62h-.591v.413l-.197.852-.241.336.022 1.136.394.31-.066.723.394.723v.775l.121 1.02.361.425v.465l.306.362.285-.052.251-.271.187-.22h.328l-.022.491-.35.13v.696l-.657.13.153.903-.065.387-.416.207v.542l-.153.49s-.515.143-.416.027c.098-.117-.197-.233-.197-.233v-.335l.087-.336.361-.142-.164-.194-.394.18-.416.078v.233l-.613.335-.306.44-.35.103-.285.335-.109.388.109.49.241.284-.285.362-.459-.207.142.555-.339.4-.307.336h-.263l-.262.284.175.336.131.155-.372.284h-.503l-.493.58-.317.375-.351.697-.372.44-.372.877-.065.852.35.827-.329.387-.109.826.197.594.306.362-.262.516V55.8l-.132.645v.878l.219.284v1.317l-.197.878v.723l-.328.646v.645l-.175.568.197.523h.334l.257-.303h.361l.285-.336.317-.374.219.258.263.155v.336l.208.451.262.31.23-.27v-.414l-.306-.155v-.387l.24-.31v.258l.263.233.132-.052.131.155v.8l.438-.206v-.258l.24-.388.154-.154.24.206.055-.426-.208-.245-.197-.44-.241-.516.394-.258.241-.284.482-.13h.569l.471.066.207.245s.504-.104.613-.104c.11 0 .416-.155.416-.155l.274.323-.208.246-.153.18-.132.284h.767l.087.336.329.387.405-.064.207.245.219.49.066.982.285 1.033.448.761.558.659.219.258.11.44.438.516.306.62.11.361.405.736.339.4v1.084l-.132.93.241.93-.022.955.241.749.175.826.132.749.131 1.007v.981l-.131.517v2.247l-.132.929.132.955-.044 1.24v.593l-.438.853-.285.722-.328.724h-.285l-.547.257-.459.31-.318-.154v-.35l-.164-.193-.164.44v.477l-.186-.22-.285-.335v.258l-.087.645.087.44-.12.503-.186.22v.671l-.416-.026-.175-.207.153-.594.263-.62v-.516l-.23-.606-.471-.556-.241-.284-.197-.594-.416-.49-.394-.155-.011-.504.274-.322.241-.284v-.517l.306-.361.351-.207.361.142.317-.374.197-.465-.35-.646.175-.542-.219-.568-.044-.594-.306-.49.088-.413-.241-.491-.11-.568-.438-.543.329-.387v-.568l-.274-.323-.317-.374-.088-.336h-.372l-.525.336-.132.516-.35.672-.394.593.175.646-.459.439-.46.31-.394.155-.11.465h-.415l-.416-.284-.307-.13v-.594l-.35-.36-.285-.337-.47-.142-.252.297-.504-.155-.415-.129-.635.104h-.591l-.241.284-.657.283-.656-.154-.274-.633-.317-.374s-.373-.259-.373-.362c0-.103-.415-.49-.415-.49l-.526-.104-.219-.62-.503-.464-.351-.413-.481-.155-.175-.542-.438-.233-.263-.31-.875-.103h-.46l-.525.336-.657-.13-.504.207h-.547l-.744.646-.35.413-.69.477-.34.4-.24.853-.175.516.24.362.34-.323.274.323.306.361.175.826-.175.44-.131 1.11v.697l-.241.723.328.749.197.232v.723l-.459.155-.296.814-.427.503-.722.31-.81-.078-.591-.129-.438.31-.613.413-.46-.284-.415-.18-.547.283-.46.543-.329.387-.186.762-.383.452-.503.413-.7.387-.537.633-.274.322h-.7l-.635.233h-.897l-.657.103-.591-.232-.175-.387-.307-.362h-.831l-.767-.13-.306-.232-1.007.168h-.624l-.514.607-.57.155-.547.18-.788-.076-.536-.272-.34-.4-.317-.788-.405-.477-.569-.258h-.547l-.624.193-.427-.503h-.853l-.504-.44-.252.298-.34.4-.273.659-.295.348-.088.671.274.388v.58l.383.453v.62l-.514.4-.493.58h-1.051l-.59-.18-.614.129-.437-.155-.635-.258-.35-.413-.416-.491-.504-.18-.59.283-.373-.439-.47-.245-.384.452h-.481l-.153.542h-.57l-.722.542-.438.517h-.438l-.087.542-.515.142-.36.426-.658-.026-.547.362-.284.335-.635-.129-.197-.387-.24-.517-.121-.529-.34.4-.569.259-.525-.207-.591-.18v-.62l-.46-.336-.175-.465-.372-.284-.087-.62-.307-.335-.41-.213-.269-.316h-.558l-.273.322-.548.104-.219-.259-.481.103-.263-.31-.24-.283v-.388l-.241-.335-.35.129-.242.594-.481.103-.285-.671-.153-.594-.11-.672-.372-.774v-.62l-.35-.387v-.852l-.262-1.033-.373-.44-.24-.283-.252-.633-.274-.323-.372-.18v-.465h.307l.262-.413-.11-.362h-.393l-.329.388-.46.025-.338.013-.362.426-.613.207-.525.335-.24-.413-.46.259h-.373l.132-.698.525-.284v-.361h-.438l-.394-.284-.24.284-.438-.155.142-.607-.317-.374-.438.31-.482-.155-.12-.452.273-.323v-.49l.11-.362-.175-.645-.328-.182h-.395l-.197-.464h-.547l-.438-.31-.481-.052-.263.44h-.547l-.482.154-.394-.258-.481.103h-.592l-.569-.348h-.23l-.251.296-.438.104-.416-.258h-.372l-.503-.181-.745.026-.547-.13-.394.13-.35-.362-.504-.31h-.46l-.153.568.154.388-.307.361.24.181.242.284.295.349-.273.322h-.307l-.372-.439-.569.026-.372.18.153.647-.153.464-.372.13-.438-.13-.175.543.142.374.307.362.207.245.088.439.307.361-.307.49-.284.336h-.482l-.493.04-.251-.298-.175-.42h-.225l-.235.278h-.383l-.427-.503-.082-.29-.323-.382v-.658l-.274-.323h-.503l-.416.181-.153-.387-.416-.388-.373-.232-.503.284-.46.078-.372-.13-.262-.594-.372-.387-.263.517h-.285v-.413l.263-.31-.175-.44-.22-.67-.087-.698-.328-.465-.525-.232-.154-.439-.284-.336-.525.104h-.307v-.491l-.153-.516-.536-.117-.274.323-.503.207-.438-.284h-.46l-.219.387h-.963l-.11.284-.284.336-.044.49-.536-.116-.318-.374v-.517l.143-.504-.23-.27h-.372l-.154.413-.284.245H16.6l-.34.4-.284.336v.465l-.372.18-.394-.026-.285.336-.35.284.142.504.318.374-.132.672-.284.335.284.207.416.465.263.31-.11.67.121.879v.71l-.23.271-.219-.284-.328-.052.044.465.186.452.273.323-.219.258-.372.052h-.744s-.263.038-.47.038c-.208 0-.165-.193-.165-.193l-.328-.104-.153-.18-.394-.078v.362l-.307.155-.372.516h-.416l-.46.155-.268-.084-.224.265v.426l.23.271.131.49-.11.491-.098.452-.251.297v.18l-.22.233-.48.93v.723l.13.878-.087.671.044.826-.526.284-.35-.18-.504.206-.481-.129-.066-.49-.24-.853-.044-.62-.35-.283v-.336l-.176-.543-.306-.464.197-.388.131-.438-.328-.414-.11-.465-.372-.051-.076-.271-.274-.323-.482-.077-.306-.362-.088-.826-.306-.336.088-.516-.373-.362-.197-.594-.328-.18-.481-.388-.154-.62-.328-.593-.11-.517-.24-.051-.175-.259-.22-.361-.284.052-.175-.62.066-1.188-.088-.878-.175-.439-.219-.387.044-.775-.263-.284-.175-.413.131-.465-.109-.516.24-.284.263-.052.35.516.329.13.153-.388.372-.18.504-.026h.263l.328.129.066-.646-.176-.387.088-.336.263.052.24.207.263.283.197-.232.307.155.503.078.372.18.088-.464-.263-.233-.372-.103-.24-.284-.263-.103.328-.414.481-.258.416.207.372-.181.35.44.526.67.482-.568.328-.232-.088-.568.307-.362.306.052-.022-.413.81-.13.154-.438.175-.258-.372-.207v-.542l-.35-.465-.132-.594-.328-.233-.35-.464.13-.542-.13-.801-.417-.361-.481-.44-.153-.593-.329-.31-.11-.362.285-.387.22-.568v-.542l-.241-.517-.241-.438.219-.207.131-.387h.263l.197-.207.153-.697.044-.413-.175-.517-.241-.284-.329-.051-.24-.31-.197-.336-.296.297-.23-.271-.197-.388.197-.413.416-.49.285-.388.11-.465.328-.025.24.31.132.387.437.18.416-.154.11-.517.131-.568-.328-.387.219-.18-.022-.44.131-.62.24-.67.176-.569.438-.155.153-.387.416-.413v-.878l-.372-.413-.416-.13.131-.387.11-.413-.307-.361-.197-.517.066-.361.416-.49.24-.517-.109-.465.35-.103.526-.388v-.542l.219-.31.547-.026.24-.335.023-.388.46-.206.371-.594.504.026.438-.31.59.155.088-.387.197-.233.372.207.307.387.482.18.175.466.175.516.262-.31-.043-.749-.394-.413v-.878l.35-.103.11-.13-.482-.232-.285-.387 4.903-.026.92-.387v-.671l.153-1.705h.613l.525-.49v-.672l.394-.18v-.878l.35-.026.767-.723.372.206.81-1.781.055-.478.667-.788h1.117l.35-.723V28.74l.7-.413.92-.542.634.284h.373l.306.361.376-.309-.091.541.372-.051.525.026v.413l.11.465-.241-.181-.252-.297-.23.271.11.49v.491l.372.233.284.335v.543l.318.18v.607l.36.426.176.723v.75l-.11.645.132.361.01.788.384.452-.022.568-.088.93-.383.787-.58.684h-.613l-.679.155-.59-.258-.646-.426-.405-.478v-.697l-.416-.49-.197-.543-.153-.517-.284-.568-.154-.955-.306-.155.098-.58.252-.298-.306-.361-.143.452-.207.245.087.568.011.659-.24.284.317.374-.088.568-.306.8-.537.194-.426.504-.165.916-.404.478.13.542.198.672-.318.658.45.53.48.568.548-.465.11-.646-.285-.336.043-.568v-.438l.372-.465h.372l.132 1.162.12.762.383.451.241.594.624.22.186-.22-.153-.439.372-.361.022-.904.678.13.635-.285.526.336.59-.22h.405l.252.297.373.671-.307.362v.568l.274-.4.383-.452.525-.13.438-.748v-.645l.175-.44.569-.335v-.413l.547-.388v-.645l-.087-.62h.372l.12.323.493.58.372.672v.904l-.132.465-.197.232-.328-.387-.46-.13-.7.285v.67l.175.62v.517l.504.155.481.258.547-.31v-.465l.57-.155.547.31-.088-.413.854.181.46-.103.831.129h.482l.24.516h.22v-.465l.7-.258h.372l.154.671h-.416l-.132.465-.328.13.504.541h.35l.657-.335.623.142.68.8.229-.27h.46l.58-.22.23.27-.066.362-.35.284v.44l.416.412.032-.477.187-.22.437.13v-.414l.416-.078.088-.62-.066-.748.394-.232.34-.117.404.478.175-.206.45.658.514.607.416.49.273.659.515.607.35.645.372.594v.517l.306.568.438-.31v-.542l.504-.542-.35-.13-.241-.67.087-.723-.416-.336-.23-.555.208-.245.438-.259v-.413l.11-.62.196-.31v-.387l-.284-.103.153-.517.24-.361.438-.18.471-.272.164-.194.372-.438.285-.75.219-.619.24-.62.417-.258.262.439h.526l.262.31h.46l.197.878-.219.258-.098.943-.624.735-.175.672.372.387-.132.878-.109.697-.438.775-.153 1.11-.24.981-.176.491.164.684.383.452-.065.413-.482.44-.087.955-.482.155-.57.671-.328.568-.306.207-.547-.13-.329.259-.36-.271-.23-.271-.329-.13v.491l.328.594.329.18.438.362.372-.026.262.44h.394s.164-.35.077-.453c-.088-.103.23-.27.23-.27h.284l.132-.156.547-.18.438-.284v-.543l.197-.232.339-.4.274-.323.13-.62-.108-.542-.044-.49.295-.35.296-.348h.46l.503-.077.142.503.208.246.263.8-.35.413.022.62v.387l.438.516.503.13v-.362l-.492-.168-.187-.22v-.31l-.043-.464.35-.129.131-.336-.131-.49.153-.414-.219-.516-.284-.31-.175-.206-.537-.22-.306-.361-.252.297-.328.18-.175-.284h-.394l-.066-.49.263-.31-.066-.826.306-.568.197-.672.438-.516-.153-.568-.131-.49.054-.53-.317-.375.35-.413.547-.645h.46l.263-.491.175-.542-.153-.44.153-.386h.35l-.11.542v.748l-.087.672-.394.465v1.11l.46.413.263.259.339-.246.34.4.371.414v-.31l-.142-.4-.252-.297-.394-.233v-.206l-.328-.388-.153-.568.46-.361.218.258.35.413.263-.284-.087-.336-.033-.297.252-.297.437.104.361-.065.296.349.57.361-.154.517.142.167.383.452h.591l.088-.413-.24-.387.021-.362-.416-.18-.306-.594-.175-.207.13-.62.198-.516-.175-.206-.11-.646.438-.465h1.029l.525.233v-.155h.854l.569-.284h.416l.219-.259-.22-.387-.262-.103-.219-.259.252-.297c.164-.193.164.194.164.194l.263-.077-.175-.233.12-.322-.186-.22.22-.362.305-.284-.306-.025-.022-.388.613.026.24-.594.603-.27.23-.272.82-.142.208-.245.591-.207.132-.18-.394-.155.219-.259.569-.155.481-.077.11-.284.394-.078-.208.465v.375l.273-.323.68.026.065-.413.438-.104.438.104-.198-.31-.262-.233-.132-.284h.482l.504-.18h.153l-.044-.44-.175-.154v-.62l.11-.413.328-.956.394-.335.35-.44.438.31.328-.051.099.53-.34.4-.284.438.695.046.136-.162h.427l.318.375-.285.335s-.022.336.11.336c.131 0 .481.18.481.18l.11-.438-.197-.232.481-.31h.438l.449-.375.252.297.339-.193.252.297.218.516.263.258.153-.206.23.27.296.35-.044.542-.438-.104.175.207.438.284.274.555-.252.297v.516l-.219.362-.208.503-.252.297-.437.62v.258l-.132.723-.328.387-.131.801-.526.155-.164.58-.361.427-.088.671-.11.465.395-.206-.088-.517.394-.284s.35-.129.548-.129c.197 0 .262-.465.262-.465l.372-.361.35-.155.209-.478-.165-.193-.262-.026.022-.207-.022-.413.328-.026h.263l.372.103.438.207.087-.31.274-.452.23.271v.516l.262.44h.307l-.307-.336.208-.245.405-.478.548-.336.831-.18.657-.233.164.297-.153.18.361.427h.679l.022-.206.065-.284.263.49.46-.206.46-.465s.481-.104.59-.104c.11 0 0-.464 0-.464l-.065-.517-.329-.593.088-.594.066-.31.262.31.274-.246.23.271.35.285.088-.31.175-.052.175.232.175-.155s-.022-.478.142-.478c.165 0 .208-.245.208-.245l.482.44.153-.182.525.207-.175.632h.252l.252.297v.491l.416-.31.219.258v.569l-.285.103-.175.206.306.362s.241-.13.241-.259.197.233.197.233v.413l.449-.013.427.504.328.258.46.103.197-.232.503.31.044-.49-.219-.853-.131-.387V33.8l-.285-.335V33l.547.077.307.362.482-.155h.547l-.11-.672.307-.67.569-.156.416-.026.481.155v-.387l-.514-.271.186-.22.24-.31.417.026.328-.387-.153-.103-.329-.388-.372-.232v-.568l-.153-.155-.219.671-.262-.206v-.543l.481-.516-.066-.361-.46-.336.285-.336h.416l.613-.361.175-.594.81-.362.635-.335s.088.103.088.258c0 .155-.416.336-.416.336l-.154.697.373-.207.328-.387.416.155-.11 1.007.373-.413v-.491l-.132-.826.088-.362.197-.645.46-.259.656-.335.394.335s-.186.297-.328.465c-.142.168.153.284.153.284h.482l.306-.413s.35.439.416.516c.066.078-.066-.593-.066-.593l.591-.388.416.259.46-.026.416-.49.438-.646v-.75l.547-.955.46-.542.415-.594.723-.129.602-.038.295.348.613.723.548-.284.394-.374h.426l-.207-.246v-.361l.415-.49v-.853l.197-.439h.329l.284-.336v-.516l.548-.465.131-.62-.219-.258.088-.31-.307-.516.241-.517.23-.27.416.49-.318.374.329.388h.503l.35-.155.482-.258.438-.13.109-.413-.131-.413-.241-.051-.744-.388-.547.104-.132-.362h-.438v-.284l.11-.49.394-.233.044-.542.35-.232h.306l-.131-.44.131-.464.372-.646z" fill="#CCC"/><path fill-rule="evenodd" clip-rule="evenodd" d="M113.693 60.592l-.218.245v.647l.371-.156.196.2.218-.222.087-.447-.24-.356-.414.09zm5.283-2.512l-.151.044-.113-.37v-.327l.491.152.246.13.133.35.264.305.473.108.113.349.529.392h.284l.227.37.189.589.293.337.558.665.359.109.491.218.473.48.643.413.416.414.548.327.472.326.303.284.529.24-.075.282-.189.218-.359.13h-.284l.076.458-.076.327v.261l.321.567s.303.392.246.457c-.057.066.019.676.019.676l.246.283.378.436.322.24h.491l.284.326h.321l.17.414.416.022.255-.294.444.294.265.392s.095.262 0 .262c-.094 0-.605-.284-.605-.284l-.217.25h-.482l-.151.448.094.435.303.349.226.566-.302.283-.246-.348-.321-.37-.567-.61v-.415l-.378-.435-.359-.414-.246-.37-.303-.676-.378-.414-.397-.261-.378-.13-.322-.785-.699-1.111-.567-.654-.473-.544-.416-.654-.264-.5-.719-.371-.567-.283-.34-.044-.454-.719v-.327l-.492-.566-.264-.566-.53-.197.133-.435v-.327l.435.152.075-.435-.255-.294v-.164l-.25-.289-.365-.147zm16.131 11.718l.076.458.038.436.152.066v-.35l.113-.283v-.393l-.379.066zm.94-.244v.2l.246.157v-.335l-.246-.022zm-.641-1.99l.437.118.145-.377-.218-.755.4-.259-.073-.542-.618-.118-.182.613.236.153-.2.46.073.707zm.744-2.179l-.094.111.075.38.152-.268-.133-.223zm.722-1.887l.094-.706-.132-.435.076-.462.255-.367.066.503-.056.516.076.598-.133.434-.246-.081zm-11.13-33.601v.496l-.047.45.283.181.189.225.024.406.377.135-.094-.405-.165-.316.165-.518v-.631l-.449-.18-.283.157zm7.285 2.706l-.349.112.174.335h1.197l.374-.335-.473-.134-.474.179-.449-.157zm1.685 16.62l-.112.356-.176.189.204.218.121.267-.037.357-.019.456.195.208.214-.13v-.475l.195-.208-.158-.406-.26-.278.018-.356-.185-.198zm.424 2.853v.335l.189.111.133-.2-.322-.246zm1.774 6.401v1h.265l-.075-.424v-.601l-.19.025zm-2.05-27.857l-.436.2.235.157.319-.212.319-.212-.437.067zM109.554 4.182l-.225-.08-.195.197-.43.216-.35.338.033.58-.15.144.075.468.28.395.289.648.448.09.304-.292.229-.4-.252-.262.373-.521-.065-.567v-.675l-.364-.279zM.873 40.221l.34.078.29-.085.111-.22.263.042.247.253.01.345.2.064.042.27.312.058.07-.257-.17-.174.145-.15.094.097.298.256v.384l-.042.335.173.292.173.121.063.434-.153.328-.727.378-1.102-1.346-.637-1.503z" fill="#CCC"/></svg>