<svg width="206" height="161" viewBox="0 0 206 161" fill="none" xmlns="http://www.w3.org/2000/svg">
<path d="M17.376 143L17.352 132.944L12.408 141.224H10.68L5.736 133.136V143H2.088V126.2H5.304L11.592 136.64L17.784 126.2H21L21.024 143H17.376ZM33.2134 143.288C31.4694 143.288 29.8934 142.912 28.4854 142.16C27.0934 141.408 25.9974 140.376 25.1974 139.064C24.4134 137.736 24.0214 136.248 24.0214 134.6C24.0214 132.952 24.4134 131.472 25.1974 130.16C25.9974 128.832 27.0934 127.792 28.4854 127.04C29.8934 126.288 31.4694 125.912 33.2134 125.912C34.9574 125.912 36.5254 126.288 37.9174 127.04C39.3094 127.792 40.4054 128.832 41.2054 130.16C42.0054 131.472 42.4054 132.952 42.4054 134.6C42.4054 136.248 42.0054 137.736 41.2054 139.064C40.4054 140.376 39.3094 141.408 37.9174 142.16C36.5254 142.912 34.9574 143.288 33.2134 143.288ZM33.2134 139.976C34.2054 139.976 35.1014 139.752 35.9014 139.304C36.7014 138.84 37.3254 138.2 37.7734 137.384C38.2374 136.568 38.4694 135.64 38.4694 134.6C38.4694 133.56 38.2374 132.632 37.7734 131.816C37.3254 131 36.7014 130.368 35.9014 129.92C35.1014 129.456 34.2054 129.224 33.2134 129.224C32.2214 129.224 31.3254 129.456 30.5254 129.92C29.7254 130.368 29.0934 131 28.6294 131.816C28.1814 132.632 27.9574 133.56 27.9574 134.6C27.9574 135.64 28.1814 136.568 28.6294 137.384C29.0934 138.2 29.7254 138.84 30.5254 139.304C31.3254 139.752 32.2214 139.976 33.2134 139.976ZM58.2071 126.2V143H54.3671V138.536H50.8151L47.8391 143H43.7351L47.2391 137.936C46.1031 137.472 45.2311 136.776 44.6231 135.848C44.0151 134.904 43.7111 133.776 43.7111 132.464C43.7111 131.168 44.0071 130.056 44.5991 129.128C45.1911 128.184 46.0311 127.464 47.1191 126.968C48.2071 126.456 49.4871 126.2 50.9591 126.2H58.2071ZM51.0551 129.368C49.9511 129.368 49.1031 129.624 48.5111 130.136C47.9351 130.648 47.6471 131.408 47.6471 132.416C47.6471 133.392 47.9271 134.144 48.4871 134.672C49.0471 135.2 49.8711 135.464 50.9591 135.464H54.3671V129.368H51.0551Z" fill="#151F6D"/>
<path d="M76.485 126.2C77.973 126.2 79.261 126.448 80.349 126.944C81.453 127.44 82.301 128.144 82.893 129.056C83.485 129.968 83.781 131.048 83.781 132.296C83.781 133.528 83.485 134.608 82.893 135.536C82.301 136.448 81.453 137.152 80.349 137.648C79.261 138.128 77.973 138.368 76.485 138.368H73.101V143H69.213V126.2H76.485ZM76.269 135.2C77.437 135.2 78.325 134.952 78.933 134.456C79.541 133.944 79.845 133.224 79.845 132.296C79.845 131.352 79.541 130.632 78.933 130.136C78.325 129.624 77.437 129.368 76.269 129.368H73.101V135.2H76.269ZM94.5962 143.288C92.8522 143.288 91.2762 142.912 89.8682 142.16C88.4762 141.408 87.3802 140.376 86.5802 139.064C85.7962 137.736 85.4042 136.248 85.4042 134.6C85.4042 132.952 85.7962 131.472 86.5802 130.16C87.3802 128.832 88.4762 127.792 89.8682 127.04C91.2762 126.288 92.8522 125.912 94.5962 125.912C96.3402 125.912 97.9082 126.288 99.3002 127.04C100.692 127.792 101.788 128.832 102.588 130.16C103.388 131.472 103.788 132.952 103.788 134.6C103.788 136.248 103.388 137.736 102.588 139.064C101.788 140.376 100.692 141.408 99.3002 142.16C97.9082 142.912 96.3402 143.288 94.5962 143.288ZM94.5962 139.976C95.5882 139.976 96.4842 139.752 97.2842 139.304C98.0842 138.84 98.7082 138.2 99.1562 137.384C99.6202 136.568 99.8522 135.64 99.8522 134.6C99.8522 133.56 99.6202 132.632 99.1562 131.816C98.7082 131 98.0842 130.368 97.2842 129.92C96.4842 129.456 95.5882 129.224 94.5962 129.224C93.6042 129.224 92.7082 129.456 91.9082 129.92C91.1082 130.368 90.4762 131 90.0122 131.816C89.5642 132.632 89.3402 133.56 89.3402 134.6C89.3402 135.64 89.5642 136.568 90.0122 137.384C90.4762 138.2 91.1082 138.84 91.9082 139.304C92.7082 139.752 93.6042 139.976 94.5962 139.976ZM114.727 143.288C113.015 143.288 111.463 142.92 110.071 142.184C108.695 141.432 107.607 140.4 106.807 139.088C106.023 137.76 105.631 136.264 105.631 134.6C105.631 132.936 106.023 131.448 106.807 130.136C107.607 128.808 108.695 127.776 110.071 127.04C111.463 126.288 113.023 125.912 114.751 125.912C116.207 125.912 117.519 126.168 118.687 126.68C119.871 127.192 120.863 127.928 121.663 128.888L119.167 131.192C118.031 129.88 116.623 129.224 114.943 129.224C113.903 129.224 112.975 129.456 112.159 129.92C111.343 130.368 110.703 131 110.239 131.816C109.791 132.632 109.567 133.56 109.567 134.6C109.567 135.64 109.791 136.568 110.239 137.384C110.703 138.2 111.343 138.84 112.159 139.304C112.975 139.752 113.903 139.976 114.943 139.976C116.623 139.976 118.031 139.312 119.167 137.984L121.663 140.288C120.863 141.264 119.871 142.008 118.687 142.52C117.503 143.032 116.183 143.288 114.727 143.288ZM131.79 143.288C130.078 143.288 128.526 142.92 127.134 142.184C125.758 141.432 124.67 140.4 123.87 139.088C123.086 137.76 122.694 136.264 122.694 134.6C122.694 132.936 123.086 131.448 123.87 130.136C124.67 128.808 125.758 127.776 127.134 127.04C128.526 126.288 130.086 125.912 131.814 125.912C133.27 125.912 134.582 126.168 135.75 126.68C136.934 127.192 137.926 127.928 138.726 128.888L136.23 131.192C135.094 129.88 133.686 129.224 132.006 129.224C130.966 129.224 130.038 129.456 129.222 129.92C128.406 130.368 127.766 131 127.302 131.816C126.854 132.632 126.63 133.56 126.63 134.6C126.63 135.64 126.854 136.568 127.302 137.384C127.766 138.2 128.406 138.84 129.222 139.304C130.038 139.752 130.966 139.976 132.006 139.976C133.686 139.976 135.094 139.312 136.23 137.984L138.726 140.288C137.926 141.264 136.934 142.008 135.75 142.52C134.566 143.032 133.246 143.288 131.79 143.288ZM141.26 126.2H145.124V137.144L153.14 126.2H156.788V143H152.948V132.08L144.932 143H141.26V126.2ZM174.387 126.2V143H170.547V138.536H166.995L164.019 143H159.915L163.419 137.936C162.283 137.472 161.411 136.776 160.803 135.848C160.195 134.904 159.891 133.776 159.891 132.464C159.891 131.168 160.187 130.056 160.779 129.128C161.371 128.184 162.211 127.464 163.299 126.968C164.387 126.456 165.667 126.2 167.139 126.2H174.387ZM167.235 129.368C166.131 129.368 165.283 129.624 164.691 130.136C164.115 130.648 163.827 131.408 163.827 132.416C163.827 133.392 164.107 134.144 164.667 134.672C165.227 135.2 166.051 135.464 167.139 135.464H170.547V129.368H167.235Z" fill="#E00640"/>
<path fill-rule="evenodd" clip-rule="evenodd" d="M92.5674 20.8363L92.5254 20.653L92.8397 20.8134L92.9967 20.6414L93.2167 20.4008L93.5415 20.0457L93.7405 20.3092H93.8452L94.107 20.0228L94.348 19.7135L94.8088 19.4844L95.144 19.7594L94.9555 20.3322V20.653L94.7356 20.8935L94.3899 21.0655L94.0128 21.226H93.6358L93.353 21.5353L92.9025 21.3634L92.6721 20.9967L92.5674 20.8363Z" fill="#CCCCCC"/>
<path fill-rule="evenodd" clip-rule="evenodd" d="M91.1156 20.5994H90.5426L90.3546 20.8348L90.0591 21.0925L89.8442 20.8235L89.325 21.0252L89.3608 21.4288L89.4952 21.597L89.6921 21.8434L89.8265 22.0115L89.6295 22.2133L89.3608 21.922L89.2176 22.1011L89.0206 21.8545L88.573 21.9667L88.376 21.8323L88.2865 22.1237L88.4297 22.3029L88.1611 22.4823V22.9081L88.3761 23.1771L88.3223 23.491H88.5192L88.77 23.8049L88.6982 24.1635L89.0206 24.3652L89.4503 24.3876L89.6295 24.6117H89.9517L90.3277 24.4773V24.1186L90.095 23.8496L90.2203 23.6927L90.4083 23.928L90.7396 23.1772L91.0529 22.7849L91.1873 22.953L91.4738 22.5944L91.5632 22.2581L91.2409 22.1237L91.0261 22.3927L90.7576 22.1461L90.4352 21.8994L90.1128 21.6081L90.2203 21.3167L90.3904 21.1038L90.5247 21.6752L90.7306 21.9331L91.0797 22.0115L91.2947 21.8994H91.4738L91.6527 21.6754L91.5632 21.2045H91.2768L91.3484 20.8011V20.5098L91.1156 20.5994Z" fill="#CCCCCC"/>
<path fill-rule="evenodd" clip-rule="evenodd" d="M91.933 24.6366L91.6523 24.8392L91.8706 25.3455L92.2291 25.6368L92.5252 25.1683V24.7886L92.307 24.6113L91.933 24.6366Z" fill="#CCCCCC"/>
<path fill-rule="evenodd" clip-rule="evenodd" d="M92.7357 25.1796L92.5254 25.4639L92.6443 25.8468L92.8454 26.1186L92.7173 26.514L92.8272 26.6623L92.9917 26.1928L93.412 26.0691L93.7777 25.8715L94.2712 25.4761L94.0153 24.8338H93.668L93.1744 24.6113L92.9458 24.8956L92.7357 25.1796Z" fill="#CCCCCC"/>
<path fill-rule="evenodd" clip-rule="evenodd" d="M88.0155 24.9129L87.7537 24.6414L87.2881 24.6113L87.5938 24.928L87.7827 25.6368H88.161V25.2447L88.0155 24.9129Z" fill="#CCCCCC"/>
<path fill-rule="evenodd" clip-rule="evenodd" d="M78.0193 33.8865L77.6865 34.3081V34.5928H77.9653L78.0554 34.8663L78.2893 34.7296L78.5594 34.3878V33.8408H78.2174L78.0193 33.8865Z" fill="#CCCCCC"/>
<path fill-rule="evenodd" clip-rule="evenodd" d="M90.7597 17.2285L90.6406 17.486L90.7697 17.6382L90.9187 17.486L90.7597 17.2285Z" fill="#CCCCCC"/>
<path fill-rule="evenodd" clip-rule="evenodd" d="M89.7382 27.536L89.2031 27.4424L89.0342 27.5594L89.344 27.6764L89.7382 27.9339L89.9071 27.7466L89.7382 27.536Z" fill="#CCCCCC"/>
<path fill-rule="evenodd" clip-rule="evenodd" d="M74.146 27.5479L74.0664 27.6884L74.2453 27.8287L74.3246 27.6648L74.146 27.5479Z" fill="#CCCCCC"/>
<path fill-rule="evenodd" clip-rule="evenodd" d="M73.5717 25.4033L73.3223 25.5437L73.6715 25.7076L73.9208 25.8713L74.1951 25.8012L74.1203 25.4969L73.8459 25.5671L73.5717 25.4033Z" fill="#CCCCCC"/>
<path fill-rule="evenodd" clip-rule="evenodd" d="M70.9781 24.9447V24.5858L70.9997 23.9448L70.8483 23.5859L70.6319 23.6115L70.329 24.0473L70.3506 24.4319L70.2207 24.6884L70.3072 25.3806L70.0475 25.6883L70.0691 26.3803L69.9394 26.97L69.8311 27.5597L70.0259 27.6878L70.4371 27.3033L70.6752 27.1239L71.2162 26.7907L71.649 26.7393L72.1901 26.2522L72.4497 25.6625L72.2766 25.1497L72.0818 24.7652L71.8221 24.8935L71.5625 24.355L71.3676 24.1243L71.1295 24.4575L70.9781 24.9447Z" fill="#CCCCCC"/>
<path fill-rule="evenodd" clip-rule="evenodd" d="M69.2079 21.8655L69.0431 22.0927L68.8966 22.4024L68.7684 22.3404L68.8599 21.9481V21.5352L68.4571 21.6797C68.4571 21.6797 68.2191 21.7417 68.1641 21.7623C68.1092 21.7829 67.8345 21.8863 67.8345 21.8863L67.7062 22.196L67.633 22.4644L67.4682 22.6915L67.5232 22.9599L67.2119 23.2283L67.3584 23.3729L67.578 23.2903L67.7612 23.5793L67.7795 23.8477L67.9443 24.0748L68.3655 24.1161L68.4204 24.3844L68.7134 24.178L68.8599 24.4464L69.2627 24.6116L69.6474 24.405L69.8306 24.1159L69.6841 23.7856L69.4459 23.4138L69.6291 23.2693L69.7024 22.9183L69.6107 22.526L69.6474 22.1336L69.2079 21.8655Z" fill="#CCCCCC"/>
<path fill-rule="evenodd" clip-rule="evenodd" d="M68.9215 28.7129L68.5577 29.2255L68.085 29.3538L68.5214 29.7384L68.9578 29.2255L68.9215 28.7129Z" fill="#CCCCCC"/>
<path fill-rule="evenodd" clip-rule="evenodd" d="M65.4069 29.5752L65.3076 29.7623L65.4465 29.9028L65.6254 29.5984L65.4069 29.5752Z" fill="#CCCCCC"/>
<path fill-rule="evenodd" clip-rule="evenodd" d="M63.8194 35.667L63.5811 35.8075C63.5811 35.8075 63.6803 36.1587 63.6803 36.1118C63.6803 36.0649 63.859 36.0181 63.859 36.0181L63.8194 35.667Z" fill="#CCCCCC"/>
<path fill-rule="evenodd" clip-rule="evenodd" d="M62.0339 33.5947L61.8154 33.8052L61.9345 34.0862L62.1331 34.0393L62.0339 33.5947Z" fill="#CCCCCC"/>
<path fill-rule="evenodd" clip-rule="evenodd" d="M62.0392 36.6836L61.9746 36.941H62.5241L62.8152 37.1516L62.8475 36.8004L62.5241 36.7537L62.0392 36.6836Z" fill="#CCCCCC"/>
<path fill-rule="evenodd" clip-rule="evenodd" d="M61.0128 22.3496L60.8936 22.4901L61.0326 22.5838L61.2511 22.771L61.3107 22.5369L61.0128 22.3496Z" fill="#CCCCCC"/>
<path fill-rule="evenodd" clip-rule="evenodd" d="M59.6009 39.061L59.3564 39.3406L59.4961 39.7135L59.7406 39.9932L60.0897 39.6514L60.2293 39.2476L59.9151 38.9678L59.6009 39.061Z" fill="#CCCCCC"/>
<path fill-rule="evenodd" clip-rule="evenodd" d="M58.9106 39.064L58.7063 39.4165L58.4834 39.7369L58.6877 39.9932L58.8548 39.7369H59.1149L59.3563 39.3523L59.1334 38.9678L58.9106 39.064Z" fill="#CCCCCC"/>
<path fill-rule="evenodd" clip-rule="evenodd" d="M57.8484 36.7178L57.6104 36.905L57.769 37.1157L58.0864 36.9284L58.4832 37.022L58.3774 36.8114L57.8484 36.7178Z" fill="#CCCCCC"/>
<path fill-rule="evenodd" clip-rule="evenodd" d="M56.6676 37.709L56.5684 38.0132L56.7272 38.1771L56.906 37.9196L56.6676 37.709Z" fill="#CCCCCC"/>
<path fill-rule="evenodd" clip-rule="evenodd" d="M55.2698 36.9884L55.0655 37.1792L55.1398 37.394L54.9912 37.6563L55.0283 37.8233L55.3626 37.9425L55.6783 37.7517L55.8641 37.7756V37.537L55.567 37.4416L55.7155 37.227L55.5483 36.917L55.3441 37.0124L55.2698 36.9884Z" fill="#CCCCCC"/>
<path fill-rule="evenodd" clip-rule="evenodd" d="M45.8988 39.9932L45.6079 40.2035L45.3896 40.3087L45.4442 40.9924L45.4805 41.3606L45.6806 41.4393L45.7533 41.9914L46.1353 42.0441L46.2625 41.5972L46.0806 41.1502L46.0989 40.6506L45.8988 39.9932Z" fill="#CCCCCC"/>
<path fill-rule="evenodd" clip-rule="evenodd" d="M39.4144 37.9424L38.9221 38.126L38.631 38.6465L38.4072 39.0445L38.5638 39.626L38.9221 39.8098L39.2577 39.9933L39.5711 39.6873L39.9516 39.7792L40.153 39.1364L39.8397 38.5852L39.8172 38.126L39.4144 37.9424Z" fill="#CCCCCC"/>
<path fill-rule="evenodd" clip-rule="evenodd" d="M26.1068 38.793L26.0273 38.9333L26.1664 39.1441L26.3451 38.9333L26.1068 38.793Z" fill="#CCCCCC"/>
<path fill-rule="evenodd" clip-rule="evenodd" d="M44.5515 38.4643H44.3339L44.0965 38.0524L43.9582 38.1439L43.5429 37.6863L43.2263 37.2974L43.345 36.8855L43.6615 36.7711L43.7801 36.5424L43.5625 36.3365L43.5824 35.7872L43.4439 35.7415L43.3054 35.3296L43.0088 35.3068L42.7715 34.9178L42.8506 34.4144L43.1669 33.9111L43.5429 33.9568L43.6615 34.117L43.7998 34.1857L43.8592 33.8881L44.3141 33.7281L44.6702 33.2933L44.4329 32.9959L44.7493 32.767L45.1052 32.9272L45.2042 32.584V32.2407H45.659L45.8766 32.4924L46.104 32.2294L46.1535 31.9891L46.648 31.8746L46.4798 31.6802L46.0546 31.5085V31.3257L46.5491 31.1653L47.0633 31.0053L47.3204 30.7079H47.6566V30.4333L48.1314 30.4103L47.8743 30.1129L48.2896 30.09L48.4479 30.2731L48.428 29.8155L48.6258 29.5866L48.4082 29.2892L48.5467 29.0375L48.7841 29.312H49.0808V28.9688L49.5158 29.1518L49.7334 28.8773L49.951 28.5799H50.228L50.7025 28.3283L51.0388 28.4655H51.5333L51.8596 28.0879L52.2453 28.1223L52.4232 28.4198H52.8385L53.0364 28.6485L53.3925 28.534H53.8869L54.2133 28.1566L54.5989 27.9164L55.1131 27.6875H55.5877L55.8647 28.1909V28.7401L55.4494 29.1748L55.0736 29.5866L54.5792 29.6324L53.9857 29.9527L53.4517 29.724L53.1946 30.0214L52.5815 29.9985H51.7903L51.4936 30.3646H50.8806L50.4257 30.662L50.5642 31.0281L50.2476 31.1653L49.8719 31.1196H49.5357L49.4961 31.3713L49.1401 31.2568V31.6687L48.7841 31.9662L48.4873 32.2179V31.8289L48.25 32.0807L48.3094 32.5383H48.072L47.9039 32.3437V32.5611V32.9044L47.7309 32.7041L47.5084 32.9614L47.3204 33.1789H47.0632L46.8655 33.4763L46.6084 33.9796H46.1931L45.8567 34.3V34.7348L45.5206 34.895L45.4018 35.3526L45.125 35.6728V36.245L44.9865 36.6567L45.1645 37.2515L45.0063 37.8465L45.2238 38.2354L45.3227 38.6474L45.2041 38.7847L44.8679 38.9678V38.6702L44.5515 38.4643Z" fill="#CCCCCC"/>
<path fill-rule="evenodd" clip-rule="evenodd" d="M62.4318 19.3057L62.1546 19.3444L61.9746 19.47L62.2517 19.6635L62.6258 19.5765L62.8475 19.4217L62.4318 19.3057Z" fill="#CCCCCC"/>
<path fill-rule="evenodd" clip-rule="evenodd" d="M66.6007 19.2664L66.3389 19.4405L66.5425 19.5759L66.7609 19.7209L67.2117 19.4405V19.2471L66.6007 19.2664Z" fill="#CCCCCC"/>
<path fill-rule="evenodd" clip-rule="evenodd" d="M68.0311 19.4844L67.9908 19.8442L67.7491 19.9881L67.3865 20.312V20.7617L67.5342 20.9596L67.3395 21.2204L67.2119 21.5533L67.3865 21.8772L67.4536 22.201L67.7625 22.5608L68.0445 22.201H68.2325L68.5145 21.9851L68.8502 21.8412L68.7562 21.4094V20.8697L68.9577 20.6358L68.7899 20.4108L68.4474 19.9521L68.3265 19.5923L68.0311 19.4844Z" fill="#CCCCCC"/>
<path fill-rule="evenodd" clip-rule="evenodd" d="M66.6087 22.6008L66.3389 22.5605L66.3865 23.0029V23.2844L66.7356 23.4051L66.8785 23.586L67.0928 23.3145L67.2117 22.9225L67.0054 22.7214L66.6087 22.6008Z" fill="#CCCCCC"/>
<path fill-rule="evenodd" clip-rule="evenodd" d="M62.7697 31.6543L62.6631 31.78L62.8025 31.9251L63.0323 31.8477L62.7697 31.6543Z" fill="#CCCCCC"/>
<path fill-rule="evenodd" clip-rule="evenodd" d="M57.5938 16.1758L57.4297 16.2338L57.561 16.4466V16.6401H57.7908V16.2725L57.5938 16.1758Z" fill="#CCCCCC"/>
<path fill-rule="evenodd" clip-rule="evenodd" d="M57.3563 17.4746L57.2697 17.7002L56.9478 17.8028L56.7373 17.9874L56.8983 18.1104L56.824 18.3975L56.9602 18.4591H57.2325L57.4492 18.1001L57.6102 17.8334L57.5544 17.4336L57.3563 17.4746Z" fill="#CCCCCC"/>
<path fill-rule="evenodd" clip-rule="evenodd" d="M56.0269 17.3463L55.8643 17.4527L56.1749 17.6559L56.7371 17.5205V17.2109H56.4116L56.0269 17.3463Z" fill="#CCCCCC"/>
<path fill-rule="evenodd" clip-rule="evenodd" d="M56.2762 17.7064L56.0978 17.4336L55.9626 17.6155L55.8643 17.8802V18.211L56.0733 18.2606L56.1224 18.4591L56.3806 18.3764L56.5466 18.153L56.6696 17.9876L56.7371 17.7148H56.5527L56.2762 17.7064Z" fill="#CCCCCC"/>
<path fill-rule="evenodd" clip-rule="evenodd" d="M54.9465 19.3008L54.8398 19.4264V19.6683H55.0614L55.1434 19.3588L54.9465 19.3008Z" fill="#CCCCCC"/>
<path fill-rule="evenodd" clip-rule="evenodd" d="M54.119 17.7605L53.9699 17.6027H53.5016V17.9407L53.2461 18.2112L53.3951 18.3689L53.9061 18.2562L54.0977 18.4591L54.5448 18.3464L54.6725 18.0309L54.9919 18.1436L54.8215 17.7379L54.5342 17.4336L54.119 17.7605Z" fill="#CCCCCC"/>
<path fill-rule="evenodd" clip-rule="evenodd" d="M55.7948 15.165L55.6963 15.3972L55.8687 15.6002L56.0328 15.4068L55.7948 15.165Z" fill="#CCCCCC"/>
<path fill-rule="evenodd" clip-rule="evenodd" d="M55.4277 15.3818H54.9912V15.7585L55.4549 16.1143V16.4073L55.8641 16.2608L55.6186 15.8632L55.4277 15.3818Z" fill="#CCCCCC"/>
<path fill-rule="evenodd" clip-rule="evenodd" d="M54.2585 16.2676H54.0287L53.9795 16.3256L54.1683 16.548L54.2585 16.2676Z" fill="#CCCCCC"/>
<path fill-rule="evenodd" clip-rule="evenodd" d="M54.1061 17.2393L53.9502 17.423L54.1061 17.6262L54.2866 17.6068L54.1061 17.2393Z" fill="#CCCCCC"/>
<path fill-rule="evenodd" clip-rule="evenodd" d="M54.877 16.3014V16.5529H55.1067L55.0575 16.2627L54.877 16.3014Z" fill="#CCCCCC"/>
<path fill-rule="evenodd" clip-rule="evenodd" d="M54.8975 16.2959V16.5184H55.0862L54.9384 16.3443L54.8975 16.2959Z" fill="#CCCCCC"/>
<path fill-rule="evenodd" clip-rule="evenodd" d="M54.877 17.4231L54.959 17.5198L55.1067 17.3457L54.877 17.4231Z" fill="#CCCCCC"/>
<path fill-rule="evenodd" clip-rule="evenodd" d="M54.8936 16.2627V16.5335L55.0905 16.5529V16.2627H54.8936Z" fill="#CCCCCC"/>
<path fill-rule="evenodd" clip-rule="evenodd" d="M54.8809 15.2568L54.9958 15.5083L55.1025 15.3825L54.9958 15.2568H54.8809Z" fill="#CCCCCC"/>
<path fill-rule="evenodd" clip-rule="evenodd" d="M52.611 16.8507L52.373 17.0584L52.7857 17.4187L53.2459 17.4327V16.7675L52.9285 16.4072L52.611 16.8507Z" fill="#CCCCCC"/>
<path fill-rule="evenodd" clip-rule="evenodd" d="M53.123 17.2979L53.2051 17.5687H53.3693V17.3365L53.123 17.2979Z" fill="#CCCCCC"/>
<path fill-rule="evenodd" clip-rule="evenodd" d="M52.7793 15.4763L52.6461 15.6112V15.7596L52.4929 15.9148L52.2196 15.7192L51.9931 15.8406V16.0025L51.7132 15.8001L51.5 15.8811L51.5666 16.2049L51.7665 16.1375V16.3533L51.9798 16.4073L52.173 16.2116L52.4462 16.097L52.6727 16.1644H53.0059L53.2458 15.9216L53.0192 15.6922L53.1725 15.537L52.9126 15.3818L52.7793 15.4763Z" fill="#CCCCCC"/>
<path fill-rule="evenodd" clip-rule="evenodd" d="M51.139 14.6665H50.883L50.7317 14.3564L50.627 14.7857L50.7608 15.0599L50.8132 15.3819L51.1158 15.1673L51.2205 15.3819L51.4184 15.215L51.4998 15.3819V15.0242L51.366 14.7498H51.2438L51.139 14.6665Z" fill="#CCCCCC"/>
<path fill-rule="evenodd" clip-rule="evenodd" d="M51.4677 17.3027H51.3281L51.3774 17.5446L51.6728 17.564L51.4677 17.3027Z" fill="#CCCCCC"/>
<path fill-rule="evenodd" clip-rule="evenodd" d="M52.3235 17.2393L52.1758 17.4134L52.2907 17.5488L52.5697 17.6262L52.3892 17.4134L52.3235 17.2393Z" fill="#CCCCCC"/>
<path fill-rule="evenodd" clip-rule="evenodd" d="M53.082 15.2568V15.5083H53.2462L53.4103 15.3149L53.082 15.2568Z" fill="#CCCCCC"/>
<path fill-rule="evenodd" clip-rule="evenodd" d="M110.826 10.5351L111.002 9.78628L111.669 9.0245L112.413 8.14652L112.753 7.74634L113.409 7.41061L113.88 7.08789L114.318 6.57152L114.767 6.04212L115.314 5.78386L115.708 5.11255L116.452 4.85429L116.846 4.36363L117.328 4.10536L117.634 3.89884L117.984 4.31204L118.488 4.13124L118.937 4.53142L119.232 4.18283L119.758 3.8471V3.53724L119.232 3.6663L118.619 3.6147L118.225 3.48565L118.357 3.02086L118.772 2.68513L118.422 2.5818V2.3494L118.663 2.37543L118.707 1.91065L118.926 1.5492L119.232 1.18775L119.758 0.955356H119.911L120.305 0.309769C120.305 0.309769 120.677 0.180714 120.808 0.0257851C120.94 -0.129143 120.808 0.464698 120.808 0.464698L121.093 0.748682L121.312 1.00695L121.071 1.60079C121.071 1.60079 121.399 1.60079 121.531 1.44586C121.662 1.29093 121.531 1.75572 121.531 1.75572V2.29797L121.027 2.68529L121.421 2.76275L121.662 2.47877L122.176 2.71116V2.44004L122.581 2.91768L122.866 3.43421L123.107 3.35675L123.347 2.9953V3.33103L123.501 3.74422H123.041V3.95074L123.413 4.0798L123.216 4.75111L122.713 4.8027L122.253 5.39654L122.012 6.01625L121.553 6.19705L121.224 6.04212H120.808L120.436 6.68771L120.6 7.07503V7.73348L120.239 8.15953L119.955 7.90127L119.67 8.15953H119.254L119.013 7.92714L118.794 7.77221L118.762 8.01746L118.926 8.21112L118.729 8.31446L118.597 8.46939L118.98 8.54685V8.89544L119.276 9.24403L119.758 9.0891H120.086L120.108 9.57976L120.305 9.34737L120.644 9.74771L121.005 10.1738L121.18 10.9225L121.268 11.5164L120.918 12.1877H120.589L120.13 12.4201L119.976 12.8331L120.349 12.6523H120.589L120.239 13.1431L120.458 13.4012L120.743 13.2722V12.7815L121.005 12.5491L121.476 12.5363L121.75 12.2135L121.881 11.9553L122.209 11.9812L122.472 11.9296L122.953 11.9037V12.2651H123.347L123.457 12.0199H123.84L124.07 11.7488L124.354 11.6972L124.595 11.9296L124.945 11.6197L125.11 12.0716L125.427 12.4461V12.9883L124.989 13.1949L124.705 13.9176H124.245L124.114 14.15L124.628 14.5502L124.464 14.7438L124.836 15.4153L124.989 16.2415V17.1711L125.121 17.8942L125.339 18.5139L125.449 19.3401L125.668 20.1406L126.084 20.5795V21.3283L126.303 22.3612L126.675 22.8519L126.916 23.1359L126.543 23.5232L126.149 23.2908L125.602 23.4973L125.318 24.2719L124.858 25.0466L125.099 25.3307L124.924 26.0538V26.4411L125.296 27.1124V27.5256L124.88 27.2932L124.573 26.9316L124.311 26.9575L124.551 27.7062V28.1969L124.956 28.4164L124.551 28.8941H124.289V29.5654L124.048 29.8494L124.376 30.495L124.639 30.8048L124.945 31.1663L125.361 31.6569L125.449 32.38L125.515 32.9481L126.117 33.3224L126.478 33.7485H127.091L126.926 33.3095V33.09L127.135 32.8448L127.288 32.4574L127.857 33.1287L127.966 33.7226L128.535 34.1874L129.099 34.3358L129.323 34.0712H129.685L130.111 34.5747L129.936 35.0653L129.499 35.2203L129.63 35.84L130.09 36.7437L130.495 36.8599L130.812 37.2343L131.556 37.131L131.994 37.5442L132.147 38.009L131.885 38.2155L131.512 38.4995L131.294 39.0676L131.447 40.1005L131.885 40.901L132.268 41.0688L132.454 41.2884L133.089 41.4692V41.779L132.607 41.8565V42.3213L132.432 42.7861L132.651 43.7156L133.023 43.8964L133.592 44.5677L134.008 45.0325L134.096 45.8588L134.314 46.9433L134.424 47.6404V48.1568L134.183 47.7695H133.548L133.143 47.5242L132.826 47.1498H132.388L131.994 46.685L131.228 46.2718L130.505 45.9103L129.674 45.394L129.433 45.0066L129.039 44.6968L128.601 44.5935L127.66 44.2577L127.047 43.8704L126.456 43.4056L126.171 42.7859L125.537 42.0371L125.099 41.4949L125.099 40.9526L124.792 40.5912L124.727 39.9973L124.354 39.3776L123.949 39.2743V39.0548L124.135 38.8352L124.289 38.4479L124.081 38.0219L124.278 37.7895L124.442 37.5958L124.223 36.8212L124.114 35.9949L123.851 35.0395L123.435 34.3939L123.26 33.5418L123.063 32.7413L122.844 32.0957L122.581 31.1402L122.319 30.882L122.297 30.3656L122.45 29.7459V29.3844V28.9455L122.187 28.6357L121.903 27.9901H121.618L121.345 27.8739L121.093 27.5769L120.786 27.1121L120.327 26.7764V26.1825L120.743 25.7179L120.6 25.5499L120.261 25.9501L119.779 26.26V26.8022L119.648 27.2154L119.911 27.4994L120.294 27.9513L120.655 28.3774H121.093L121.049 28.7131L120.852 28.6873L120.644 29.0358L120.918 29.3586V30.1848L121.137 30.8045L121.18 31.7857L121.027 32.38L120.852 31.8636L120.458 31.6312L120.458 32.2768L120.13 31.8895L119.911 31.6312L119.736 31.1923L119.123 30.521L119.298 31.0891L119.123 31.7088H118.532V32.122L118.335 32.9741L118.094 33.3099L118.116 34.4459L118.51 34.7558L118.444 35.4789L118.838 36.2019V36.9765L118.959 37.9964L119.32 38.4225V38.8873L119.626 39.2487L119.911 39.1971L120.162 38.926L120.349 38.7065H120.677L120.655 39.1971L120.305 39.3262V40.0234L119.648 40.1524L119.801 41.0561L119.736 41.4434L119.32 41.6498V42.1921L119.167 42.6827C119.167 42.6827 118.652 42.8248 118.751 42.7086C118.849 42.5924 118.554 42.4762 118.554 42.4762V42.1405L118.641 41.8047L119.002 41.6627L118.838 41.469L118.444 41.6498L118.028 41.7273V41.9597L117.415 42.2954L117.109 42.7343L116.759 42.8377L116.474 43.1734L116.365 43.5607L116.474 44.0514L116.715 44.3353L116.43 44.6968L115.971 44.4903L116.113 45.0454L115.774 45.4456L115.467 45.7813H115.204L114.942 46.0653L115.117 46.401L115.248 46.5559L114.876 46.8399H114.373L113.88 47.4209L113.563 47.7954L113.212 48.4925L112.84 48.9315L112.468 49.8094L112.403 50.6615L112.753 51.4878L112.424 51.8751L112.315 52.7013L112.512 53.2952L112.818 53.6566L112.556 54.173V54.8702V55.7997L112.424 56.4453V57.3233L112.643 57.6073V58.227V58.9242L112.446 59.8022V60.5252L112.118 61.1708V61.8162L111.943 62.3844L112.14 62.9072H112.474L112.731 62.6039H113.092L113.377 62.268L113.694 61.8937L113.913 62.152L114.176 62.3069V62.6426L114.384 63.0944L114.646 63.4043L114.876 63.1331V62.7201L114.57 62.5652V62.1778L114.81 61.868V62.1261L115.073 62.3585L115.205 62.3069L115.336 62.4618V62.9266V63.2623L115.774 63.0558V62.7977L116.014 62.4104L116.168 62.2555L116.408 62.462L116.463 62.0359L116.255 61.7907L116.058 61.3516L115.817 60.8352L116.211 60.5771L116.452 60.293L116.934 60.1639H117.503L117.974 60.2285L118.181 60.4738C118.181 60.4738 118.685 60.3704 118.794 60.3704C118.904 60.3704 119.21 60.2154 119.21 60.2154L119.484 60.5382L119.276 60.7836L119.123 60.9643L118.991 61.2484H119.364H119.758L119.845 61.584L120.174 61.9713L120.579 61.9069L120.786 62.1521L121.005 62.6428L121.071 63.6239L121.356 64.6569L121.804 65.4185L122.362 66.0769L122.581 66.3354L122.691 66.7741L123.129 67.2906L123.435 67.9104L123.545 68.272L123.95 69.0079L124.289 69.4079V70.4924L124.157 71.422L124.398 72.3515L124.376 73.3068L124.617 74.0557L124.792 74.8821L124.924 75.6308L125.055 76.6378V77.6191L124.924 78.1356V79.1427V80.3821L124.792 81.3117L124.924 82.267L124.88 83.5064V84.1004L124.442 84.9525L124.157 85.6754L123.829 86.3986H123.544L122.997 86.6565L122.538 86.9664L122.22 86.8115V86.4629L122.056 86.2692L121.892 86.7083V87.1858L121.706 86.9664L121.421 86.6308V86.8889L121.334 87.5344L121.421 87.9734L121.301 88.477L121.115 88.6963V88.9548V89.3678L120.699 89.3421L120.524 89.1354L120.677 88.5414L120.94 87.9217V87.4055L120.71 86.7985L120.239 86.2435L119.998 85.9594L119.801 85.3654L119.385 84.8749L118.991 84.7199L118.98 84.2164L119.254 83.8936L119.495 83.6097V83.0932L119.801 82.7316L120.152 82.5252L120.513 82.6671L120.83 82.2928L121.027 81.828L120.677 81.1823L120.852 80.6401L120.633 80.0721L120.589 79.4781L120.283 78.9876L120.371 78.5745L120.13 78.0837L120.02 77.5158L119.582 76.9735L119.911 76.5862V76.0179L119.637 75.6954L119.32 75.3207L119.232 74.9852H118.86L118.335 75.3207L118.203 75.8373L117.853 76.5087L117.459 77.1024L117.634 77.7482L117.175 78.1869L116.715 78.4968L116.321 78.6517L116.211 79.1165H115.796L115.38 78.8327L115.073 78.7034V78.1095L114.723 77.7482L114.438 77.4123L113.968 77.2704L113.716 77.5672L113.212 77.4123L112.797 77.2834L112.162 77.3866H111.571L111.33 77.6707L110.673 77.9545L110.017 77.7996L109.743 77.1672L109.426 76.7926C109.426 76.7926 109.053 76.5345 109.053 76.431C109.053 76.3275 108.638 75.9405 108.638 75.9405L108.112 75.8373L107.893 75.2176L107.39 74.7528L107.039 74.3397L106.558 74.1848L106.383 73.6426L105.945 73.4102L105.682 73.1003L104.807 72.9968H104.347L103.822 73.3327L103.165 73.2035L102.661 73.4102H102.114L101.37 74.0556L101.02 74.4686L100.33 74.9464L99.9909 75.3468L99.7501 76.1989L99.5749 76.7151L99.8158 77.0767L100.155 76.7538L100.429 77.0767L100.735 77.4383L100.91 78.2644L100.735 78.7034L100.604 79.8137V80.5108L100.363 81.2341L100.691 81.9827L100.888 82.2151V82.9383L100.429 83.0932L100.133 83.9066L99.7063 84.4101L98.9839 84.7199L98.174 84.6425L97.583 84.5133L97.1453 84.8231L96.5323 85.2362L96.0726 84.9523L95.6567 84.7714L95.1095 85.0555L94.6498 85.5978L94.3214 85.9851L94.1353 86.7467L93.7522 87.1988L93.2488 87.6118L92.5484 87.9992L92.012 88.6319L91.7384 88.9545H91.0379L90.4031 89.1868H89.5056L88.8489 89.2903L88.2579 89.0579L88.0827 88.6706L87.7763 88.309H86.9445L86.1784 88.1798L85.8718 87.9474L84.865 88.1154H84.241L83.7266 88.7221L83.1576 88.877L82.6103 89.0579L81.8222 88.9805L81.2861 88.7094L80.9467 88.309L80.6294 87.5214L80.2243 87.0439L79.6551 86.7858H79.1079L78.4841 86.9791L78.0572 86.4759H77.2035L76.7 86.0368L76.4482 86.3337L76.1089 86.734L75.8353 87.3925L75.5398 87.7411L75.4522 88.4125L75.7259 88.7998V89.3805L76.1089 89.8326V90.4523L75.5946 90.8526L75.1021 91.4336H74.6861H74.0514L73.4603 91.2527L72.8474 91.3819L72.4096 91.2269L71.7747 90.9685L71.4246 90.5555L71.0086 90.065L70.5052 89.8843L69.9141 90.1682L69.5419 89.7291L69.0713 89.484L68.6882 89.9358H68.2067L68.0535 90.478H67.4844L66.762 91.0203L66.3241 91.5368H65.8863L65.7987 92.079L65.2844 92.221L64.9232 92.647L64.2665 92.6213L63.7192 92.9826L63.4346 93.3185L62.7999 93.1893L62.6028 92.8019L62.3621 92.2854L62.2417 91.7562L61.9024 92.1565L61.3333 92.4146L60.8079 92.2079L60.2169 92.0273V91.4076L59.7572 91.072L59.5822 90.6072L59.2101 90.3231L59.1225 89.7034L58.8161 89.3678L58.4056 89.1548L58.1374 88.8386H57.5792L57.3056 89.1611L56.7583 89.2646L56.5393 89.0062L56.0578 89.1094L55.7951 88.7995L55.5543 88.5157V88.1284L55.3136 87.7928L54.9632 87.9217L54.7224 88.5157L54.2408 88.6189L53.9562 87.9477L53.8029 87.3537L53.6935 86.6823L53.3214 85.9076V85.2879L52.9712 84.9006V84.0485L52.7085 83.0157L52.3364 82.5767L52.0956 82.2928L51.8439 81.6601L51.5703 81.3372L51.1982 81.1566V80.6918H51.5046L51.7673 80.2788L51.6579 79.9172H51.2639L50.9355 80.3045L50.4758 80.3302L50.1366 80.3432L49.7754 80.7693L49.1624 80.9759L48.6371 81.3115L48.3962 80.8985L47.9365 81.1566H47.5644L47.6958 80.4594L48.2211 80.1753V79.814H47.7834L47.3893 79.5298L47.1486 79.814L46.7108 79.659L46.8531 79.052L46.5356 78.6777L46.0979 78.9876L45.6162 78.8327L45.4958 78.3809L45.7695 78.058V77.5675L45.8789 77.2059L45.7038 76.5605L45.3755 76.3795H44.9815L44.7845 75.9147H44.2372L43.7994 75.6049L43.3178 75.5531L43.0551 75.9922H42.5078L42.0262 76.1471L41.6322 75.889L41.1506 75.9922H40.5595L39.9904 75.6436H39.7606L39.5088 75.9405L39.071 76.0439L38.6551 75.7855H38.283L37.7796 75.6049L37.0353 75.6306L36.488 75.5017L36.094 75.6306L35.7437 75.2693L35.2403 74.9594H34.7806L34.6273 75.5274L34.7806 75.9147L34.4742 76.2763L34.7149 76.457L34.9556 76.7411L35.2512 77.0897L34.9776 77.4123H34.6712L34.2991 76.9735L33.73 76.9992L33.3579 77.1799L33.5112 77.8256L33.3579 78.2904L32.9858 78.4193L32.548 78.2904L32.373 78.8327L32.5152 79.207L32.8216 79.5686L33.0295 79.8137L33.1171 80.2527L33.4236 80.6143L33.1171 81.1048L32.8325 81.4404H32.3509L31.8584 81.4791L31.6066 81.1823L31.4315 80.7626H31.2072L30.9718 81.0404H30.5887L30.1619 80.5369L30.0798 80.2464L29.7569 79.8654V79.207L29.4832 78.8841H28.9798L28.5639 79.0651L28.4106 78.6777L27.9946 78.2904L27.6225 78.058L27.1191 78.3422L26.6594 78.4196L26.2873 78.2904L26.0247 77.6964L25.6526 77.3091L25.3899 77.8256H25.1053V77.4126L25.368 77.1027L25.1929 76.6637L24.9739 75.9922L24.8863 75.295L24.558 74.8302L24.0326 74.5978L23.8795 74.1591L23.5949 73.8232L23.0695 73.9267H22.7631V73.4359L22.6098 72.9197L22.0736 72.8031L21.8 73.126L21.2965 73.3327L20.8588 73.0486H20.3991L20.1802 73.4359H19.7205H19.217L19.1074 73.72L18.8228 74.0556L18.779 74.5461L18.2428 74.4302L17.9253 74.0556V73.5391L18.0677 73.0355L17.8378 72.7644H17.4656L17.3123 73.1778L17.0277 73.4229H16.6009L16.2616 73.8232L15.977 74.1588V74.6236L15.6049 74.8045L15.2109 74.7785L14.9263 75.1144L14.576 75.3982L14.7183 75.9017L15.0357 76.2763L14.9044 76.9475L14.6197 77.2834L14.9044 77.4897L15.3203 77.9545L15.583 78.2644L15.4736 78.9358L15.594 79.8137V80.5239L15.3642 80.795L15.1452 80.5108L14.8169 80.4594L14.8606 80.9242L15.0467 81.376L15.3203 81.6988L15.1014 81.9569L14.7293 82.0087H14.4229H14.1821H13.9851C13.9851 82.0087 13.7224 82.0474 13.5145 82.0474C13.3066 82.0474 13.3503 81.8538 13.3503 81.8538L13.022 81.7503L12.8689 81.5696L12.4748 81.4922V81.8538L12.1684 82.0087L11.7963 82.5249H11.3804L10.9207 82.6798L10.6525 82.596L10.4282 82.8608V83.2869L10.658 83.558L10.7893 84.0485L10.6799 84.539L10.5814 84.9911L10.3297 85.2879V85.4686L10.1107 85.701L9.62909 86.6305V87.3537L9.76043 88.2316L9.67283 88.903L9.71656 89.7291L9.1912 90.0132L8.84092 89.8326L8.33749 90.0389L7.85587 89.91L7.7902 89.4192L7.54945 88.5671L7.50572 87.9474L7.15543 87.6636V87.3277L6.98036 86.7855L6.67394 86.3207L6.87095 85.9333L7.00229 85.4946L6.67394 85.0812L6.56453 84.6165L6.19245 84.565L6.11588 84.2939L5.84203 83.971L5.36041 83.8936L5.05399 83.532L4.96639 82.7059L4.65997 82.37L4.74758 81.8538L4.37549 81.4922L4.17848 80.8985L3.85013 80.7175L3.36851 80.3302L3.21523 79.7105L2.88688 79.1168L2.77748 78.6003L2.53673 78.5485L2.36165 78.2904L2.14271 77.9288L1.8581 77.9806L1.68302 77.3608L1.74869 76.1732L1.66109 75.295L1.48601 74.8563L1.26707 74.4689L1.3108 73.6943L1.04812 73.4102L0.873047 72.9971L1.00439 72.5323L0.894981 72.0158L1.13573 71.7317L1.39841 71.6802L1.74869 72.1964L2.07704 72.3257L2.23031 71.9383L2.6024 71.7577L3.10583 71.7317H3.36851L3.69686 71.8609L3.76253 71.2154L3.58745 70.8281L3.67505 70.4922L3.93773 70.544L4.17848 70.7507L4.44116 71.0345L4.63817 70.8021L4.94459 70.957L5.44801 71.0345L5.8201 71.2154L5.9077 70.7507L5.64502 70.5183L5.27294 70.4148L5.03219 70.1309L4.76951 70.0275L5.09786 69.6144L5.57935 69.3563L5.99531 69.5627L6.36739 69.382L6.71768 69.8211L7.24304 70.4922L7.72466 69.9243L8.05301 69.6919L7.96541 69.1236L8.27182 68.7623L8.57824 68.814L8.55631 68.4007L9.36628 68.2718L9.51955 67.8327L9.69463 67.5746L9.32254 67.368V66.8257L8.97226 66.3609L8.84092 65.7669L8.51257 65.5345L8.16229 65.0697L8.29362 64.5275L8.16229 63.727L7.74646 63.3657L7.26484 62.9268L7.11157 62.3328L6.78322 62.0229L6.67381 61.6615L6.95842 61.2741L7.17737 60.706V60.1638L6.93662 59.6474L6.69587 59.2085L6.91482 59.002L7.04616 58.6146H7.30884L7.50585 58.4081L7.65912 57.7109L7.70286 57.2977L7.52765 56.7814L7.28677 56.4972L6.95842 56.4456L6.71768 56.1358L6.52067 55.8001L6.22515 56.0969L5.99531 55.8258L5.7983 55.4385L5.99531 55.0253L6.41126 54.5346L6.69587 54.1473L6.80528 53.6825L7.13363 53.6566L7.37438 53.9665L7.50572 54.3538L7.94347 54.5348L8.35943 54.3798L8.46883 53.8634L8.60017 53.2953L8.27182 52.908L8.49077 52.7272L8.46883 52.2883L8.60017 51.6686L8.84092 50.9973L9.016 50.4291L9.45375 50.2742L9.60703 49.8869L10.023 49.4737V48.5957L9.65089 48.1827L9.23494 48.0536L9.36628 47.6663L9.47569 47.2531L9.16927 46.8917L8.97226 46.3753L9.03793 46.0138L9.45388 45.5232L9.69463 45.0068L9.58522 44.542L9.93551 44.4387L10.4609 44.0514V43.5091L10.6798 43.1993L11.227 43.1734L11.4677 42.8377L11.4897 42.4503L11.9493 42.2438L12.3214 41.65L12.8249 41.6758L13.2626 41.366L13.8536 41.5209L13.9412 41.1336L14.1383 40.9012L14.5103 41.1077L14.8168 41.495L15.2985 41.6757L15.4736 42.1405L15.6487 42.6568L15.9113 42.347L15.8676 41.5982L15.4736 41.185V40.307L15.8239 40.2039L15.9333 40.0748L15.4517 39.8424L15.167 39.4551L20.0704 39.4292L20.9897 39.0419V38.3706L21.143 36.6664H21.756L22.2813 36.1757V35.5044L22.6754 35.3236V34.4456L23.0256 34.4198L23.7917 33.6967L24.1638 33.9032L24.9738 32.1216L25.0286 31.6439L25.6962 30.8564H26.8126L27.1628 30.1334V28.739L27.8633 28.3258L28.7827 27.7836L29.4174 28.0675H29.7896L30.0961 28.429L30.472 28.1201L30.3805 28.6614L30.7526 28.6098L31.278 28.6357V29.0489L31.3874 29.5136L31.1467 29.3328L30.8949 29.0358L30.665 29.307L30.7744 29.7976V30.2883L31.1465 30.5207L31.4311 30.8564V31.3987L31.7486 31.5795V32.1863L32.1098 32.6124L32.2848 33.3354V34.0842L32.1754 34.7298L32.3068 35.0912L32.3177 35.8787L32.7008 36.3307L32.6789 36.8988L32.5913 37.8283L32.2081 38.6158L31.628 39.3002H31.015L30.3364 39.4551L29.7454 39.1968L29.0996 38.7708L28.6952 38.293V37.5958L28.2792 37.1051L28.0822 36.5629L27.929 36.0465L27.6445 35.4785L27.4912 34.5231L27.1848 34.3682L27.2833 33.7872L27.5351 33.4902L27.2286 33.1287L27.0864 33.5807L26.8785 33.8259L26.9661 34.394L26.977 35.0525L26.7363 35.3365L27.0537 35.7109L26.9661 36.2791L26.6597 37.0796L26.1234 37.2732L25.6966 37.7768L25.5324 38.6935L25.1275 39.1711L25.2588 39.7134L25.4558 40.3847L25.1384 41.0431L25.5872 41.5725L26.0684 42.1405L26.6157 41.6757L26.7251 41.0303L26.4405 40.6945L26.4842 40.1264V39.6875L26.8563 39.2227H27.2284L27.3597 40.3847L27.4802 41.1465L27.8633 41.5984L28.104 42.1922L28.7279 42.4118L28.914 42.1922L28.7607 41.7533L29.1328 41.3919L29.1547 40.4882L29.8334 40.6172L30.4681 40.3332L30.9935 40.669L31.5845 40.4494H31.9895L32.2414 40.7461L32.6135 41.4174L32.307 41.7789V42.347L32.5806 41.9468L32.9637 41.4949L33.4891 41.3658L33.9269 40.6171V39.9715L34.1019 39.5326L34.671 39.1968V38.7836L35.2183 38.3963V37.7507L35.1307 37.131H35.5028L35.6232 37.4537L36.1158 38.0347L36.4879 38.706V39.6097L36.3565 40.0745L36.1595 40.3069L35.8312 39.9196L35.3715 39.7905L34.671 40.0745V40.7458L34.8461 41.3655V41.8819L35.3495 42.0368L35.8312 42.2951L36.3784 41.9852V41.5204L36.9475 41.3655L37.4948 41.6754L37.4072 41.2622L38.2609 41.443L38.7206 41.3396L39.5524 41.4687H40.034L40.2748 41.9851H40.4937V41.5203L41.1942 41.262H41.5665L41.7198 41.9333H41.3038L41.1725 42.3981L40.8441 42.5272L41.3476 43.0694H41.6979L42.3545 42.7337L42.9784 42.8758L43.6571 43.6763L43.8869 43.4052H44.3466L44.9267 43.1856L45.1566 43.4567L45.0909 43.8182L44.7406 44.1022V44.5411L45.1566 44.9543L45.1894 44.4766L45.3755 44.2571L45.8133 44.3862V43.973L46.2292 43.8955L46.3168 43.2758L46.2511 42.527L46.6452 42.2946L46.9844 42.1784L47.3893 42.6561L47.5644 42.4496L48.0132 43.108L48.5277 43.7149L48.9436 44.2055L49.2172 44.864L49.7317 45.4708L50.0819 46.1164L50.454 46.7102V47.2266L50.7603 47.7954L51.1981 47.4855V46.9433L51.7015 46.401L51.3512 46.2719L51.1105 45.6006L51.1981 44.8776L50.7821 44.5419L50.5523 43.9868L50.7602 43.7415L51.1979 43.4832V43.07L51.3073 42.4503L51.5044 42.1405V41.7531L51.2197 41.6498L51.373 41.1334L51.6138 40.772L52.0515 40.5912L52.5221 40.3201L52.6863 40.1264L53.0584 39.6875L53.343 38.9387L53.5619 38.319L53.8027 37.6993L54.2186 37.441L54.4813 37.8799H55.0067L55.2693 38.1898H55.729L55.926 39.0678L55.7071 39.326L55.6086 40.2685L54.9847 41.0044L54.8097 41.6757L55.1817 42.063L55.0504 42.941L54.941 43.6382L54.5032 44.4128L54.35 45.5232L54.1092 46.5043L53.9341 46.995L54.0983 47.6793L54.4814 48.1312L54.4158 48.5444L53.9341 48.9834L53.8465 49.9388L53.3649 50.0937L52.7958 50.765L52.4675 51.3332L52.161 51.5397L51.6138 51.4106L51.2854 51.6689L50.9242 51.3978L50.6944 51.1266L50.366 50.9976V51.4882L50.6944 52.0821L51.0227 52.2629L51.4605 52.6243L51.8326 52.5985L52.0952 53.0374H52.4893C52.4893 53.0374 52.6534 52.6888 52.5658 52.5854C52.4782 52.4821 52.7957 52.3143 52.7957 52.3143H53.0803L53.2116 52.1594L53.7589 51.9786L54.1967 51.6946V51.1524L54.3937 50.92L54.7329 50.5198L55.0065 50.1971L55.1379 49.5774L55.0285 49.0351L54.9847 48.5444L55.2802 48.1959L55.5758 47.8473H56.0354L56.5389 47.7698L56.6811 48.2733L56.889 48.5186L57.1517 49.3191L56.8019 49.732L56.8239 50.3517V50.739L57.2616 51.2554L57.7651 51.3844V51.023L57.2725 50.8552L57.0864 50.6357V50.3258L57.0427 49.861L57.393 49.732L57.5243 49.3962L57.393 48.9056L57.5463 48.4924L57.3273 47.976L57.0427 47.6662L56.8676 47.4596L56.3314 47.2401L56.0249 46.8787L55.7732 47.1757L55.4448 47.3564L55.2697 47.0725H54.8757L54.81 46.5818L55.0727 46.2719L55.0071 45.4457L55.3135 44.8776L55.5105 44.2063L55.9482 43.6899L55.795 43.1218L55.6636 42.6311L55.7184 42.1019L55.4009 41.7274L55.7512 41.3142L56.2985 40.6686H56.7582L57.0209 40.178L57.196 39.6357L57.0427 39.1968L57.196 38.8095H57.5463L57.4368 39.3518V40.1005L57.3492 40.7718L56.9552 41.2366V41.8822V42.347L57.4149 42.7602L57.6776 43.0185L58.0168 42.7732L58.3561 43.1734L58.7282 43.5866V43.2767L58.5859 42.8765L58.3342 42.5795L57.9401 42.3471V42.1406L57.6118 41.7533L57.4586 41.185L57.9183 40.8236L58.1373 41.0818L58.4876 41.495L58.7502 41.2111L58.6626 40.8753L58.6298 40.5783L58.8816 40.2813L59.3193 40.3847L59.6805 40.3201L59.976 40.6686L60.5451 41.0301L60.3919 41.5465L60.5341 41.7143L60.9172 42.1662H61.5083L61.5959 41.753L61.3551 41.3657L61.377 41.0042L60.9611 40.8234L60.6547 40.2296L60.4795 40.0231L60.6108 39.4033L60.8078 38.887L60.6327 38.6805L60.5233 38.0349L60.9611 37.5701H61.9899L62.5152 37.8025V37.6475H63.3689L63.938 37.3636H64.3539L64.5728 37.1053L64.3539 36.718L64.0912 36.6146L63.8722 36.3564C63.8722 36.3564 63.9598 36.253 64.124 36.0594C64.2882 35.8657 64.2882 36.253 64.2882 36.253L64.5509 36.1756L64.3758 35.9432L64.4962 35.6205L64.3101 35.4009L64.5291 35.0395L64.8355 34.7555L64.5291 34.7296L64.5071 34.3423L65.1201 34.3682L65.3608 33.7743L65.9628 33.5032L66.1926 33.2321L67.0135 33.09L67.2214 32.8448L67.8124 32.6382L67.9438 32.4574L67.5498 32.3025L67.7687 32.0442L68.3378 31.8893L68.8194 31.8119L68.9288 31.5279L69.3229 31.4504L69.1149 31.9152V32.2896L69.3885 31.9669L70.0673 31.9927L70.133 31.5795L70.5707 31.4761L71.0085 31.5795L70.8115 31.2696L70.5488 31.0372L70.4174 30.7532H70.8991L71.4025 30.5724H71.5558L71.512 30.1335L71.3368 29.9786V29.3589L71.4464 28.9457L71.7747 27.9902L72.1687 27.6545L72.5189 27.2156L72.9568 27.5254L73.2851 27.4739L73.3836 28.0032L73.0442 28.4034L72.7598 28.8423L73.4547 28.8876L73.5915 28.7261H74.0184L74.3358 29.1006L74.0512 29.4363C74.0512 29.4363 74.0293 29.7721 74.1606 29.7721C74.292 29.7721 74.6423 29.9529 74.6423 29.9529L74.7517 29.514L74.5546 29.2816L75.0363 28.9717H75.474L75.9228 28.5972L76.1746 28.8942L76.5139 28.7006L76.7656 28.9976L76.9844 29.514L77.2471 29.7722L77.4004 29.5657L77.6302 29.8368L77.9258 30.1854L77.882 30.7277L77.4441 30.6243L77.6193 30.8308L78.0571 31.1148L78.3307 31.6699L78.079 31.9668V32.4832L77.8601 32.8446L77.6522 33.3481L77.4004 33.6451L76.9626 34.2648V34.5231L76.8313 35.2462L76.503 35.6335L76.3716 36.434L75.8462 36.5889L75.6821 37.1699L75.3209 37.596L75.2333 38.2673L75.1239 38.732L75.5179 38.5255L75.4303 38.0091L75.8243 37.7252C75.8243 37.7252 76.1746 37.5961 76.3716 37.5961C76.5686 37.5961 76.6343 37.1313 76.6343 37.1313L77.0064 36.7699L77.3567 36.6149L77.5646 36.1373L77.4004 35.9436L77.1377 35.9178L77.1597 35.7109L77.1377 35.2977L77.4661 35.2719H77.7287L78.1008 35.3752L78.5387 35.5817L78.6262 35.2719L78.8999 34.8199L79.1297 35.0911V35.6074L79.3924 36.0464H79.6988L79.3924 35.7109L79.6003 35.4657L80.0053 34.988L80.5526 34.6523L81.3843 34.4715L82.041 34.2391L82.2053 34.5361L82.0521 34.7169L82.4132 35.143H83.0918L83.1137 34.9365L83.1794 34.6525L83.442 35.1431L83.9017 34.9366L84.3614 34.4718C84.3614 34.4718 84.843 34.3685 84.9524 34.3685C85.0619 34.3685 84.9524 33.9037 84.9524 33.9037L84.8868 33.3873L84.5584 32.7935L84.646 32.1996L84.7117 31.8898L84.9744 32.1996L85.248 31.9544L85.4778 32.2255L85.8281 32.5095L85.9156 32.1996L86.0908 32.1476L86.2658 32.38L86.4409 32.225C86.4409 32.225 86.4191 31.7474 86.5833 31.7474C86.7475 31.7474 86.7912 31.5021 86.7912 31.5021L87.2728 31.9411L87.426 31.7603L87.9513 31.9668L87.7763 32.5994H88.0279L88.2797 32.8964V33.387L88.6956 33.0772L88.9146 33.3354V33.9035L88.63 34.0069L88.4549 34.2132L88.7613 34.5747C88.7613 34.5747 89.0021 34.4456 89.0021 34.3164C89.0021 34.1872 89.1991 34.5488 89.1991 34.5488V34.962L89.6479 34.949L90.0747 35.4525L90.4031 35.7108L90.8627 35.8141L91.0598 35.5817L91.5632 35.8916L91.607 35.4011L91.3881 34.549L91.2568 34.1617V33.8002L90.9721 33.4645V32.9997L91.5194 33.0772L91.8259 33.4386L92.3075 33.2837H92.8548L92.7452 32.6124L93.0518 31.9411L93.6209 31.7861L94.0368 31.7603L94.5183 31.9152V31.5279L94.004 31.2567L94.19 31.0372L94.4309 30.7274L94.8467 30.7532L95.175 30.3659L95.0219 30.2626L94.6935 29.8752L94.3213 29.6429V29.0747L94.1682 28.9198L93.9492 29.5911L93.6866 29.3846V28.8423L94.1682 28.326L94.1025 27.9645L93.6428 27.6288L93.9273 27.2931H94.3433L94.9562 26.9316L95.1313 26.3378L95.9413 25.9763L96.576 25.6406C96.576 25.6406 96.6636 25.7439 96.6636 25.8988C96.6636 26.0538 96.2477 26.2346 96.2477 26.2346L96.0944 26.9318L96.4666 26.7251L96.795 26.3378L97.2108 26.4927L97.1014 27.4997L97.4735 27.0865V26.5959L97.3421 25.7696L97.4297 25.4082L97.6268 24.7626L98.0864 24.5043L98.7431 24.1686L99.1372 24.5043C99.1372 24.5043 98.9511 24.8013 98.8088 24.9691C98.6666 25.1369 98.9621 25.2533 98.9621 25.2533H99.4436L99.7501 24.8401C99.7501 24.8401 100.1 25.279 100.166 25.3564C100.232 25.4339 100.1 24.7626 100.1 24.7626L100.691 24.3753L101.107 24.6335L101.567 24.6078L101.983 24.1172L102.421 23.4716V22.7228L102.968 21.7674L103.428 21.2251L103.843 20.6313L104.566 20.5022L105.168 20.4635L105.463 20.8121L106.076 21.5351L106.624 21.2511L107.018 20.8767H107.444L107.237 20.6313V20.2697L107.652 19.7792V18.9271L107.849 18.4882H108.178L108.462 18.1524V17.636L109.01 17.1713L109.141 16.5515L108.922 16.2933L109.01 15.9834L108.703 15.467L108.944 14.9505L109.174 14.6794L109.59 15.17L109.272 15.5445L109.601 15.9318H110.104L110.454 15.7769L110.936 15.5186L111.374 15.3896L111.483 14.9764L111.352 14.5632L111.111 14.5116L110.367 14.1243L109.82 14.2276L109.688 13.8662H109.25V13.5822L109.36 13.0915L109.754 12.8591L109.798 12.3169L110.148 12.0845H110.454L110.323 11.6456L110.454 11.1808L110.826 10.5351Z" fill="#CCCCCC"/>
<path fill-rule="evenodd" clip-rule="evenodd" d="M113.693 60.5921L113.475 60.8373V61.1493V61.4837L113.846 61.3277L114.042 61.5284L114.26 61.3056L114.347 60.8594L114.107 60.5029L113.693 60.5921Z" fill="#CCCCCC"/>
<path fill-rule="evenodd" clip-rule="evenodd" d="M118.976 58.0803L118.825 58.124L118.712 57.7535V57.4268L119.203 57.5792L119.449 57.7099L119.582 58.0586L119.846 58.3636L120.319 58.4725L120.432 58.821L120.961 59.2132H121.245L121.472 59.5835L121.661 60.1718L121.954 60.5093L122.512 61.1739L122.871 61.2828L123.362 61.5007L123.835 61.9801L124.478 62.3939L124.894 62.8078L125.442 63.1346L125.914 63.4614L126.217 63.7445L126.746 63.9843L126.671 64.2675L126.482 64.4852L126.123 64.6159H125.839L125.915 65.0734L125.839 65.4001V65.6615L126.16 66.228C126.16 66.228 126.463 66.6199 126.406 66.6854C126.349 66.7508 126.425 67.3608 126.425 67.3608L126.671 67.6441L127.049 68.0799L127.371 68.3196H127.862L128.146 68.6462H128.467L128.637 69.0601L129.053 69.082L129.308 68.7879L129.752 69.082L130.017 69.4742C130.017 69.4742 130.112 69.7356 130.017 69.7356C129.923 69.7356 129.412 69.4523 129.412 69.4523L129.195 69.7028H128.713L128.562 70.1495L128.656 70.5851L128.959 70.9336L129.185 71.5002L128.883 71.7834L128.637 71.4349L128.316 71.0643L127.749 70.4544V70.0405L127.371 69.6049L127.012 69.191L126.766 68.8207L126.463 68.1452L126.085 67.7313L125.688 67.4699L125.31 67.3392L124.988 66.555L124.289 65.444L123.722 64.7902L123.249 64.2458L122.833 63.5922L122.569 63.0912L121.85 62.7208L121.283 62.4377L120.943 62.394L120.489 61.675V61.3484L119.997 60.7819L119.733 60.2155L119.203 60.0194L119.336 59.5837V59.2569L119.771 59.4093L119.846 58.9736L119.591 58.6796V58.5162L119.341 58.2273L118.976 58.0803Z" fill="#CCCCCC"/>
<path fill-rule="evenodd" clip-rule="evenodd" d="M135.107 69.7979L135.183 70.256L135.221 70.6925L135.373 70.7579V70.4088L135.486 70.1251V69.7324L135.107 69.7979Z" fill="#CCCCCC"/>
<path fill-rule="evenodd" clip-rule="evenodd" d="M136.047 69.5537V69.7543L136.293 69.9106V69.5757L136.047 69.5537Z" fill="#CCCCCC"/>
<path fill-rule="evenodd" clip-rule="evenodd" d="M135.406 67.5639L135.843 67.6818L135.988 67.3046L135.77 66.5505L136.17 66.2912L136.097 65.7486L135.479 65.6309L135.297 66.2439L135.533 66.3968L135.333 66.8567L135.406 67.5639Z" fill="#CCCCCC"/>
<path fill-rule="evenodd" clip-rule="evenodd" d="M136.15 65.3848L136.056 65.4963L136.131 65.876L136.283 65.6081L136.15 65.3848Z" fill="#CCCCCC"/>
<path fill-rule="evenodd" clip-rule="evenodd" d="M136.872 63.4977L136.966 62.7915L136.834 62.3571L136.91 61.8953L137.165 61.5283L137.231 62.0311L137.175 62.5472L137.251 63.1447L137.118 63.5793L136.872 63.4977Z" fill="#CCCCCC"/>
<path fill-rule="evenodd" clip-rule="evenodd" d="M125.742 29.8971V30.3929L125.695 30.8437L125.978 31.024L126.167 31.2494L126.191 31.655L126.568 31.7902L126.474 31.3846L126.309 31.0691L126.474 30.5506V29.9196L126.025 29.7393L125.742 29.8971Z" fill="#CCCCCC"/>
<path fill-rule="evenodd" clip-rule="evenodd" d="M133.027 32.6033L132.678 32.7149L132.852 33.0497H133.451H134.049L134.423 32.7149L133.95 32.5811L133.476 32.7596L133.027 32.6033Z" fill="#CCCCCC"/>
<path fill-rule="evenodd" clip-rule="evenodd" d="M134.712 49.2227L134.6 49.5793L134.424 49.7676L134.628 49.9856L134.749 50.2531L134.712 50.6098L134.693 51.0655L134.888 51.2736L135.102 51.1448V50.6692L135.297 50.4613L135.139 50.0549L134.879 49.7774L134.897 49.4208L134.712 49.2227Z" fill="#CCCCCC"/>
<path fill-rule="evenodd" clip-rule="evenodd" d="M135.136 52.0762V52.4109L135.325 52.5225L135.458 52.3218L135.136 52.0762Z" fill="#CCCCCC"/>
<path fill-rule="evenodd" clip-rule="evenodd" d="M136.91 58.4771V59.0275V59.4776H137.175L137.1 59.0525V58.7772V58.4521L136.91 58.4771Z" fill="#CCCCCC"/>
<path fill-rule="evenodd" clip-rule="evenodd" d="M134.86 30.6197L134.424 30.8206L134.659 30.9768L134.978 30.7648L135.297 30.5527L134.86 30.6197Z" fill="#CCCCCC"/>
<path fill-rule="evenodd" clip-rule="evenodd" d="M109.554 4.18249L109.329 4.10156L109.134 4.29932L108.704 4.51534L108.354 4.8526L108.387 5.43281L108.237 5.57688L108.312 6.0445L108.592 6.44034L108.881 7.08809L109.329 7.178L109.633 6.88561L109.862 6.48537L109.61 6.22447L109.983 5.70268L109.918 5.13601V4.46134L109.554 4.18249Z" fill="#CCCCCC"/>
<path fill-rule="evenodd" clip-rule="evenodd" d="M0.873047 40.2211L1.21253 40.2994L1.50346 40.2139L1.61431 39.9932L1.8775 40.0359L2.12354 40.2887L2.13388 40.6341L2.33477 40.6982L2.37639 40.9688L2.68813 41.0258L2.75736 40.7694L2.58775 40.5949L2.73315 40.4455L2.82672 40.5416L3.12459 40.7979V41.1824L3.08297 41.5171L3.25612 41.8091L3.4294 41.9301L3.49169 42.3645L3.33935 42.6921L2.61196 43.0696L1.5104 41.7236L0.873047 40.2211Z" fill="#CCCCCC"/>
</svg>
