<svg width="29" height="26" viewBox="0 0 29 26" fill="none" xmlns="http://www.w3.org/2000/svg">
<path opacity="0.5" d="M10.788 12.134C11.432 12.134 12.0013 12.2553 12.496 12.498C13 12.7407 13.392 13.086 13.672 13.534C13.952 13.9727 14.092 14.486 14.092 15.074C14.092 15.6713 13.9473 16.1987 13.658 16.656C13.3687 17.1133 12.9673 17.468 12.454 17.72C11.95 17.9627 11.3807 18.084 10.746 18.084C9.44867 18.084 8.45467 17.6593 7.764 16.81C7.07333 15.9513 6.728 14.7427 6.728 13.184C6.728 12.092 6.91467 11.168 7.288 10.412C7.66133 9.656 8.184 9.08667 8.856 8.704C9.528 8.312 10.312 8.116 11.208 8.116C12.1787 8.116 12.9533 8.29333 13.532 8.648L13.126 9.46C12.6593 9.152 12.0247 8.998 11.222 8.998C10.1393 8.998 9.29 9.34333 8.674 10.034C8.058 10.7153 7.75 11.7093 7.75 13.016C7.75 13.2493 7.764 13.5153 7.792 13.814C8.03467 13.282 8.422 12.8713 8.954 12.582C9.486 12.2833 10.0973 12.134 10.788 12.134ZM10.704 17.23C11.4133 17.23 11.9873 17.0387 12.426 16.656C12.874 16.264 13.098 15.746 13.098 15.102C13.098 14.458 12.874 13.9447 12.426 13.562C11.9873 13.1793 11.39 12.988 10.634 12.988C10.1393 12.988 9.70067 13.0813 9.318 13.268C8.94467 13.4547 8.65067 13.7113 8.436 14.038C8.22133 14.3647 8.114 14.7287 8.114 15.13C8.114 15.5033 8.212 15.8487 8.408 16.166C8.61333 16.4833 8.912 16.74 9.304 16.936C9.696 17.132 10.1627 17.23 10.704 17.23ZM21.6696 13.52H19.0656V16.068H18.1836V13.52H15.5796V12.694H18.1836V10.132H19.0656V12.694H21.6696V13.52Z" fill="white"/>
<path opacity="0.4" d="M26.6806 10.4994C27.5738 12.0464 27.5738 13.9523 26.6806 15.4994L22.5674 22.6237C21.6742 24.1707 20.0236 25.1237 18.2373 25.1237H10.0108C8.22445 25.1237 6.57381 24.1707 5.68065 22.6237L1.5674 15.4994C0.674235 13.9523 0.674235 12.0464 1.5674 10.4994L5.68065 3.375C6.57381 1.82799 8.22445 0.875 10.0108 0.875L18.2373 0.875C20.0236 0.875 21.6742 1.82799 22.5674 3.375L26.6806 10.4994Z" stroke="white"/>
</svg>
