<svg width="56" height="56" viewBox="0 0 56 56" fill="none" xmlns="http://www.w3.org/2000/svg">
<path d="M28 56C43.464 56 56 43.464 56 28C56 12.536 43.464 0 28 0C12.536 0 0 12.536 0 28C0 43.464 12.536 56 28 56Z" fill="#BDC8D0"/>
<path d="M24.693 28L33.6176 19.1982C34.1275 18.6953 34.1275 17.88 33.6176 17.3772C33.1077 16.8743 32.281 16.8743 31.7711 17.3772L21 28L31.7711 38.6228C32.281 39.1257 33.1077 39.1257 33.6176 38.6228C34.1275 38.12 34.1275 37.3047 33.6176 36.8018L24.693 28Z" fill="white"/>
</svg>
