<svg width="32" height="32" viewBox="0 0 32 32" fill="none" xmlns="http://www.w3.org/2000/svg">
<path fill-rule="evenodd" clip-rule="evenodd" d="M11.5141 11.6938C11.5141 14.2459 13.5246 16.3077 15.9963 16.3077C18.4753 16.3077 20.4783 14.2459 20.4783 11.6938C20.4783 9.14173 18.4753 7.08008 15.9963 7.08008C13.5246 7.08008 11.5141 9.14173 11.5141 11.6938ZM15.9963 17.5291C14.9985 17.5291 14.0613 17.2647 13.2449 16.7981C12.8896 16.588 12.7613 16.4167 12.3228 16.4167C11.5822 16.4167 10.9775 17.0394 10.9775 17.8015C10.9775 18.2527 11.1891 18.65 11.5218 18.9064C11.5822 18.9454 11.6502 18.9922 11.7183 19.031C12.4211 19.4665 13.1998 19.8011 14.0236 20.0114L11.5444 22.5634C11.0228 23.1002 11.0228 23.9797 11.5444 24.5165C12.0658 25.0531 12.9125 25.0531 13.4415 24.5165L15.9964 21.8786L18.5584 24.5165C19.0799 25.0531 19.934 25.0531 20.4556 24.5165C20.9769 23.9796 20.9769 23.1002 20.4556 22.5634L17.9765 20.0114C18.8004 19.8011 19.5713 19.4665 20.2818 19.031C20.3497 18.9922 20.4177 18.9454 20.4783 18.9064C20.8033 18.65 21.015 18.2527 21.015 17.8015C21.015 17.0393 20.4177 16.4167 19.6771 16.4167C19.2386 16.4167 19.1101 16.588 18.7548 16.7981C17.9388 17.2648 17.0013 17.5291 15.9963 17.5291ZM15.9963 13.6234C14.9608 13.6234 14.1217 12.7599 14.1217 11.6939C14.1217 10.6279 14.9608 9.76423 15.9963 9.76423C17.039 9.76423 17.8783 10.6279 17.8783 11.6939C17.8783 12.7599 17.039 13.6234 15.9963 13.6234Z" fill="currentColor"/>
</svg>
