<svg width="20" height="20" viewBox="0 0 20 20" fill="none" xmlns="http://www.w3.org/2000/svg">
<path fill-rule="evenodd" clip-rule="evenodd" d="M18.3998 2.0188H15.9998V0H13.9998V2.0188H5.99983V0H3.99983V2.0188H1.63223C0.748627 2.0188 0.0322266 2.7352 0.0322266 3.6188V18.4C0.0322266 19.2836 0.748627 20 1.63223 20H18.3998C19.2834 20 19.9998 19.2836 19.9998 18.4V3.6188C19.9998 2.7352 19.2834 2.0188 18.3998 2.0188ZM17.9998 18H1.99983V8H17.9998V18ZM1.99983 6H17.9998V4H1.99983V6Z" fill="black"/>
<rect x="9.2002" y="10" width="2" height="2" fill="black"/>
<rect x="13.2002" y="10" width="2" height="2" fill="black"/>
<rect x="9.2002" y="14" width="2" height="2" fill="black"/>
<rect x="5.2002" y="14" width="2" height="2" fill="black"/>
</svg>
