<svg width="32" height="32" viewBox="0 0 32 32" fill="none" xmlns="http://www.w3.org/2000/svg">
<path d="M23.9862 11.7733H21.1734C20.9395 11.7733 20.7246 11.9041 20.614 12.1136C20.614 12.1136 19.4921 14.2143 19.1318 14.9219C18.1624 16.8253 17.5346 16.2277 17.5346 15.3443V12.2984C17.5346 11.7684 17.112 11.3387 16.5907 11.3387H14.4759C13.8903 11.2945 13.324 11.5617 12.9791 12.0449C12.9791 12.0449 14.053 11.8684 14.053 13.3396C14.053 13.7044 14.0715 14.7539 14.0883 15.6342C14.0948 15.8998 13.9377 16.1415 13.6947 16.2393C13.4516 16.3372 13.1744 16.2706 13.0002 16.0725C12.1345 14.8484 11.4175 13.5224 10.8647 12.1234C10.7677 11.9097 10.5572 11.773 10.3258 11.7733C9.71578 11.7733 8.49512 11.7733 7.77021 11.7733C7.62752 11.7723 7.49346 11.8427 7.41159 11.9615C7.32972 12.0804 7.3105 12.2325 7.36017 12.3685C8.13616 14.5328 11.4789 21.334 15.2943 21.334H16.9002C17.2506 21.334 17.5346 21.0452 17.5346 20.6889V19.703C17.5346 19.4502 17.6823 19.2215 17.9105 19.1212C18.1387 19.0208 18.4037 19.0679 18.5849 19.241L20.507 21.0773C20.6797 21.2422 20.9076 21.334 21.1445 21.334H23.6686C24.886 21.334 24.886 20.4751 24.2222 19.8104C23.7551 19.3427 22.0695 17.5362 22.0695 17.5362C21.7713 17.222 21.7428 16.7337 22.0025 16.3859C22.5474 15.6569 23.4385 14.4636 23.8165 13.9523C24.3331 13.2536 25.268 11.7733 23.9862 11.7733Z" fill="currentColor"/>
</svg>
