<svg width="16" height="12" viewBox="0 0 16 12" fill="none" xmlns="http://www.w3.org/2000/svg">
<path d="M1.14286 4.57143H12.1143L9.47429 1.93143C9.24914 1.70629 9.14286 1.43771 9.14286 1.14286C9.14286 0.580571 9.60743 0 10.2857 0C10.5891 0 10.8537 0.110286 11.0743 0.331429L15.6217 4.87886C15.8091 5.06629 16 5.29771 16 5.71429C16 6.13086 15.8406 6.33143 15.6309 6.54114L11.0743 11.0971C10.8537 11.3183 10.5891 11.4286 10.2857 11.4286C9.60686 11.4286 9.14286 10.848 9.14286 10.2857C9.14286 9.99086 9.24914 9.72229 9.47429 9.49714L12.1143 6.85714H1.14286C0.512 6.85714 0 6.34514 0 5.71429C0 5.08343 0.512 4.57143 1.14286 4.57143Z" fill="white"/>
</svg>
