<svg width="16" height="16" viewBox="0 0 16 16" fill="none" xmlns="http://www.w3.org/2000/svg">
<path fill-rule="evenodd" clip-rule="evenodd" d="M11.6757 1.12199C11.6084 0.573826 11.9982 0.074877 12.5464 0.00755897C13.0945 -0.0597591 13.5935 0.330046 13.6608 0.878212L13.9925 3.57958C14.061 4.13667 13.6576 4.64096 13.0991 4.69655L10.0991 4.99518C9.54949 5.04989 9.05962 4.64873 9.00492 4.09916C8.95021 3.54959 9.35138 3.05973 9.90095 3.00502L10.5154 2.94386C9.62762 2.33509 8.57699 2.0001 7.4744 2.0001C4.45543 2.0001 2 4.50553 2 7.60633C2 8.15861 1.55228 8.60633 1 8.60633C0.447715 8.60633 0 8.15861 0 7.60633C0 3.40989 3.34174 0.000102575 7.4744 0.000102575C9.01075 0.000102575 10.4748 0.475044 11.7016 1.3326L11.6757 1.12199ZM15 6.81643C14.4477 6.81643 14 7.26414 14 7.81643C14 11.2545 11.5373 14.0001 8.5567 14.0001C7.50183 14.0001 6.49243 13.6574 5.62869 13.0292L6.07127 12.9976C6.62215 12.9582 7.03682 12.4797 6.99746 11.9288C6.9581 11.378 6.47961 10.9633 5.92873 11.0026L2.92873 11.217C2.37344 11.2567 1.95745 11.7422 2.00341 12.297L2.23418 15.0827C2.27978 15.6331 2.76293 16.0423 3.31333 15.9967C3.86373 15.9511 4.27295 15.4679 4.22736 14.9175L4.18824 14.4454C5.4383 15.4426 6.95573 16.0001 8.5567 16.0001C12.6933 16.0001 16 12.3135 16 7.81643C16 7.26414 15.5523 6.81643 15 6.81643Z" fill="currentColor"/>
</svg>
