<svg width="26" height="26" viewBox="0 0 26 26" fill="none" xmlns="http://www.w3.org/2000/svg">
<g opacity="0.4">
<path fill-rule="evenodd" clip-rule="evenodd" d="M13 11.6954C14.1526 11.6954 15.087 10.761 15.087 9.60844C15.087 8.45585 14.1526 7.52148 13 7.52148C11.8474 7.52148 10.9131 8.45585 10.9131 9.60844C10.9131 10.761 11.8474 11.6954 13 11.6954Z" stroke="white" stroke-linecap="round" stroke-linejoin="round"/>
<path d="M8.30469 18.4789C8.30469 15.8855 10.407 13.7832 13.0003 13.7832C15.5937 13.7832 17.696 15.8855 17.696 18.4789" stroke="white" stroke-linecap="round" stroke-linejoin="round"/>
<path fill-rule="evenodd" clip-rule="evenodd" d="M13 25C19.6274 25 25 19.6274 25 13C25 6.37258 19.6274 1 13 1C6.37258 1 1 6.37258 1 13C1 19.6274 6.37258 25 13 25Z" stroke="white" stroke-linecap="round" stroke-linejoin="round"/>
</g>
</svg>
