<svg width="236" height="157" viewBox="0 0 236 157" fill="none" xmlns="http://www.w3.org/2000/svg">
<path d="M23.168 149L23.136 135.592L16.544 146.632H14.24L7.648 135.848V149H2.784V126.6H7.072L15.456 140.52L23.712 126.6H28L28.032 149H23.168ZM44.2845 149.384C41.9592 149.384 39.8578 148.883 37.9805 147.88C36.1245 146.877 34.6632 145.501 33.5965 143.752C32.5512 141.981 32.0285 139.997 32.0285 137.8C32.0285 135.603 32.5512 133.629 33.5965 131.88C34.6632 130.109 36.1245 128.723 37.9805 127.72C39.8578 126.717 41.9592 126.216 44.2845 126.216C46.6098 126.216 48.7005 126.717 50.5565 127.72C52.4125 128.723 53.8738 130.109 54.9405 131.88C56.0072 133.629 56.5405 135.603 56.5405 137.8C56.5405 139.997 56.0072 141.981 54.9405 143.752C53.8738 145.501 52.4125 146.877 50.5565 147.88C48.7005 148.883 46.6098 149.384 44.2845 149.384ZM44.2845 144.968C45.6072 144.968 46.8018 144.669 47.8685 144.072C48.9352 143.453 49.7672 142.6 50.3645 141.512C50.9832 140.424 51.2925 139.187 51.2925 137.8C51.2925 136.413 50.9832 135.176 50.3645 134.088C49.7672 133 48.9352 132.157 47.8685 131.56C46.8018 130.941 45.6072 130.632 44.2845 130.632C42.9618 130.632 41.7672 130.941 40.7005 131.56C39.6338 132.157 38.7912 133 38.1725 134.088C37.5752 135.176 37.2765 136.413 37.2765 137.8C37.2765 139.187 37.5752 140.424 38.1725 141.512C38.7912 142.6 39.6338 143.453 40.7005 144.072C41.7672 144.669 42.9618 144.968 44.2845 144.968ZM77.6095 126.6V149H72.4895V143.048H67.7535L63.7855 149H58.3135L62.9855 142.248C61.4708 141.629 60.3082 140.701 59.4975 139.464C58.6868 138.205 58.2815 136.701 58.2815 134.952C58.2815 133.224 58.6762 131.741 59.4655 130.504C60.2548 129.245 61.3748 128.285 62.8255 127.624C64.2762 126.941 65.9828 126.6 67.9455 126.6H77.6095ZM68.0735 130.824C66.6015 130.824 65.4708 131.165 64.6815 131.848C63.9135 132.531 63.5295 133.544 63.5295 134.888C63.5295 136.189 63.9028 137.192 64.6495 137.896C65.3962 138.6 66.4948 138.952 67.9455 138.952H72.4895V130.824H68.0735Z" fill="#151F6D"/>
<path d="M101.98 126.6C103.964 126.6 105.681 126.931 107.132 127.592C108.604 128.253 109.735 129.192 110.524 130.408C111.313 131.624 111.708 133.064 111.708 134.728C111.708 136.371 111.313 137.811 110.524 139.048C109.735 140.264 108.604 141.203 107.132 141.864C105.681 142.504 103.964 142.824 101.98 142.824H97.468V149H92.284V126.6H101.98ZM101.692 138.6C103.249 138.6 104.433 138.269 105.244 137.608C106.055 136.925 106.46 135.965 106.46 134.728C106.46 133.469 106.055 132.509 105.244 131.848C104.433 131.165 103.249 130.824 101.692 130.824H97.468V138.6H101.692ZM126.128 149.384C123.803 149.384 121.702 148.883 119.824 147.88C117.968 146.877 116.507 145.501 115.44 143.752C114.395 141.981 113.872 139.997 113.872 137.8C113.872 135.603 114.395 133.629 115.44 131.88C116.507 130.109 117.968 128.723 119.824 127.72C121.702 126.717 123.803 126.216 126.128 126.216C128.454 126.216 130.544 126.717 132.4 127.72C134.256 128.723 135.718 130.109 136.784 131.88C137.851 133.629 138.384 135.603 138.384 137.8C138.384 139.997 137.851 141.981 136.784 143.752C135.718 145.501 134.256 146.877 132.4 147.88C130.544 148.883 128.454 149.384 126.128 149.384ZM126.128 144.968C127.451 144.968 128.646 144.669 129.712 144.072C130.779 143.453 131.611 142.6 132.208 141.512C132.827 140.424 133.136 139.187 133.136 137.8C133.136 136.413 132.827 135.176 132.208 134.088C131.611 133 130.779 132.157 129.712 131.56C128.646 130.941 127.451 130.632 126.128 130.632C124.806 130.632 123.611 130.941 122.544 131.56C121.478 132.157 120.635 133 120.016 134.088C119.419 135.176 119.12 136.413 119.12 137.8C119.12 139.187 119.419 140.424 120.016 141.512C120.635 142.6 121.478 143.453 122.544 144.072C123.611 144.669 124.806 144.968 126.128 144.968ZM152.97 149.384C150.687 149.384 148.618 148.893 146.762 147.912C144.927 146.909 143.476 145.533 142.41 143.784C141.364 142.013 140.842 140.019 140.842 137.8C140.842 135.581 141.364 133.597 142.41 131.848C143.476 130.077 144.927 128.701 146.762 127.72C148.618 126.717 150.698 126.216 153.002 126.216C154.943 126.216 156.692 126.557 158.25 127.24C159.828 127.923 161.151 128.904 162.218 130.184L158.89 133.256C157.375 131.507 155.498 130.632 153.258 130.632C151.871 130.632 150.634 130.941 149.546 131.56C148.458 132.157 147.604 133 146.986 134.088C146.388 135.176 146.09 136.413 146.09 137.8C146.09 139.187 146.388 140.424 146.986 141.512C147.604 142.6 148.458 143.453 149.546 144.072C150.634 144.669 151.871 144.968 153.258 144.968C155.498 144.968 157.375 144.083 158.89 142.312L162.218 145.384C161.151 146.685 159.828 147.677 158.25 148.36C156.671 149.043 154.911 149.384 152.97 149.384ZM175.72 149.384C173.437 149.384 171.368 148.893 169.512 147.912C167.677 146.909 166.226 145.533 165.16 143.784C164.114 142.013 163.592 140.019 163.592 137.8C163.592 135.581 164.114 133.597 165.16 131.848C166.226 130.077 167.677 128.701 169.512 127.72C171.368 126.717 173.448 126.216 175.752 126.216C177.693 126.216 179.442 126.557 181 127.24C182.578 127.923 183.901 128.904 184.968 130.184L181.64 133.256C180.125 131.507 178.248 130.632 176.008 130.632C174.621 130.632 173.384 130.941 172.296 131.56C171.208 132.157 170.354 133 169.736 134.088C169.138 135.176 168.84 136.413 168.84 137.8C168.84 139.187 169.138 140.424 169.736 141.512C170.354 142.6 171.208 143.453 172.296 144.072C173.384 144.669 174.621 144.968 176.008 144.968C178.248 144.968 180.125 144.083 181.64 142.312L184.968 145.384C183.901 146.685 182.578 147.677 181 148.36C179.421 149.043 177.661 149.384 175.72 149.384ZM188.347 126.6H193.499V141.192L204.187 126.6H209.051V149H203.931V134.44L193.243 149H188.347V126.6ZM232.516 126.6V149H227.396V143.048H222.66L218.692 149H213.22L217.892 142.248C216.377 141.629 215.214 140.701 214.404 139.464C213.593 138.205 213.188 136.701 213.188 134.952C213.188 133.224 213.582 131.741 214.372 130.504C215.161 129.245 216.281 128.285 217.732 127.624C219.182 126.941 220.889 126.6 222.852 126.6H232.516ZM222.98 130.824C221.508 130.824 220.377 131.165 219.588 131.848C218.82 132.531 218.436 133.544 218.436 134.888C218.436 136.189 218.809 137.192 219.556 137.896C220.302 138.6 221.401 138.952 222.852 138.952H227.396V130.824H222.98Z" fill="#E00640"/>
<path fill-rule="evenodd" clip-rule="evenodd" d="M106.048 20.3183L106 20.1395L106.36 20.296L106.54 20.1283L106.792 19.8937L107.164 19.5474L107.392 19.8043H107.512L107.812 19.5251L108.088 19.2234L108.616 19L109 19.2682L108.784 19.8268V20.1395L108.532 20.3742L108.136 20.5418L107.704 20.6983H107.272L106.948 21L106.432 20.8323L106.168 20.4748L106.048 20.3183Z" fill="#CCCCCC"/>
<path fill-rule="evenodd" clip-rule="evenodd" d="M104.385 20.0874H103.728L103.513 20.3169L103.174 20.5682L102.928 20.3059L102.333 20.5026L102.374 20.8962L102.528 21.0602L102.754 21.3005L102.908 21.4644L102.682 21.6612L102.374 21.3771L102.21 21.5518L101.985 21.3114L101.472 21.4208L101.246 21.2897L101.144 21.5738L101.308 21.7485L101 21.9235V22.3388L101.246 22.6011L101.185 22.9071H101.41L101.698 23.2132L101.615 23.563L101.985 23.7597L102.477 23.7815L102.682 24H103.051L103.482 23.8689V23.5192L103.215 23.2569L103.359 23.1038L103.574 23.3333L103.954 22.6012L104.313 22.2187L104.467 22.3825L104.795 22.0328L104.897 21.7049L104.528 21.5738L104.282 21.8361L103.975 21.5956L103.605 21.3552L103.236 21.071L103.359 20.7869L103.554 20.5792L103.708 21.1365L103.944 21.388L104.344 21.4644L104.59 21.3552H104.795L105 21.1366L104.897 20.6775H104.569L104.651 20.2841V20L104.385 20.0874Z" fill="#CCCCCC"/>
<path fill-rule="evenodd" clip-rule="evenodd" d="M105.322 24.0246L105 24.2222L105.25 24.716L105.661 25L106 24.5431V24.1729L105.75 24L105.322 24.0246Z" fill="#CCCCCC"/>
<path fill-rule="evenodd" clip-rule="evenodd" d="M106.241 24.5542L106 24.8314L106.136 25.2048L106.367 25.4699L106.22 25.8554L106.346 26L106.534 25.5422L107.016 25.4216L107.435 25.2288L108 24.8433L107.707 24.217H107.309L106.744 24L106.482 24.2772L106.241 24.5542Z" fill="#CCCCCC"/>
<path fill-rule="evenodd" clip-rule="evenodd" d="M100.833 24.294L100.533 24.0294L100 24L100.35 24.3088L100.567 25H101V24.6177L100.833 24.294Z" fill="#CCCCCC"/>
<path fill-rule="evenodd" clip-rule="evenodd" d="M89.3813 33.0445L89 33.4556V33.7333H89.3194L89.4226 34L89.6906 33.8667L90 33.5334V33H89.6082L89.3813 33.0445Z" fill="#CCCCCC"/>
<path fill-rule="evenodd" clip-rule="evenodd" d="M103.977 16.7998L103.841 17.0509L103.989 17.1993L104.159 17.0509L103.977 16.7998Z" fill="#CCCCCC"/>
<path fill-rule="evenodd" clip-rule="evenodd" d="M102.807 26.852L102.193 26.7607L102 26.8748L102.355 26.9889L102.807 27.24L103 27.0574L102.807 26.852Z" fill="#CCCCCC"/>
<path fill-rule="evenodd" clip-rule="evenodd" d="M84.9437 26.8633L84.8525 27.0003L85.0574 27.1372L85.1483 26.9774L84.9437 26.8633Z" fill="#CCCCCC"/>
<path fill-rule="evenodd" clip-rule="evenodd" d="M84.2858 24.7715L84 24.9084L84.4001 25.0682L84.6857 25.2278L85 25.1595L84.9142 24.8628L84.5999 24.9311L84.2858 24.7715Z" fill="#CCCCCC"/>
<path fill-rule="evenodd" clip-rule="evenodd" d="M81.3141 24.325V23.975L81.3389 23.3499L81.1654 23L80.9174 23.025L80.5704 23.4499L80.5952 23.825L80.4463 24.075L80.5455 24.7501L80.248 25.0501L80.2728 25.725L80.1241 26.3L80 26.875L80.2233 27L80.6944 26.625L80.9671 26.4501L81.5869 26.1251L82.0827 26.075L82.7027 25.6L83 25.025L82.8017 24.525L82.5786 24.1499L82.2811 24.275L81.9836 23.7499L81.7603 23.525L81.4875 23.8499L81.3141 24.325Z" fill="#CCCCCC"/>
<path fill-rule="evenodd" clip-rule="evenodd" d="M79.2867 21.3222L79.0979 21.5437L78.93 21.8457L78.7832 21.7853L78.888 21.4027V21L78.4266 21.141C78.4266 21.141 78.1539 21.2014 78.0909 21.2215C78.0279 21.2416 77.7132 21.3424 77.7132 21.3424L77.5663 21.6444L77.4824 21.9062L77.2936 22.1277L77.3566 22.3894L77 22.6511L77.1678 22.7921L77.4194 22.7115L77.6293 22.9933L77.6502 23.2551L77.839 23.4766L78.3216 23.5168L78.3845 23.7785L78.7202 23.5772L78.888 23.8389L79.3495 24L79.7901 23.7986L80 23.5166L79.8322 23.1945L79.5593 22.832L79.7692 22.691L79.8531 22.3488L79.7481 21.9662L79.7901 21.5836L79.2867 21.3222Z" fill="#CCCCCC"/>
<path fill-rule="evenodd" clip-rule="evenodd" d="M78.9584 28L78.5416 28.4999L78 28.625L78.5 29L79 28.4999L78.9584 28Z" fill="#CCCCCC"/>
<path fill-rule="evenodd" clip-rule="evenodd" d="M74.9321 28.8398L74.8184 29.0223L74.9775 29.1593L75.1824 28.8625L74.9321 28.8398Z" fill="#CCCCCC"/>
<path fill-rule="evenodd" clip-rule="evenodd" d="M73.1139 34.7812L72.8408 34.9183C72.8408 34.9183 72.9545 35.2607 72.9545 35.215C72.9545 35.1692 73.1593 35.1237 73.1593 35.1237L73.1139 34.7812Z" fill="#CCCCCC"/>
<path fill-rule="evenodd" clip-rule="evenodd" d="M71.0687 32.7607L70.8184 32.966L70.9548 33.24L71.1823 33.1943L71.0687 32.7607Z" fill="#CCCCCC"/>
<path fill-rule="evenodd" clip-rule="evenodd" d="M71.0739 35.7715L71 36.0225H71.6295L71.963 36.2278L72 35.8854L71.6295 35.8398L71.0739 35.7715Z" fill="#CCCCCC"/>
<path fill-rule="evenodd" clip-rule="evenodd" d="M69.8973 21.7949L69.7607 21.932L69.9201 22.0233L70.1704 22.2059L70.2387 21.9775L69.8973 21.7949Z" fill="#CCCCCC"/>
<path fill-rule="evenodd" clip-rule="evenodd" d="M68.2801 38.0909L68 38.3636L68.16 38.7272L68.4401 39L68.84 38.6667L69 38.2728L68.64 38L68.2801 38.0909Z" fill="#CCCCCC"/>
<path fill-rule="evenodd" clip-rule="evenodd" d="M67.4894 38.0938L67.2553 38.4376L67 38.75L67.2341 39L67.4255 38.75H67.7234L68 38.375L67.7447 38L67.4894 38.0938Z" fill="#CCCCCC"/>
<path fill-rule="evenodd" clip-rule="evenodd" d="M66.2727 35.8057L66 35.9883L66.1817 36.1937L66.5454 36.0111L67 36.1024L66.8788 35.897L66.2727 35.8057Z" fill="#CCCCCC"/>
<path fill-rule="evenodd" clip-rule="evenodd" d="M64.9204 36.7715L64.8066 37.0682L64.9887 37.228L65.1934 36.9769L64.9204 36.7715Z" fill="#CCCCCC"/>
<path fill-rule="evenodd" clip-rule="evenodd" d="M63.3192 36.0697L63.0851 36.2557L63.1702 36.4652L63 36.7209L63.0425 36.8837L63.4255 37L63.7872 36.8139L64 36.8373V36.6046L63.6596 36.5116L63.8298 36.3023L63.6382 36L63.4043 36.093L63.3192 36.0697Z" fill="#CCCCCC"/>
<path fill-rule="evenodd" clip-rule="evenodd" d="M52.5833 39L52.25 39.2051L52 39.3077L52.0625 39.9744L52.1041 40.3334L52.3333 40.4102L52.4167 40.9486L52.8543 41L53 40.5642L52.7916 40.1283L52.8125 39.6411L52.5833 39Z" fill="#CCCCCC"/>
<path fill-rule="evenodd" clip-rule="evenodd" d="M45.1539 37L44.5898 37.179L44.2563 37.6867L44 38.0747L44.1794 38.6418L44.5898 38.821L44.9743 39L45.3334 38.7016L45.7693 38.7912L46 38.1643L45.6411 37.6269L45.6153 37.179L45.1539 37Z" fill="#CCCCCC"/>
<path fill-rule="evenodd" clip-rule="evenodd" d="M29.9094 37.8291L29.8184 37.966L29.9777 38.1715L30.1824 37.966L29.9094 37.8291Z" fill="#CCCCCC"/>
<path fill-rule="evenodd" clip-rule="evenodd" d="M51.0392 37.5091H50.7899L50.518 37.1074L50.3595 37.1966L49.8837 36.7504L49.521 36.3711L49.6571 35.9694L50.0196 35.8579L50.1555 35.6349L49.9062 35.4341L49.929 34.8985L49.7703 34.8539L49.6117 34.4522L49.2719 34.43L49 34.0507L49.0906 33.5598L49.453 33.069L49.8837 33.1135L50.0196 33.2697L50.1781 33.3367L50.2461 33.0465L50.7673 32.8905L51.1752 32.4665L50.9033 32.1765L51.2658 31.9533L51.6736 32.1095L51.787 31.7748V31.4401H52.3081L52.5573 31.6856L52.8179 31.429L52.8745 31.1948L53.4411 31.0831L53.2484 30.8935L52.7612 30.7261V30.5478L53.3278 30.3914L53.9169 30.2353L54.2114 29.9453H54.5965V29.6776L55.1405 29.6551L54.846 29.3651L55.3218 29.3429L55.503 29.5213L55.4803 29.0751L55.7069 28.8519L55.4576 28.5619L55.6163 28.3164L55.8882 28.5842H56.2281V28.2495L56.7265 28.428L56.9758 28.1602L57.2251 27.8702H57.5424L58.086 27.6249L58.4713 27.7587H59.0378L59.4117 27.3905L59.8535 27.424L60.0573 27.7141H60.5331L60.7598 27.9372L61.1677 27.8255H61.7341L62.1081 27.4574L62.5499 27.2232L63.1389 27H63.6827L64 27.4909V28.0264L63.5242 28.4504L63.0937 28.8519L62.5272 28.8966L61.8474 29.2089L61.2356 28.9859L60.9411 29.2759L60.2386 29.2536H59.3323L58.9924 29.6106H58.2901L57.7689 29.9006L57.9275 30.2576L57.5648 30.3914L57.1344 30.3469H56.7493L56.7039 30.5923L56.2961 30.4806V30.8823L55.8882 31.1724L55.5483 31.4178V31.0386L55.2764 31.284L55.3444 31.7303H55.0725L54.8798 31.5406V31.7525V32.0872L54.6816 31.8919L54.4268 32.1429L54.2114 32.355H53.9167L53.6902 32.645L53.3957 33.1358H52.9199L52.5346 33.4482V33.8722L52.1494 34.0284L52.0134 34.4747L51.6962 34.7869V35.3449L51.5376 35.7464L51.7415 36.3264L51.5602 36.9066L51.8095 37.2859L51.9228 37.6876L51.7869 37.8215L51.4017 38V37.7098L51.0392 37.5091Z" fill="#CCCCCC"/>
<path fill-rule="evenodd" clip-rule="evenodd" d="M71.5237 18.8252L71.2062 18.8629L71 18.9855L71.3175 19.1741L71.746 19.0893L72 18.9384L71.5237 18.8252Z" fill="#CCCCCC"/>
<path fill-rule="evenodd" clip-rule="evenodd" d="M76.3 18.7874L76 18.9572L76.2333 19.0892L76.4835 19.2306L77 18.9572V18.7686L76.3 18.7874Z" fill="#CCCCCC"/>
<path fill-rule="evenodd" clip-rule="evenodd" d="M77.9385 19L77.8923 19.3509L77.6154 19.4912L77.2 19.807V20.2456L77.3692 20.4386L77.1462 20.6929L77 21.0175L77.2 21.3333L77.2769 21.6491L77.6308 22L77.9538 21.6491H78.1692L78.4923 21.4386L78.8769 21.2982L78.7692 20.8772V20.3509L79 20.1228L78.8078 19.9034L78.4154 19.4561L78.2769 19.1053L77.9385 19Z" fill="#CCCCCC"/>
<path fill-rule="evenodd" clip-rule="evenodd" d="M76.3091 22.0392L76 22L76.0545 22.4314V22.7059L76.4545 22.8235L76.6182 23L76.8637 22.7352L77 22.3529L76.7636 22.1569L76.3091 22.0392Z" fill="#CCCCCC"/>
<path fill-rule="evenodd" clip-rule="evenodd" d="M71.9102 30.8682L71.7881 30.9907L71.9478 31.1323L72.2111 31.0568L71.9102 30.8682Z" fill="#CCCCCC"/>
<path fill-rule="evenodd" clip-rule="evenodd" d="M65.981 15.7734L65.793 15.83L65.9434 16.0375V16.2262H66.2067V15.8678L65.981 15.7734Z" fill="#CCCCCC"/>
<path fill-rule="evenodd" clip-rule="evenodd" d="M65.7092 17.04L65.6099 17.26L65.2411 17.36L65 17.54L65.1844 17.66L65.0993 17.94L65.2553 18H65.5673L65.8156 17.6499L66 17.3899L65.9361 17L65.7092 17.04Z" fill="#CCCCCC"/>
<path fill-rule="evenodd" clip-rule="evenodd" d="M64.1863 16.9153L64 17.0189L64.3558 17.2171L65 17.085V16.7832H64.6271L64.1863 16.9153Z" fill="#CCCCCC"/>
<path fill-rule="evenodd" clip-rule="evenodd" d="M64.4719 17.2661L64.2676 17L64.1127 17.1774L64 17.4355V17.7581L64.2394 17.8065L64.2958 18L64.5915 17.9194L64.7817 17.7015L64.9226 17.5403L65 17.2742H64.7887L64.4719 17.2661Z" fill="#CCCCCC"/>
<path fill-rule="evenodd" clip-rule="evenodd" d="M62.9483 18.8203L62.8262 18.9429V19.1787H63.08L63.174 18.8769L62.9483 18.8203Z" fill="#CCCCCC"/>
<path fill-rule="evenodd" clip-rule="evenodd" d="M62 17.3187L61.8293 17.1649H61.2927V17.4945L61 17.7583L61.1707 17.9121L61.7561 17.8022L61.9756 18L62.4878 17.8901L62.6341 17.5825L63 17.6923L62.8049 17.2968L62.4757 17L62 17.3187Z" fill="#CCCCCC"/>
<path fill-rule="evenodd" clip-rule="evenodd" d="M63.9204 14.7881L63.8076 15.0145L64.0051 15.2125L64.1932 15.0238L63.9204 14.7881Z" fill="#CCCCCC"/>
<path fill-rule="evenodd" clip-rule="evenodd" d="M63.5 15H63V15.3673L63.5312 15.7143V16L64 15.8571L63.7188 15.4694L63.5 15Z" fill="#CCCCCC"/>
<path fill-rule="evenodd" clip-rule="evenodd" d="M62.1595 15.8633H61.8963L61.8398 15.9199L62.0562 16.1367L62.1595 15.8633Z" fill="#CCCCCC"/>
<path fill-rule="evenodd" clip-rule="evenodd" d="M61.9862 16.8115L61.8076 16.9907L61.9862 17.1888L62.193 17.1699L61.9862 16.8115Z" fill="#CCCCCC"/>
<path fill-rule="evenodd" clip-rule="evenodd" d="M62.8682 15.8961V16.1414H63.1314L63.075 15.8584L62.8682 15.8961Z" fill="#CCCCCC"/>
<path fill-rule="evenodd" clip-rule="evenodd" d="M62.8916 15.8916V16.1086H63.1078L62.9385 15.9388L62.8916 15.8916Z" fill="#CCCCCC"/>
<path fill-rule="evenodd" clip-rule="evenodd" d="M62.8682 16.9905L62.9622 17.0848L63.1314 16.915L62.8682 16.9905Z" fill="#CCCCCC"/>
<path fill-rule="evenodd" clip-rule="evenodd" d="M62.8867 15.8584V16.1225L63.1124 16.1414V15.8584H62.8867Z" fill="#CCCCCC"/>
<path fill-rule="evenodd" clip-rule="evenodd" d="M62.873 14.877L63.0047 15.1222L63.127 14.9995L63.0047 14.877H62.873Z" fill="#CCCCCC"/>
<path fill-rule="evenodd" clip-rule="evenodd" d="M60.2726 16.4324L60 16.635L60.4728 16.9864L61 17V16.3514L60.6363 16L60.2726 16.4324Z" fill="#CCCCCC"/>
<path fill-rule="evenodd" clip-rule="evenodd" d="M60.8594 16.8682L60.9534 17.1323H61.1414V16.9059L60.8594 16.8682Z" fill="#CCCCCC"/>
<path fill-rule="evenodd" clip-rule="evenodd" d="M60.4656 15.0921L60.313 15.2237V15.3684L60.1375 15.5197L59.8244 15.3289L59.5649 15.4474V15.6053L59.2443 15.4079L59 15.4868L59.0763 15.8026L59.3053 15.7368V15.9474L59.5496 16L59.7711 15.8092L60.084 15.6974L60.3435 15.7632H60.7252L61 15.5263L60.7405 15.3026L60.9161 15.1513L60.6183 15L60.4656 15.0921Z" fill="#CCCCCC"/>
<path fill-rule="evenodd" clip-rule="evenodd" d="M58.5867 14.3023H58.2933L58.12 14L58 14.4186L58.1534 14.686L58.2133 15L58.56 14.7907L58.68 15L58.9067 14.8372L59 15V14.6512L58.8467 14.3836H58.7067L58.5867 14.3023Z" fill="#CCCCCC"/>
<path fill-rule="evenodd" clip-rule="evenodd" d="M58.9626 16.873H58.8027L58.8591 17.1089L59.1976 17.1278L58.9626 16.873Z" fill="#CCCCCC"/>
<path fill-rule="evenodd" clip-rule="evenodd" d="M59.9437 16.8115L59.7744 16.9813L59.906 17.1133L60.2257 17.1888L60.0189 16.9813L59.9437 16.8115Z" fill="#CCCCCC"/>
<path fill-rule="evenodd" clip-rule="evenodd" d="M60.8115 14.877V15.1222H60.9996L61.1876 14.9335L60.8115 14.877Z" fill="#CCCCCC"/>
<path fill-rule="evenodd" clip-rule="evenodd" d="M126.966 10.2733L127.167 9.54314L127.932 8.80029L128.784 7.94412L129.173 7.55388L129.925 7.22649L130.464 6.9118L130.966 6.40825L131.48 5.89201L132.107 5.64016L132.558 4.98553L133.411 4.73368L133.862 4.25522L134.414 4.00337L134.765 3.80198L135.166 4.20491L135.743 4.0286L136.257 4.41883L136.596 4.07891L137.198 3.75152V3.44936L136.596 3.57521L135.894 3.5249L135.442 3.39905L135.593 2.94581L136.069 2.61842L135.668 2.51765V2.29103L135.944 2.31641L135.994 1.86318L136.245 1.51071L136.596 1.15824L137.198 0.931621H137.373L137.825 0.302073C137.825 0.302073 138.251 0.176224 138.402 0.0251445C138.552 -0.125935 138.402 0.453152 138.402 0.453152L138.728 0.730081L138.978 0.98193L138.702 1.56102C138.702 1.56102 139.079 1.56102 139.229 1.40994C139.38 1.25886 139.229 1.7121 139.229 1.7121V2.24087L138.652 2.61857L139.104 2.69411L139.38 2.41718L139.969 2.6438V2.37941L140.433 2.84519L140.759 3.34889L141.035 3.27335L141.311 2.92088V3.24827L141.486 3.6512H140.959V3.85259L141.386 3.97844L141.16 4.63307L140.583 4.68337L140.057 5.26246L139.781 5.86678L139.254 6.04309L138.878 5.89201H138.402L137.975 6.52156L138.163 6.89926V7.54134L137.75 7.95681L137.423 7.70496L137.097 7.95681H136.621L136.345 7.73019L136.094 7.57911L136.057 7.81827L136.245 8.00712L136.019 8.10789L135.869 8.25897L136.307 8.33451V8.67444L136.646 9.01437L137.198 8.86329H137.574L137.599 9.34176L137.825 9.11514L138.213 9.50553L138.627 9.92099L138.828 10.6512L138.928 11.2302L138.527 11.8849H138.151L137.624 12.1115L137.449 12.5143L137.875 12.338H138.151L137.75 12.8166L138 13.0683L138.326 12.9424V12.464L138.627 12.2373L139.166 12.2248L139.48 11.9101L139.63 11.6583L140.007 11.6835L140.307 11.6332L140.859 11.6079V11.9604H141.311L141.436 11.7213H141.875L142.138 11.4569L142.464 11.4066L142.74 11.6332L143.141 11.331L143.329 11.7717L143.693 12.1369V12.6657L143.191 12.867L142.865 13.5718H142.339L142.188 13.7984L142.778 14.1887L142.589 14.3775L143.016 15.0323L143.191 15.838V16.7445L143.342 17.4496L143.593 18.0539L143.718 18.8596L143.969 19.6402L144.445 20.0682V20.7984L144.696 21.8057L145.122 22.2841L145.398 22.561L144.972 22.9387L144.521 22.7121L143.894 22.9135L143.568 23.6689L143.041 24.4243L143.317 24.7014L143.116 25.4065V25.7842L143.543 26.4388V26.8417L143.066 26.6151L142.715 26.2625L142.414 26.2877L142.69 27.0179V27.4964L143.154 27.7104L142.69 28.1762H142.389V28.8308L142.113 29.1078L142.489 29.7373L142.79 30.0395L143.141 30.3919L143.618 30.8704L143.718 31.5755L143.793 32.1295L144.483 32.4945L144.897 32.91H145.599L145.411 32.482V32.2679L145.649 32.0287L145.825 31.651L146.477 32.3057L146.602 32.8848L147.254 33.338L147.9 33.4827L148.157 33.2247H148.571L149.06 33.7157L148.859 34.1942L148.357 34.3452L148.508 34.9496L149.035 35.8308L149.498 35.9441L149.862 36.3093L150.715 36.2085L151.216 36.6114L151.392 37.0647L151.091 37.2661L150.665 37.543L150.414 38.097L150.589 39.1042L151.091 39.8849L151.53 40.0485L151.743 40.2626L152.47 40.4389V40.741L151.918 40.8166V41.2698L151.718 41.723L151.969 42.6295L152.395 42.8058L153.047 43.4605L153.523 43.9137L153.624 44.7194L153.875 45.777L154 46.4568V46.9604L153.724 46.5827H152.997L152.533 46.3435L152.169 45.9784H151.668L151.216 45.5251L150.339 45.1222L149.511 44.7697L148.558 44.2662L148.282 43.8885L147.831 43.5863L147.329 43.4855L146.251 43.1581L145.549 42.7805L144.872 42.3272L144.546 41.7229L143.818 40.9927L143.317 40.464L143.317 39.9352L142.966 39.5827L142.89 39.0036L142.464 38.3993L142 38.2985V38.0845L142.213 37.8704L142.389 37.4927L142.151 37.0772L142.376 36.8506L142.564 36.6617L142.314 35.9063L142.188 35.1006L141.887 34.1689L141.411 33.5394L141.21 32.7084L140.985 31.9278L140.734 31.2983L140.433 30.3666L140.132 30.1147L140.107 29.6112L140.282 29.0068V28.6544V28.2264L139.981 27.9242L139.655 27.2947H139.329L139.016 27.1814L138.728 26.8917L138.376 26.4385L137.85 26.1111V25.532L138.326 25.0789L138.163 24.9152L137.775 25.3054L137.223 25.6076V26.1363L137.072 26.5393L137.373 26.8162L137.812 27.2569L138.226 27.6724H138.728L138.677 27.9998L138.452 27.9745L138.213 28.3145L138.527 28.6292V29.4349L138.778 30.0392L138.828 30.996L138.652 31.5755L138.452 31.072L138 30.8453L138 31.4749L137.624 31.0972L137.373 30.8453L137.173 30.4173L136.471 29.7627L136.671 30.3167L136.471 30.921H135.793V31.324L135.568 32.1549L135.292 32.4823L135.317 33.5901L135.768 33.8923L135.693 34.5974L136.145 35.3025V36.0579L136.282 37.0524L136.696 37.4679V37.9211L137.047 38.2736L137.373 38.2233L137.662 37.9589L137.875 37.7448H138.251L138.226 38.2233L137.825 38.3491V39.029L137.072 39.1549L137.248 40.0361L137.173 40.4138L136.696 40.615V41.1438L136.521 41.6223C136.521 41.6223 135.931 41.7608 136.044 41.6475C136.157 41.5342 135.818 41.4209 135.818 41.4209V41.0935L135.919 40.7661L136.333 40.6276L136.145 40.4387L135.693 40.615L135.217 40.6906V40.9172L134.514 41.2446L134.163 41.6726L133.762 41.7734L133.436 42.1007L133.311 42.4784L133.436 42.9569L133.712 43.2338L133.386 43.5863L132.859 43.3849L133.022 43.9262L132.634 44.3165L132.282 44.6439H131.982L131.681 44.9208L131.881 45.2482L132.032 45.3993L131.605 45.6762H131.029L130.464 46.2427L130.101 46.6079L129.699 47.2878L129.273 47.7158L128.847 48.5719L128.772 49.4029L129.173 50.2086L128.797 50.5863L128.671 51.392L128.897 51.9711L129.248 52.3235L128.947 52.8271V53.5069V54.4134L128.797 55.043V55.8991L129.048 56.1761V56.7804V57.4602L128.822 58.3164V59.0215L128.446 59.651V60.2804L128.245 60.8344L128.471 61.3443H128.853L129.148 61.0485H129.561L129.888 60.721L130.251 60.356L130.502 60.6078L130.803 60.7589V61.0863L131.041 61.5268L131.342 61.829L131.606 61.5646V61.1618L131.254 61.0107V60.633L131.53 60.3309V60.5826L131.831 60.8092L131.982 60.7589L132.132 60.91V61.3632V61.6906L132.634 61.4892V61.2375L132.909 60.8598L133.085 60.7087L133.361 60.9101L133.424 60.4947L133.185 60.2555L132.96 59.8273L132.684 59.3238L133.135 59.0721L133.411 58.795L133.963 58.6692H134.615L135.154 58.7322L135.392 58.9713C135.392 58.9713 135.969 58.8706 136.094 58.8706C136.22 58.8706 136.571 58.7193 136.571 58.7193L136.884 59.0342L136.646 59.2735L136.471 59.4496L136.32 59.7267H136.746H137.198L137.298 60.054L137.674 60.4317L138.138 60.3688L138.377 60.608L138.627 61.0864L138.702 62.0432L139.029 63.0505L139.543 63.7932L140.182 64.4353L140.433 64.6873L140.558 65.1151L141.06 65.6188L141.411 66.2231L141.536 66.5758L142 67.2934L142.389 67.6835V68.741L142.238 69.6475L142.514 70.554L142.489 71.4855L142.765 72.2159L142.966 73.0217L143.116 73.7517L143.267 74.7337V75.6907L143.116 76.1944V77.1764V78.385L142.966 79.2915L143.116 80.2231L143.066 81.4317V82.0109L142.564 82.8419L142.238 83.5468L141.862 84.252H141.536L140.909 84.5036L140.383 84.8057L140.019 84.6547V84.3147L139.831 84.1259L139.643 84.554V85.0197L139.43 84.8057L139.104 84.4785V84.7302L139.003 85.3596L139.104 85.7878L138.966 86.2788L138.753 86.4927V86.7447V87.1475L138.276 87.1224L138.075 86.9209L138.251 86.3416L138.552 85.7373V85.2339L138.289 84.642L137.75 84.1008L137.474 83.8237L137.248 83.2445L136.771 82.7662L136.32 82.6151L136.307 82.1241L136.621 81.8092L136.897 81.5325V81.0288L137.248 80.6761L137.649 80.4749L138.063 80.6133L138.427 80.2483L138.652 79.7951L138.251 79.1654L138.452 78.6366L138.201 78.0827L138.151 77.5035L137.8 77.0252L137.9 76.6224L137.624 76.1438L137.499 75.5899L136.997 75.0611L137.373 74.6834V74.1293L137.06 73.8147L136.696 73.4494L136.596 73.1222H136.17L135.568 73.4494L135.417 73.9531L135.016 74.6079L134.565 75.1868L134.765 75.8165L134.239 76.2444L133.712 76.5465L133.261 76.6976L133.135 77.1509H132.659L132.182 76.8741L131.831 76.7481V76.1688L131.43 75.8165L131.104 75.489L130.565 75.3506L130.276 75.6401L129.7 75.489L129.223 75.3633L128.496 75.4639H127.819L127.543 75.741L126.791 76.0178L126.038 75.8667L125.725 75.25L125.361 74.8847C125.361 74.8847 124.935 74.633 124.935 74.5321C124.935 74.4311 124.458 74.0537 124.458 74.0537L123.856 73.9531L123.606 73.3488L123.029 72.8956L122.628 72.4928L122.076 72.3417L121.875 71.8129L121.374 71.5863L121.073 71.2841L120.07 71.1832H119.543L118.941 71.5108L118.189 71.3848L117.612 71.5863H116.985L116.132 72.2157L115.731 72.6185L114.941 73.0844L114.552 73.4748L114.277 74.3057L114.076 74.8091L114.352 75.1617L114.741 74.8469L115.054 75.1617L115.405 75.5144L115.606 76.3199L115.405 76.7481L115.255 77.8307V78.5106L114.979 79.2158L115.355 79.9458L115.581 80.1724V80.8777L115.054 81.0288L114.715 81.8219L114.226 82.3129L113.399 82.6151L112.471 82.5396L111.794 82.4136L111.292 82.7157L110.59 83.1185L110.064 82.8417L109.587 82.6653L108.96 82.9423L108.434 83.4711L108.057 83.8488L107.844 84.5915L107.405 85.0324L106.829 85.4351L106.026 85.8128L105.412 86.4298L105.098 86.7444H104.296L103.568 86.971H102.54L101.788 87.0719L101.111 86.8453L100.91 86.4676L100.559 86.115H99.6061L98.7284 85.989L98.3772 85.7624L97.2238 85.9261H96.5089L95.9197 86.5178L95.2677 86.6689L94.6407 86.8453L93.7379 86.7698L93.1237 86.5054L92.7349 86.115L92.3713 85.3469L91.9073 84.8813L91.2552 84.6296H90.6283L89.9136 84.8181L89.4246 84.3274H88.4466L87.8697 83.8993L87.5812 84.1887L87.1926 84.5791L86.8791 85.2212L86.5406 85.5611L86.4402 86.2159L86.7538 86.5936V87.1599L87.1926 87.6007V88.205L86.6033 88.5954L86.0391 89.162H85.5626H84.8354L84.1582 88.9855L83.456 89.1115L82.9545 88.9604L82.2271 88.7084L81.826 88.3056L81.3495 87.8273L80.7727 87.6512L80.0956 87.928L79.6692 87.4998L79.1301 87.2608L78.6912 87.7013H78.1396L77.964 88.2301H77.312L76.4844 88.7589L75.9828 89.2626H75.4813L75.3809 89.7914L74.7917 89.9298L74.3779 90.3452L73.6255 90.3201L72.9986 90.6725L72.6725 91L71.9453 90.874L71.7196 90.4963L71.4438 89.9926L71.3058 89.4765L70.9171 89.8669L70.2652 90.1186L69.6633 89.9171L68.9862 89.7409V89.1366L68.4596 88.8093L68.259 88.3561L67.8327 88.079L67.7323 87.4747L67.3813 87.1475L66.9111 86.9397L66.6038 86.6314H65.9644L65.6509 86.9459L65.0239 87.0469L64.773 86.7949L64.2213 86.8955L63.9204 86.5933L63.6446 86.3165V85.9388L63.3688 85.6116L62.9674 85.7373L62.6915 86.3165L62.1398 86.4172L61.8137 85.7627L61.6381 85.1834L61.5128 84.5287L61.0865 83.7733V83.169L60.6852 82.7913V81.9603L60.3843 80.9532L59.958 80.5251L59.6822 80.2483L59.3938 79.6313L59.0803 79.3164L58.6541 79.1403V78.687H59.0051L59.306 78.2843L59.1807 77.9316H58.7293L58.3531 78.3093L57.8265 78.3344L57.4378 78.3471L57.024 78.7626L56.3218 78.9641L55.72 79.2914L55.444 78.8886L54.9174 79.1403H54.4911L54.6416 78.4604L55.2434 78.1833V77.831H54.7419L54.2905 77.5539L54.0147 77.831L53.5132 77.6799L53.6762 77.088L53.3125 76.723L52.811 77.0252L52.2592 76.8741L52.1212 76.4335L52.4348 76.1187V75.6404L52.5601 75.2877L52.3596 74.6583L51.9834 74.4819H51.532L51.3063 74.0286H50.6793L50.1778 73.7265L49.626 73.676L49.3251 74.1042H48.6981L48.1463 74.2553L47.6949 74.0036L47.1432 74.1042H46.4661L45.8141 73.7643H45.5508L45.2623 74.0537L44.7608 74.1546L44.2843 73.9026H43.858L43.2813 73.7265L42.4286 73.7516L41.8016 73.6259L41.3502 73.7516L40.9489 73.3993L40.3721 73.0971H39.8455L39.6699 73.651L39.8455 74.0286L39.4945 74.3813L39.7703 74.5574L40.0461 74.8345L40.3846 75.1744L40.0712 75.489H39.7202L39.2939 75.0611L38.6419 75.0862L38.2157 75.2624L38.3912 75.8921L38.2157 76.3453L37.7894 76.471L37.2879 76.3453L37.0873 76.8741L37.2503 77.2391L37.6013 77.5917L37.8395 77.8307L37.9398 78.2589L38.2909 78.6115L37.9398 79.0898L37.6138 79.417H37.062L36.4978 79.4548L36.2093 79.1654L36.0087 78.7561H35.7518L35.4821 79.027H35.0432L34.5542 78.5359L34.4601 78.2527L34.0903 77.8812V77.2391L33.7767 76.9242H33.2L32.7234 77.1007L32.5479 76.723L32.0713 76.3453L31.6451 76.1187L31.0683 76.3958L30.5417 76.4713L30.1154 76.3453L29.8145 75.7661L29.3882 75.3884L29.0873 75.8921H28.7612V75.4893L29.0621 75.1871L28.8616 74.759L28.6107 74.1042L28.5104 73.4243L28.1342 72.9711L27.5323 72.7445L27.3569 72.3166L27.0308 71.9891L26.429 72.09H26.0779V71.6114L25.9023 71.108L25.288 70.9944L24.9745 71.3092L24.3978 71.5108L23.8963 71.2337H23.3697L23.1188 71.6114H22.5922H22.0155L21.8898 71.8885L21.5637 72.2157L21.5136 72.694L20.8993 72.581L20.5356 72.2157V71.712L20.6987 71.221L20.4354 70.9566H20.009L19.8334 71.3597L19.5073 71.5987H19.0183L18.6296 71.9891L18.3036 72.3163V72.7696L17.8773 72.946L17.4259 72.9206L17.0998 73.2482L16.6985 73.525L16.8615 74.016L17.2252 74.3813L17.0747 75.0357L16.7486 75.3633L17.0747 75.5645L17.5512 76.0178L17.8522 76.3199L17.7268 76.9747L17.8648 77.8307V78.5233L17.6015 78.7877L17.3507 78.5106L16.9745 78.4604L17.0246 78.9137L17.2378 79.3542L17.5512 79.669L17.3004 79.9207L16.8741 79.9712H16.5231H16.2473H16.0216C16.0216 79.9712 15.7207 80.009 15.4825 80.009C15.2443 80.009 15.2944 79.8201 15.2944 79.8201L14.9182 79.7192L14.7428 79.543L14.2914 79.4675V79.8201L13.9403 79.9712L13.5141 80.4746H13.0375L12.5109 80.6257L12.2036 80.5439L11.9466 80.8021V81.2176L12.21 81.482L12.3604 81.9603L12.2351 82.4386L12.1222 82.8795L11.8338 83.169V83.3451L11.583 83.5717L11.0312 84.4782V85.1834L11.1817 86.0395L11.0813 86.6942L11.1314 87.4998L10.5295 87.7769L10.1282 87.6007L9.5515 87.8019L8.99974 87.6763L8.9245 87.1976L8.6487 86.3667L8.59859 85.7624L8.1973 85.4856V85.1581L7.99672 84.6293L7.64568 84.176L7.87139 83.7983L8.02185 83.3705L7.64568 82.9674L7.52035 82.5142L7.09407 82.464L7.00635 82.1996L6.69263 81.8848L6.14086 81.8092L5.78982 81.4566L5.68946 80.6511L5.33842 80.3235L5.43878 79.8201L5.01251 79.4675L4.78681 78.8886L4.41064 78.7121L3.85888 78.3344L3.68328 77.7301L3.30711 77.1512L3.18177 76.6475L2.90597 76.597L2.7054 76.3453L2.45457 75.9927L2.1285 76.0431L1.92793 75.4388L2.00316 74.2807L1.9028 73.4243L1.70223 72.9965L1.4514 72.6188L1.50151 71.8634L1.20057 71.5863L1 71.1835L1.15047 70.7303L1.02513 70.2266L1.30093 69.9495L1.60187 69.8994L2.00316 70.4027L2.37933 70.5287L2.55493 70.151L2.9812 69.9749L3.55794 69.9495H3.85888L4.23504 70.0755L4.31028 69.4461L4.10971 69.0684L4.21007 68.7409L4.511 68.7913L4.78681 68.9929L5.08774 69.2697L5.31344 69.043L5.66448 69.1941L6.24122 69.2697L6.6675 69.4461L6.76786 68.9929L6.46692 68.7663L6.04065 68.6653L5.76484 68.3886L5.46391 68.2876L5.84008 67.8849L6.39169 67.6332L6.86822 67.8344L7.29449 67.6582L7.69579 68.0864L8.29766 68.7409L8.84942 68.187L9.22559 67.9604L9.12523 67.4062L9.47627 67.0539L9.82731 67.1044L9.80218 66.7013L10.7301 66.5756L10.9057 66.1474L11.1063 65.8957L10.68 65.6942V65.1654L10.2787 64.7122L10.1282 64.1329L9.75207 63.9063L9.35078 63.4531L9.50125 62.9243L9.35078 62.1437L8.8744 61.7914L8.32264 61.3634L8.14704 60.7841L7.77087 60.482L7.64553 60.1295L7.9716 59.7518L8.22242 59.1978V58.669L7.94662 58.1655L7.67081 57.7375L7.92164 57.5361L8.07211 57.1584H8.37304L8.59874 56.957L8.77434 56.2771L8.82444 55.8742L8.62372 55.3707L8.34776 55.0936L7.9716 55.0433L7.69579 54.7411L7.47009 54.4137L7.13154 54.7032L6.86822 54.4388L6.64252 54.0611L6.86822 53.6582L7.34475 53.1797L7.67081 52.802L7.79615 52.3488L8.17232 52.3235L8.44813 52.6257L8.59859 53.0034L9.1001 53.1799L9.57663 53.0288L9.70197 52.5252L9.85244 51.9712L9.47627 51.5935L9.7271 51.4172L9.70197 50.9892L9.85244 50.3849L10.1282 49.7303L10.3288 49.1762L10.8303 49.0252L11.0059 48.6475L11.4824 48.2445V47.3884L11.0562 46.9856L10.5796 46.8597L10.7301 46.482L10.8555 46.0791L10.5044 45.7267L10.2787 45.2231L10.3539 44.8706L10.8305 44.3922L11.1063 43.8886L10.9809 43.4354L11.3822 43.3346L11.9841 42.9569V42.4281L12.2349 42.126L12.8618 42.1007L13.1376 41.7734L13.1627 41.3957L13.6893 41.1943L14.1156 40.6152L14.6924 40.6404L15.1939 40.3383L15.871 40.4893L15.9713 40.1116L16.197 39.885L16.6233 40.0864L16.9743 40.4641L17.5263 40.6403L17.7268 41.0935L17.9274 41.597L18.2283 41.2949L18.1782 40.5647L17.7268 40.1618V39.3056L18.1281 39.205L18.2535 39.0792L17.7017 38.8525L17.3756 38.4748L22.993 38.4496L24.0463 38.0719V37.4173L24.2219 35.7554H24.9241L25.526 35.2769V34.6223L25.9774 34.446V33.5898L26.3787 33.5646L27.2564 32.8595L27.6826 33.0609L28.6106 31.3235L28.6733 30.8577L29.4381 30.0898H30.7171L31.1184 29.3847V28.025L31.9209 27.6221L32.9741 27.0933L33.7013 27.3702H34.1278L34.4788 27.7227L34.9094 27.4214L34.8047 27.9493L35.231 27.899L35.8329 27.9242V28.3271L35.9582 28.7804L35.6824 28.6041L35.3939 28.3145L35.1306 28.5788L35.256 29.0573V29.5358L35.6822 29.7624L36.0083 30.0898V30.6186L36.372 30.7949V31.3867L36.7858 31.8021L36.9863 32.5072V33.2374L36.861 33.8669L37.0115 34.2194L37.024 34.9873L37.4629 35.428L37.4377 35.982L37.3374 36.8885L36.8985 37.6564L36.2338 38.3238H35.5316L34.7542 38.4748L34.077 38.223L33.3372 37.8075L32.8739 37.3416V36.6617L32.3974 36.1833L32.1717 35.6545L31.9961 35.1509L31.6702 34.5971L31.4946 33.6654L31.1435 33.5143L31.2564 32.9478L31.5448 32.6581L31.1938 32.3057L31.0308 32.7464L30.7927 32.9855L30.893 33.5395L30.9055 34.1816L30.6297 34.4585L30.9934 34.8237L30.893 35.3777L30.542 36.1583L29.9276 36.3472L29.4386 36.8382L29.2505 37.7321L28.7866 38.1979L28.9371 38.7267L29.1628 39.3813L28.7991 40.0234L29.3133 40.5396L29.8646 41.0935L30.4916 40.6403L30.6169 40.0109L30.2908 39.6835L30.341 39.1295V38.7015L30.7672 38.2482H31.1935L31.344 39.3813L31.4819 40.1242L31.9209 40.5649L32.1967 41.144L32.9114 41.358L33.1246 41.144L32.949 40.716L33.3753 40.3635L33.4004 39.4822L34.1779 39.6081L34.9051 39.3312L35.5069 39.6586L36.184 39.4445H36.6479L36.9365 39.7338L37.3628 40.3884L37.0118 40.7409V41.2949L37.3252 40.9047L37.7641 40.464L38.366 40.3381L38.8675 39.6079V38.9784L39.068 38.5504L39.72 38.223V37.8201L40.347 37.4424V36.8128L40.2467 36.2085H40.6729L40.8109 36.5232L41.3752 37.0897L41.8014 37.7444V38.6256L41.651 39.0789L41.4253 39.3055L41.0491 38.9278L40.5225 38.8019L39.72 39.0789V39.7335L39.9206 40.3378V40.8414L40.4973 40.9924L41.0491 41.2443L41.6761 40.9421V40.4889L42.3281 40.3378L42.9551 40.64L42.8547 40.237L43.8327 40.4133L44.3594 40.3126L45.3123 40.4384H45.864L46.1399 40.942H46.3907V40.4887L47.1931 40.2369H47.6197L47.7953 40.8915H47.3188L47.1683 41.3447L46.7921 41.4706L47.3689 41.9994H47.7702L48.5225 41.672L49.2372 41.8105L50.0147 42.5912L50.278 42.3268H50.8046L51.4693 42.1127L51.7326 42.3771L51.6573 42.7295L51.256 43.0065V43.4345L51.7326 43.8374L51.7702 43.3716L51.9834 43.1575L52.4849 43.2834V42.8805L52.9614 42.8049L53.0618 42.2006L52.9866 41.4704L53.438 41.2438L53.8266 41.1305L54.2905 41.5963L54.4911 41.3949L55.0052 42.037L55.5946 42.6288L56.0711 43.1072L56.3846 43.7493L56.9739 44.3411L57.3752 44.9706L57.8015 45.5497V46.0533L58.1524 46.6079L58.6539 46.3057V45.777L59.2307 45.2482L58.8294 45.1223L58.5535 44.4677L58.6539 43.7626L58.1774 43.4352L57.9141 42.8939L58.1523 42.6548L58.6538 42.4029V42L58.7791 41.3957L59.0048 41.0935V40.7158L58.6787 40.615L58.8543 40.1115L59.1301 39.759L59.6316 39.5827L60.1708 39.3183L60.3589 39.1295L60.7851 38.7015L61.1112 37.9713L61.362 37.367L61.6378 36.7627L62.1144 36.5108L62.4153 36.9388H63.0172L63.3181 37.241H63.8447L64.0704 38.0971L63.8196 38.349L63.7067 39.268L62.992 39.9856L62.7915 40.6403L63.2177 41.018L63.0673 41.8741L62.9419 42.554L62.4404 43.3094L62.2648 44.3922L61.989 45.349L61.7884 45.8274L61.9765 46.4947L62.4154 46.9354L62.3402 47.3384L61.7884 47.7664L61.6881 48.6981L61.1363 48.8492L60.4843 49.5038L60.1082 50.0578L59.7571 50.2592L59.1301 50.1333L58.754 50.3852L58.3402 50.1208L58.0769 49.8564L57.7007 49.7306V50.209L58.0769 50.7881L58.453 50.9644L58.9545 51.3169L59.3808 51.2917L59.6818 51.7197H60.1332C60.1332 51.7197 60.3212 51.3797 60.2209 51.279C60.1205 51.1782 60.4842 51.0146 60.4842 51.0146H60.8103L60.9607 50.8635L61.5877 50.6872L62.0892 50.4103V49.8815L62.3149 49.6549L62.7036 49.2646L63.017 48.9499L63.1675 48.3456L63.0421 47.8168L62.992 47.3384L63.3306 46.9984L63.6691 46.6585H64.1958L64.7725 46.583L64.9355 47.074L65.1737 47.3131L65.4746 48.0938L65.0739 48.4964L65.099 49.1007V49.4784L65.6005 49.982L66.1773 50.1078V49.7553L65.613 49.5917L65.3998 49.3776V49.0755L65.3497 48.6222L65.751 48.4964L65.9015 48.169L65.751 47.6905L65.9266 47.2876L65.6758 46.7841L65.3497 46.4819L65.1491 46.2805L64.5348 46.0664L64.1837 45.714L63.8953 46.0036L63.5191 46.1799L63.3185 45.903H62.8671L62.7919 45.4245L63.0928 45.1223L63.0176 44.3166L63.3686 43.7626L63.5943 43.108L64.0959 42.6044L63.9203 42.0504L63.7698 41.572L63.8325 41.0559L63.4689 40.6907L63.8702 40.2878L64.4972 39.6582H65.0238L65.3247 39.1798L65.5253 38.651L65.3497 38.223L65.5253 37.8453H65.9266L65.8013 38.3741V39.1042L65.7009 39.7589L65.2495 40.2121V40.8417V41.2949L65.7761 41.6978L66.0771 41.9497L66.4657 41.7105L66.8544 42.1007L67.2806 42.5037V42.2015L67.1177 41.8113L66.8292 41.5217L66.3778 41.295V41.0937L66.0017 40.716L65.8262 40.1618L66.3529 39.8093L66.6037 40.0612L67.005 40.4641L67.3059 40.1872L67.2056 39.8598L67.1679 39.5702L67.4564 39.2805L67.9579 39.3813L68.3717 39.3183L68.7102 39.6582L69.3622 40.0107L69.1866 40.5143L69.3496 40.6779L69.7885 41.1186H70.4656L70.5659 40.7157L70.2901 40.338L70.3153 39.9855L69.8387 39.8092L69.4877 39.2301L69.287 39.0287L69.4374 38.4244L69.6631 37.9208L69.4626 37.7194L69.3372 37.0899L69.8387 36.6367H71.0173L71.6192 36.8633V36.7122H72.5973L73.2492 36.4353H73.7256L73.9764 36.1834L73.7256 35.8057L73.4247 35.705L73.1738 35.4531C73.1738 35.4531 73.2742 35.3523 73.4623 35.1635C73.6504 34.9746 73.6504 35.3523 73.6504 35.3523L73.9513 35.2768L73.7507 35.0502L73.8887 34.7355L73.6755 34.5214L73.9263 34.1689L74.2774 33.892L73.9263 33.8668L73.9012 33.4891L74.6034 33.5143L74.8792 32.9352L75.5688 32.6708L75.8321 32.4064L76.7726 32.2679L77.0108 32.0287L77.6879 31.8274L77.8383 31.651L77.3869 31.5L77.6378 31.2481L78.2897 31.097L78.8415 31.0215L78.9668 30.7446L79.4182 30.669L79.18 31.1223V31.4874L79.4935 31.1727L80.2711 31.1978L80.3463 30.7949L80.8478 30.6941L81.3493 30.7949L81.1236 30.4927L80.8227 30.2661L80.6722 29.9892H81.224L81.8007 29.8129H81.9763L81.9262 29.3848L81.7255 29.2338V28.6295L81.851 28.2265L82.2271 27.2948L82.6786 26.9674L83.0797 26.5394L83.5814 26.8416L83.9575 26.7913L84.0704 27.3075L83.6816 27.6977L83.3557 28.1258L84.1518 28.1699L84.3086 28.0124H84.7976L85.1613 28.3776L84.8352 28.705C84.8352 28.705 84.8101 29.0324 84.9605 29.0324C85.111 29.0324 85.5123 29.2087 85.5123 29.2087L85.6376 28.7807L85.4119 28.5541L85.9637 28.2519H86.4652L86.9794 27.8867L87.2678 28.1764L87.6565 27.9875L87.9449 28.2771L88.1956 28.7807L88.4965 29.0325L88.6721 28.8311L88.9354 29.0955L89.274 29.4355L89.2239 29.9642L88.7222 29.8635L88.9229 30.0649L89.4244 30.3418L89.7379 30.8831L89.4496 31.1726V31.6761L89.1987 32.0286L88.9606 32.5196L88.6721 32.8092L88.1706 33.4135V33.6654L88.0201 34.3705L87.644 34.7482L87.4935 35.5288L86.8916 35.6799L86.7036 36.2464L86.2898 36.6619L86.1894 37.3165L86.0641 37.7698L86.5155 37.5684L86.4151 37.0648L86.8665 36.7879C86.8665 36.7879 87.2678 36.662 87.4935 36.662C87.7192 36.662 87.7944 36.2088 87.7944 36.2088L88.2207 35.8563L88.622 35.7053L88.8602 35.2395L88.6721 35.0506L88.3712 35.0254L88.3963 34.8237L88.3712 34.4208L88.7473 34.3955H89.0483L89.4746 34.4963L89.9762 34.6977L90.0764 34.3955L90.39 33.9548L90.6533 34.2192V34.7228L90.9542 35.1508H91.3053L90.9542 34.8237L91.1924 34.5845L91.6563 34.1188L92.2833 33.7914L93.2362 33.6151L93.9886 33.3885L94.1768 33.6781L94.0012 33.8544L94.415 34.2699H95.1923L95.2174 34.0685L95.2927 33.7915L95.5936 34.27L96.1202 34.0686L96.6469 33.6154C96.6469 33.6154 97.1986 33.5146 97.324 33.5146C97.4493 33.5146 97.324 33.0614 97.324 33.0614L97.2487 32.5578L96.8726 31.9787L96.9729 31.3996L97.0482 31.0975L97.3491 31.3996L97.6625 31.1605L97.9258 31.4249L98.3271 31.7018L98.4274 31.3996L98.6281 31.3489L98.8287 31.5755L99.0292 31.4244C99.0292 31.4244 99.0042 30.9586 99.1923 30.9586C99.3804 30.9586 99.4305 30.7195 99.4305 30.7195L99.9823 31.1475L100.158 30.9712L100.76 31.1726L100.559 31.7894H100.847L101.136 32.079V32.5575L101.612 32.2554L101.863 32.5072V33.0612L101.537 33.162L101.336 33.3632L101.688 33.7157C101.688 33.7157 101.963 33.5898 101.963 33.4638C101.963 33.3378 102.189 33.6905 102.189 33.6905V34.0934L102.703 34.0807L103.192 34.5717L103.568 34.8236L104.095 34.9243L104.321 34.6977L104.897 34.9999L104.948 34.5215L104.697 33.6906L104.546 33.3129V32.9604L104.22 32.6331V32.1798L104.847 32.2554L105.198 32.6078L105.75 32.4567H106.377L106.252 31.8021L106.603 31.1475L107.255 30.9964L107.731 30.9712L108.283 31.1223V30.7446L107.694 30.4802L107.907 30.2661L108.183 29.9639L108.659 29.9892L109.035 29.6115L108.86 29.5107L108.484 29.133L108.057 28.9064V28.3524L107.882 28.2013L107.631 28.8559L107.33 28.6545V28.1258L107.882 27.6222L107.807 27.2697L107.28 26.9424L107.606 26.615H108.082L108.785 26.2625L108.985 25.6834L109.913 25.3309L110.64 25.0035C110.64 25.0035 110.741 25.1043 110.741 25.2554C110.741 25.4065 110.264 25.5828 110.264 25.5828L110.089 26.2626L110.515 26.0611L110.891 25.6834L111.368 25.8345L111.242 26.8165L111.668 26.4136V25.9351L111.518 25.1294L111.618 24.7769L111.844 24.1474L112.371 23.8955L113.123 23.5681L113.574 23.8955C113.574 23.8955 113.361 24.1852 113.198 24.3488C113.035 24.5124 113.374 24.6259 113.374 24.6259H113.925L114.277 24.2229C114.277 24.2229 114.678 24.6509 114.753 24.7265C114.828 24.802 114.678 24.1474 114.678 24.1474L115.355 23.7697L115.831 24.0215L116.358 23.9965L116.835 23.518L117.336 22.8884V22.1583L117.963 21.2266L118.49 20.6978L118.966 20.1187L119.794 19.9929L120.483 19.9551L120.822 20.295L121.524 21.0001L122.151 20.7232L122.602 20.358H123.091L122.853 20.1187V19.7661L123.33 19.2878V18.4568L123.555 18.0288H123.932L124.258 17.7014V17.1979L124.885 16.7446L125.035 16.1403L124.784 15.8885L124.885 15.5863L124.534 15.0828L124.809 14.5791L125.073 14.3147L125.549 14.7932L125.186 15.1583L125.562 15.536H126.138L126.54 15.3849L127.091 15.1331L127.593 15.0072L127.718 14.6043L127.568 14.2014L127.292 14.1511L126.439 13.7734L125.813 13.8741L125.662 13.5217H125.16V13.2447L125.286 12.7663L125.737 12.5397L125.787 12.0109L126.189 11.7843H126.54L126.389 11.3562L126.54 10.903L126.966 10.2733Z" fill="#CCCCCC"/>
<path fill-rule="evenodd" clip-rule="evenodd" d="M130.25 59.087L130 59.3261V59.6303V59.9564L130.425 59.8043L130.65 60L130.9 59.7828L131 59.3477L130.725 59L130.25 59.087Z" fill="#CCCCCC"/>
<path fill-rule="evenodd" clip-rule="evenodd" d="M136.303 56.6373L136.13 56.6799L136 56.3187V56L136.563 56.1486L136.845 56.2761L136.996 56.6161L137.299 56.9136L137.841 57.0198L137.971 57.3596L138.577 57.7421H138.902L139.162 58.1032L139.378 58.6769L139.714 59.006L140.353 59.6541L140.764 59.7603L141.328 59.9727L141.869 60.4402L142.606 60.8437L143.082 61.2474L143.71 61.566L144.251 61.8847L144.598 62.1608L145.204 62.3946L145.118 62.6708L144.902 62.8831L144.49 63.0105H144.165L144.252 63.4566L144.165 63.7753V64.0302L144.533 64.5826C144.533 64.5826 144.88 64.9648 144.815 65.0286C144.75 65.0924 144.837 65.6873 144.837 65.6873L145.118 65.9635L145.551 66.3885L145.92 66.6222H146.483L146.807 66.9407H147.176L147.371 67.3443L147.847 67.3657L148.139 67.0789L148.648 67.3657L148.952 67.7482C148.952 67.7482 149.06 68.003 148.952 68.003C148.843 68.003 148.259 67.7268 148.259 67.7268L148.01 67.9711H147.457L147.284 68.4067L147.392 68.8314L147.739 69.1713L147.999 69.7238L147.652 70L147.371 69.6601L147.003 69.2987L146.353 68.704V68.3003L145.92 67.8756L145.508 67.4719L145.227 67.1108L144.88 66.4522L144.447 66.0485L143.992 65.7936L143.559 65.6662L143.191 64.9014L142.389 63.818L141.74 63.1805L141.198 62.6496L140.721 62.0123L140.418 61.5237L139.595 61.1625L138.946 60.8864L138.556 60.8438L138.036 60.1427V59.8242L137.473 59.2718L137.17 58.7194L136.563 58.5282L136.715 58.1033V57.7847L137.213 57.9333L137.299 57.5084L137.007 57.2218V57.0623L136.72 56.7807L136.303 56.6373Z" fill="#CCCCCC"/>
<path fill-rule="evenodd" clip-rule="evenodd" d="M154.783 68.0639L154.87 68.5106L154.913 68.9363L155.087 69V68.6596L155.217 68.3829V68L154.783 68.0639Z" fill="#CCCCCC"/>
<path fill-rule="evenodd" clip-rule="evenodd" d="M155.859 67.8262V68.0218L156.141 68.1742V67.8476L155.859 67.8262Z" fill="#CCCCCC"/>
<path fill-rule="evenodd" clip-rule="evenodd" d="M155.125 65.8851L155.625 66L155.792 65.6322L155.542 64.8968L156 64.6439L155.917 64.1148L155.208 64L155 64.5978L155.271 64.7469L155.042 65.1954L155.125 65.8851Z" fill="#CCCCCC"/>
<path fill-rule="evenodd" clip-rule="evenodd" d="M155.979 63.7607L155.87 63.8695L155.957 64.2397L156.131 63.9785L155.979 63.7607Z" fill="#CCCCCC"/>
<path fill-rule="evenodd" clip-rule="evenodd" d="M156.805 61.9205L156.913 61.2318L156.762 60.8082L156.848 60.3578L157.141 60L157.217 60.4903L157.152 60.9936L157.239 61.5762L157.087 62L156.805 61.9205Z" fill="#CCCCCC"/>
<path fill-rule="evenodd" clip-rule="evenodd" d="M144.054 29.1539V29.6374L144 30.077L144.324 30.2529L144.54 30.4726L144.567 30.8682L145 31L144.892 30.6045L144.703 30.2968L144.892 29.7912V29.1759L144.378 29L144.054 29.1539Z" fill="#CCCCCC"/>
<path fill-rule="evenodd" clip-rule="evenodd" d="M152.4 31.7932L152 31.902L152.2 32.2284H152.886H153.571L154 31.902L153.457 31.7715L152.914 31.9456L152.4 31.7932Z" fill="#CCCCCC"/>
<path fill-rule="evenodd" clip-rule="evenodd" d="M154.33 48L154.202 48.3478L154 48.5314L154.234 48.744L154.372 49.0048L154.33 49.3527L154.308 49.7971L154.532 50L154.777 49.8744V49.4106L155 49.2079L154.819 48.8116L154.521 48.541L154.542 48.1932L154.33 48Z" fill="#CCCCCC"/>
<path fill-rule="evenodd" clip-rule="evenodd" d="M154.815 50.7822V51.1086L155.032 51.2175L155.184 51.0217L154.815 50.7822Z" fill="#CCCCCC"/>
<path fill-rule="evenodd" clip-rule="evenodd" d="M156.848 57.0244V57.5611V58H157.151L157.065 57.5854V57.317V57L156.848 57.0244Z" fill="#CCCCCC"/>
<path fill-rule="evenodd" clip-rule="evenodd" d="M154.5 29.8583L154 30.0542L154.269 30.2065L154.635 29.9997L155 29.793L154.5 29.8583Z" fill="#CCCCCC"/>
<path fill-rule="evenodd" clip-rule="evenodd" d="M125.508 4.07892L125.251 4L125.027 4.19284L124.535 4.4035L124.134 4.73238L124.171 5.29817L124 5.43866L124.086 5.89467L124.406 6.28067L124.738 6.91233L125.251 7L125.599 6.71488L125.861 6.32458L125.572 6.07017L126 5.56134L125.925 5.00875V4.35084L125.508 4.07892Z" fill="#CCCCCC"/>
<path fill-rule="evenodd" clip-rule="evenodd" d="M1 39.2222L1.38892 39.2986L1.72223 39.2153L1.84922 39L2.15073 39.0417L2.43261 39.2882L2.44445 39.625L2.6746 39.6876L2.72228 39.9514L3.07941 40.007L3.15873 39.757L2.96442 39.5868L3.13099 39.4411L3.23819 39.5349L3.57944 39.7848V40.1597L3.53176 40.4861L3.73012 40.7708L3.92863 40.8888L4 41.3124L3.82548 41.6319L2.99215 42L1.73017 40.6875L1 39.2222Z" fill="#CCCCCC"/>
</svg>
